<svg xmlns="http://www.w3.org/2000/svg" viewBox="0 0 1024 1024" version="1.1"><path d="M885.9 104.6h-749C102.6 104.6 74.5 133.1 74.5 167.9V800.9c0 34.8 28.1 63.3 62.4 63.3h530.5V800.9h-499.3c-18.7 0-31.2-15.8-31.2-31.7V199.5c0-15.8 12.5-31.6 31.2-31.6h686.6c18.7 0 31.2 15.8 31.2 31.6v411.5H948.4v-443.1c0-34.8-28.1-63.3-62.4-63.3zM819 599.5c-6.2-6.3-12.5-9.4-21.8-9.4-9.3 0-15.6 3.1-21.8 9.4l-87.3 88.2c-12.5 12.6-12.5 31.5 0 44.1 12.5 12.6 31.2 12.6 43.6 0l34.3-34.6v195.2C766.1 908 778.5 923.8 797.2 923.8c18.7 0 31.2-12.6 31.2-31.5v-195.2l37.4 37.8c12.5 12.6 31.2 12.6 43.6 0 12.5-12.6 12.5-31.5 0-44.1l-90.4-91.3z m-408.2-236.2c15.6-34.6 6.2-75.6-18.7-103.9-28-28.3-71.7-34.6-105.9-22-34.3 15.8-56.1 53.5-56.1 91.3 0 50.4 40.5 91.3 90.4 91.3 37.4 0 74.8-22 90.4-56.7v-0zM292.4 328.7c0-9.4 3.1-15.7 9.3-22 3.1-9.4 12.5-12.6 21.8-12.6 15.6 0 31.2 12.6 31.2 28.3 0 15.7-12.5 31.5-28 34.6-18.7 0-34.3-12.6-34.3-28.3h0z m-104.3 384.6c12.5 12.5 31.4 12.5 43.9 0l131.7-131.6 109.8 109.6c3.1 3.1 3.1 3.1 6.3 3.1 12.6 6.3 25.1 6.3 37.6-3.1L827.9 381.3c12.5-12.5 12.5-31.3 0-43.9-12.6-12.5-31.4-12.5-43.9 0l-288.5 288.2L385.7 512.8l-3.1-3.1c-12.6-9.4-28.2-9.4-40.8 3.1L184.9 669.5c-9.4 12.5-9.4 31.3 3.1 43.9l-0-0z m0 0" fill="#6569" p-id="1119"></path></svg>