<svg xmlns="http://www.w3.org/2000/svg" viewBox="0 0 1024 1024" version="1.1"><path d="M558 114.5c10.2 0 19.6 4.1 27.6 10.9 1.1 0.9 2.1 2 3.2 3.1l139.8 136.5 162.7 158.8 3.9 3.8c12.1 12.5 20 31.9 20 53.9-0 22.1-7.9 41.5-20.1 54l-3.8 3.6-162.7 158.9L594.5 828.8l-12.5 12.2c-7.2 5.2-15.3 8.4-24 8.4-28.3 0-51.2-30.6-51.2-68.4V182.9c0-37.7 22.9-68.4 51.2-68.4zM149.8 114.5c10.2 0 19.6 4.1 27.6 10.9 1.1 0.9 2.1 2 3.2 3.1l139.8 136.5 162.7 158.8 3.9 3.8c12.1 12.5 20 31.9 20 53.9-0 22.1-7.9 41.5-20.1 54l-3.8 3.6-162.7 158.9L186.3 828.8l-12.5 12.2c-7.2 5.2-15.3 8.4-24 8.4-28.3 0-51.2-30.6-51.2-68.4V182.9c0-37.7 22.9-68.4 51.2-68.4z" fill="#6569" p-id="795"></path></svg>