<svg xmlns="http://www.w3.org/2000/svg" viewBox="0 0 1024 1024" version="1.1"><path d="M643.9 262.9c-18 0-32.8 14.6-32.8 32.5v81.2c0 17.9 14.7 32.5 32.8 32.5s32.8-14.6 32.8-32.5v-81.2c0-17.9-14.7-32.5-32.8-32.5z" fill="#6569" p-id="1074"></path><path d="M910.5 313.8l-145.8-207.9c-13.1-17.9-34.4-29.2-59-30.9H175c-36 0-65.5 29.2-65.5 65v745.5c0 35.7 29.5 63.3 65.5 63.3h689.6c36 0 63.9-29.2 63.9-63.3v-526.2c1.6-17.9-6.5-34.1-18-45.5zM205.1 171.9h517.6v220.9c0 30.9-26.2 58.5-59 58.5H264c-32.8 0-59-26-59-58.5V171.9z m544.3 665.1h-462.6c-24.6 0-44.6-20.3-44.6-45.3s20-45.3 44.6-45.3h462.6c24.6 0 44.6 20.3 44.6 45.3s-20 45.3-44.6 45.3z m0-167.1H286.7c-24.6 0-44.6-20.3-44.6-45.3s20-45.3 44.6-45.3h462.6c24.6 0 44.6 20.3 44.6 45.3s-20 45.3-44.6 45.3z" fill="#6569" p-id="1075"></path></svg>