<svg xmlns="http://www.w3.org/2000/svg" viewBox="0 0 1024 1024" version="1.1"><path d="M212 812.5h600.8V211.6H212v600.9z m82-519h436.9v437h-436.9v-437z m-177.4 27.3c22.6 0 40.9-18.3 40.9-40.9V157.1h122.9c22.6 0 40.9-18.3 40.9-40.9s-18.3-40.9-40.9-40.9H116.5c-22.6 0-40.9 18.3-40.9 40.9v163.9c-0.2 22.5 18.1 40.8 40.9 40.8z m163.8 546.2H157.4V744.2c0-22.6-18.3-40.9-40.9-40.9-22.6 0-40.9 18.3-40.9 40.9v163.8c0 22.6 18.3 40.9 40.9 40.9h163.9c22.6 0 40.9-18.3 40.9-40.9-0.2-22.6-18.4-40.9-41.1-40.9zM908.4 75.1H744.5c-22.6 0-40.9 18.3-40.9 40.9 0 22.6 18.3 40.9 40.9 40.9h122.9v122.9c0 22.6 18.3 40.9 40.9 40.9 22.6 0 40.9-18.3 40.9-40.9v-163.8c0.2-22.6-18.1-40.9-40.8-40.9z m0 628.2c-22.6 0-40.9 18.3-40.9 40.9v122.9H744.6c-22.6 0-40.9 18.3-40.9 40.9 0 22.6 18.3 40.9 40.9 40.9h163.9c22.6 0 40.9-18.3 40.9-40.9V744.2c-0.2-22.6-18.4-40.9-41.1-40.9z m0 0" fill="#6569" p-id="941"></path></svg>