<svg xmlns="http://www.w3.org/2000/svg" viewBox="0 0 1024 1024" version="1.1"><path d="M162.9 326.2a28.4 28.4 0 0 0 21 8.4h1.4a29.6 29.6 0 0 0 20.4-8.4l147.2-148a28.3 28.3 0 0 0 8.1-20.2 28 28 0 0 0-8.4-20c-10.9-10.5-28.2-10.5-39.1 0L184.8 267.5l-59.2-59.4a28.1 28.1 0 0 0-20-8.4 27.8 27.8 0 0 0-20 8.4 29 29 0 0 0-8.5 20 28 28 0 0 0 8.4 20l77.4 78z m151.4 92.1L185.3 547.8l-59.2-59.4a28.1 28.1 0 0 0-20-8.9 27.1 27.1 0 0 0-20 8.4 29.1 29.1 0 0 0-8.4 20 28 28 0 0 0 8.4 20l77.3 77.5a29.1 29.1 0 0 0 21.8 8.4h1c7.7 0 15.1-3 20.5-8.4l147.1-147.1a29.1 29.1 0 0 0 8.4-20 28 28 0 0 0-8.4-20c-11.2-10.3-28.4-10.4-39.7-0.1z m-0.5 280.3L184.7 828.1l-59.1-59.4a28.1 28.1 0 0 0-20-8.4 27.8 27.8 0 0 0-20 8.4 29 29 0 0 0-8.5 20.2 28 28 0 0 0 8.4 20l77.3 77.5a30 30 0 0 0 21 8.4h2.5a27 27 0 0 0 20-8.4l147-147.6a29 29 0 0 0 8.4-20 27.9 27.9 0 0 0-8.4-20.2c-11.4-9.8-28.2-9.8-39.5 0zM952.2 196.3c0 27.7-22.5 50.2-50.2 50.2H510.9c-27.7 0-50.2-22.5-50.2-50.2s22.5-50.2 50.2-50.2h391c27.7 0 50.2 22.5 50.2 50.2zM954.4 504.4c0 27.7-22.5 50.2-50.2 50.2H513.1c-27.7 0-50.2-22.5-50.2-50.2s22.5-50.2 50.2-50.2h391c27.7 0 50.2 22.5 50.2 50.2zM950 812.4c0 27.7-22.5 50.2-50.2 50.2H508.7c-27.7 0-50.2-22.5-50.2-50.2s22.5-50.2 50.2-50.2h391c27.7 0 50.2 22.5 50.2 50.2z" fill="#6569" p-id="659"></path></svg>