<svg xmlns="http://www.w3.org/2000/svg" viewBox="0 0 1024 1024" version="1.1"><path d="M907.4 317.8L763.1 90.9c-5.1-8.1-14.3-12.8-23.8-12.4-9.6 0.4-18.3 5.9-22.7 14.4L683.4 156.5l-5.3 10.1-2.8 5.4c-52.9-25.8-112.2-40.3-175-40.3-220.6 0-399.4 178.8-399.4 399.4S279.7 930.4 500.3 930.4c185.1 0 340.7-125.9 386-296.6 5.5-20.7-7-42-27.7-47.4-20.7-5.5-42 7-47.4 27.7-36.6 137.5-161.9 238.7-310.9 238.7-177.7 0-321.7-144-321.7-321.7s144-321.7 321.7-321.7c49.8 0 97 11.3 139.1 31.6l-3.6 6.8-2.6 5-37.9 72.7a26.8 26.8 0 0 0-7.2 18.3c0 15 15 26.6 27.4 26.9h0.6c0.4 0 0.8 0 1.1-0L885.9 359.1c9.6-0.4 18.2-5.9 22.7-14.4 4.4-8.5 4-18.7-1.1-26.9z" fill="#6569" p-id="1199"></path></svg>