<svg xmlns="http://www.w3.org/2000/svg" viewBox="0 0 1024 1024" version="1.1"><path d="M804.1 91.4l-300.2 383.6L187.7 75.6s-98.3 120.8-5.3 249.6c93 128.7 321.5 388.8 321.5 388.8l332.1-417.7s53.1-97.2-31.9-204.9z m-302.6 542.5c-25.7 0-46.5-20.6-46.5-46 0-25.4 20.8-46 46.5-46 25.7 0 46.5 20.6 46.5 46 0 25.4-20.8 46-46.5 46z m195.8 9.5c-85.5 0-154.8 68.5-154.8 153 0 84.5 69.3 153 154.8 153 85.5 0 154.8-68.5 154.8-153 0-84.5-69.3-153-154.8-153z m0 230.1c-43 0-77.9-34.5-77.9-77s34.9-77 77.9-77c43 0 77.9 34.5 77.9 77s-34.9 77-77.9 77zM309.3 643.4c-85.5 0-154.8 68.5-154.8 153 0 84.5 69.3 153 154.8 153s154.8-68.5 154.8-153c0-84.5-69.3-153-154.8-153z m0 230.1c-43 0-77.9-34.5-77.9-77s34.9-77 77.9-77c43 0 77.9 34.5 77.9 77s-34.9 77-77.9 77z m0 0" fill="#6569" p-id="1008"></path></svg>