<svg xmlns="http://www.w3.org/2000/svg" viewBox="0 0 1024 1024" version="1.1"><path d="M624.5 802.3h-466.4V627.5c21.9-51 54.9-97.5 102.3-124.2 112.2-68.3 170.7 107.3 263.4 131.7 107.3 29.3 185.3-48.8 219.5-136.6 24.4-68.3 24.4-263.4 126.8-268.2 39 0 39-58.5 0-53.6-112.2 9.8-136.6 121.9-156.1 209.7-9.8 58.5-19.5 126.8-63.4 170.7-53.6 58.5-136.6 24.4-180.5-24.4-63.4-82.9-165.8-136.6-263.4-58.5-19 16.2-34.9 34-48.7 52.4V143.2c0-22.9-18.6-41.5-41.5-41.5s-41.5 18.6-41.5 41.5v700.6c0 22.9 18.6 41.5 41.5 41.5 0.3 0 0.6-0 0.9-0 0.3 0 0.6 0 1 0h561c-25.1-22-44.4-50.5-55.1-82.9z" fill="#6569" p-id="748"></path><path d="M792.1 592.9c-86.7 0-157 70.3-157 157 0 86.7 70.3 157 157 157 86.7 0 157-70.3 157-157 0-86.7-70.3-157-157-157z m0 263.3c-58.7 0-106.3-47.6-106.3-106.3 0-58.7 47.6-106.3 106.3-106.3s106.3 47.6 106.3 106.3c0 58.7-47.6 106.3-106.3 106.3z" fill="#6569" p-id="749"></path><path d="M855.9 722.7h-40.3v-40.3c0-11.5-9.3-20.7-20.7-20.7-11.5 0-20.7 9.3-20.7 20.7v61c0 11.5 9.3 20.7 20.7 20.7h61c11.5 0 20.7-9.3 20.7-20.7 0-11.5-9.3-20.7-20.7-20.7z" fill="#6569" p-id="750"></path></svg>