<svg xmlns="http://www.w3.org/2000/svg" viewBox="0 0 1024 1024" version="1.1"><path d="M640.4 386c17.5 0 31.1-14 31.1-31v-107.7c0-17.5-14-31-31.1-31-17.5 0-31.6 14-31.6 31v107.7c0.5 17 14.5 31 31.6 31z m0 0" fill="#6569" p-id="1130"></path><path d="M839.6 75.6H185.5c-60.5 0.1-109.8 49.4-109.8 109.9v654c0 60.5 49.3 109.8 109.8 109.9h654.2c60.5-0.1 109.8-49.4 109.8-109.9V185.5c-0-60.5-49.3-109.8-109.8-109.9zM305.4 452.8V159.4h414.4v293.4H305.4z m-59.3 413h-60.6c-14.4 0-26-11.7-26-26.1V185.6c0-14.4 11.7-26.1 26.1-26.1h36.1v332c0 23.1 18.8 46.2 41.9 46.2h498.1c23.1 0 41.9-23.2 41.9-46.2V159.5h36c14.4 0 26.1 11.7 26.1 26.1V839.6c0 14.4-11.7 26.1-26.1 26.1l-593.5 0.1z" fill="#6569" p-id="1131"></path></svg>