<svg xmlns="http://www.w3.org/2000/svg" viewBox="0 0 1024 1024" version="1.1"><path d="M737.5 479.6L439.2 291c-28.8-18.2-52.8-5.6-52.8 28.6v373.9c0 33.9 24 47.6 53.6 29.8l296.6-178h0c29.6-17.7 29.9-47.2 0.8-65.7z m-86.6 31.5L462.9 624v-231.8l188 119zM406 343.6l0.3 0.2c-0.1-0.1-0.3-0.1-0.4-0.2l0.1 0z" fill="#6569" p-id="636"></path><path d="M848 232.6c-0-0-0.1-0.1-0.1-0.1-7-8.8-17.8-14.4-29.9-14.4-21.1 0-38.2 17.1-38.2 38.2 0 10.2 4 19.4 10.5 26.3l-0 0C841.9 345 873 425.2 873 512.5c0 199.1-161.4 360.4-360.4 360.4s-360.4-161.4-360.4-360.4 161.4-360.4 360.4-360.4l0-0.2c1.1 0.1 2.3 0.2 3.4 0.2 21.1 0 38.2-17.1 38.2-38.2 0-19.8-15-36.1-34.3-38l0-0.2H512.5c-241.3 0-436.9 195.6-436.9 436.9s195.6 436.9 436.9 436.9 436.9-195.6 436.9-436.9c0-106.5-38.1-204.2-101.5-280z" fill="#6569" p-id="637"></path></svg>