<svg xmlns="http://www.w3.org/2000/svg" viewBox="0 0 1024 1024" version="1.1"><path d="M892.1 737.8V286.2c35-15 59.6-49.8 59.6-90.4 0-54.3-44-98.3-98.3-98.3-40.7 0-75.7 24.8-90.6 60.1H260.1c-14.9-35.3-49.9-60.1-90.6-60.1-54.3 0-98.3 44-98.3 98.3 0 40.9 25 76 60.6 90.8v450.8c-35.6 14.8-60.6 49.9-60.6 90.8 0 54.3 44 98.3 98.3 98.3 40.7 0 75.7-24.8 90.6-60.1H762.8c14.9 35.3 49.9 60.1 90.6 60.1 54.3 0 98.3-44 98.3-98.3 0-40.5-24.5-75.3-59.6-90.4zM853.4 157.6c21.1 0 38.2 17.1 38.2 38.2s-17.1 38.2-38.2 38.2-38.2-17.1-38.2-38.2 17.1-38.2 38.2-38.2z m-683.8 0c21.1 0 38.2 17.1 38.2 38.2s-17.1 38.2-38.2 38.2-38.2-17.1-38.2-38.2 17.1-38.2 38.2-38.2z m0 708.9c-21.1 0-38.2-17.1-38.2-38.2s17.1-38.2 38.2-38.2 38.2 17.1 38.2 38.2-17.1 38.2-38.2 38.2z m593.2-76.5H260.1c-9.9-23.4-28.5-42.1-51.8-52.1V286.1c23.3-10 41.9-28.8 51.8-52.1H762.8c10 23.7 29.1 42.7 52.9 52.6v450.8c-23.8 9.9-42.9 28.8-52.9 52.6z m90.6 76.5c-21.1 0-38.2-17.1-38.2-38.2s17.1-38.2 38.2-38.2 38.2 17.1 38.2 38.2-17.1 38.2-38.2 38.2z" fill="#6569" p-id="1177"></path></svg>