<svg xmlns="http://www.w3.org/2000/svg" viewBox="0 0 1024 1024" version="1.1"><path d="M895.4 548.4h-325.1c-11.8 0-21.3 9.5-21.3 21.3v325.1c0 11.7 9.5 21.3 21.3 21.3H895.4c11.7 0 21.3-9.5 21.3-21.3v-325.1c0.1-11.7-9.5-21.3-21.3-21.3z m-52.3 283.5c0 5.9-4.8 10.6-10.6 10.6H633.2a10.6 10.6 0 0 1-10.6-10.6V631.5c0-5.9 4.7-10.6 10.6-10.6h199.3c5.8 0 10.6 4.8 10.6 10.6v200.5z m52.3-724.1h-325.1c-11.8 0-21.3 9.5-21.3 21.2v325.1c0 11.8 9.5 21.3 21.3 21.3H895.4c11.7 0 21.3-9.5 21.3-21.3v-325.1c0.1-11.7-9.5-21.2-21.3-21.2z m-52.3 283.5c0 5.9-4.8 10.6-10.6 10.6H633.2a10.6 10.6 0 0 1-10.6-10.6V190.9c0-5.9 4.7-10.6 10.6-10.6h199.3c5.8 0 10.6 4.8 10.6 10.6v200.5zM454.8 548.4H129.7c-11.7 0-21.3 9.5-21.3 21.3v325.1c0 11.8 9.6 21.3 21.3 21.3h325.1c11.8 0 21.3-9.6 21.3-21.3V569.7c-0-11.8-9.5-21.3-21.3-21.3z m-52.3 283.5c0 5.9-4.8 10.6-10.6 10.6H192.6c-5.9 0-10.6-4.7-10.6-10.6V631.5c0-5.9 4.8-10.6 10.6-10.6h199.3c5.9 0 10.6 4.8 10.6 10.6v200.5h-0z m52.3-724.1H129.7c-11.7 0-21.3 9.5-21.3 21.2v325.1c0 11.8 9.6 21.3 21.3 21.3h325.1c11.8 0 21.3-9.6 21.3-21.3V129.1c-0-11.7-9.5-21.2-21.3-21.2z m-52.3 283.5c0 5.9-4.8 10.6-10.6 10.6H192.6c-5.9 0-10.6-4.7-10.6-10.6V190.9c0-5.9 4.8-10.6 10.6-10.6h199.3c5.9 0 10.6 4.8 10.6 10.6v200.5h-0z m0 0" fill="#6569" p-id="952"></path></svg>