<svg xmlns="http://www.w3.org/2000/svg" viewBox="0 0 1024 1024" version="1.1"><path d="M936.9 177.9c-7.2-6.1-16.8-8.7-26.1-7l-231.8 41.7-59.2-19.9c-16.9-5.7-34.9 3.5-40.4 20.5-5.6 16.9 3.5 35.3 20.3 40.9l66.9 22.5c1.6 0.5 3.1 0.9 4.7 1.2v262.5L539 499c-11.3-3.5-23.2 2.9-26.6 14.3-3.5 11.4 2.9 23.5 14.1 26.9l144.8 45.1v270.6l-277.1-78.7V655.4c0-11.9-9.5-21.6-21.3-21.6s-21.3 9.7-21.3 21.6v122.4l-213.1 33.8V202.7c0-17.9-14.3-32.3-32-32.3-17.7 0-32 14.5-32 32.3v646.7c0 9.4 4.1 18.4 11.2 24.6 7.1 6.1 16.5 8.9 25.7 7.4l264.8-42 297 84.4c2.8 0.8 5.7 1.2 8.6 1.2 1.9 0 3.8-0.2 5.7-0.5l234.4-43.1c15.2-2.8 26.2-16.2 26.2-31.8V202.7c0-9.6-4.2-18.6-11.4-24.8z m-52.5 644.5l-170.5 31.4V587.5l170.5-30v264.9z m0-308.7l-170.5 30V272l170.5-30.7V513.8zM216.9 370.9c10.4 20.9 106.5 157.9 135.7 199.3 6 8.5 15.7 13.6 26 13.6h0.1c10.4-0 20.1-5.1 26.1-13.7 29.1-41.8 124.8-179.7 134.6-198.9 12.9-25.1 20-54.4 20-82.4 0-101-81.3-183.2-181.2-183.2-99.9 0-181.2 82.2-181.2 183.2 0 28 6.7 55.5 19.8 82v0z m161.3-200.6c64.6 0 117.2 53.2 117.2 118.6 0 17.5-4.7 36.7-12.8 52.5-5.6 10.4-53.9 81.4-104.2 154-46.1-66-98.4-142-104.5-153.7-8.6-17.3-13-35.1-13-52.9 0-65.4 52.6-118.6 117.2-118.6z m-26.6 165.3a52.8 52.8 0 0 0 53.3 0c16.5-9.6 26.6-27.4 26.6-46.7 0-19.3-10.2-37-26.6-46.7a52.8 52.8 0 0 0-53.3 0c-16.5 9.6-26.6 27.4-26.6 46.7-0 19.3 10.2 37 26.6 46.7z" fill="#6569" p-id="1142"></path></svg>