<svg xmlns="http://www.w3.org/2000/svg" viewBox="0 0 1024 1024" version="1.1"><path d="M461.7 716.2c0 20-17.1 36.1-38.2 36.1s-38.2-16.2-38.2-36.1V422.3c0-20 17.1-36.1 38.2-36.1s38.2 16.2 38.2 36.1v293.9zM638.7 716.2c0 20-17.1 36.1-38.2 36.1s-38.2-16.2-38.2-36.1V422.3c0-20 17.1-36.1 38.2-36.1s38.2 16.2 38.2 36.1v293.9z" fill="#6569" p-id="580"></path><path d="M871.7 196.7H694.7v-89.3c0-1.2-0.1-2.4-0.2-3.5 0.1-1 0.2-2 0.2-3.1 0-18.1-16.1-32.8-36-32.8H365.4c-19.9 0-36 14.7-36 32.8 0 1 0.1 2 0.2 3.1a38.9 38.9 0 0 0-0.2 3.5v89.3H152.3c-30.6 0-55.3 22.1-55.3 49.3 0 27.2 24.8 49.3 55.3 49.3h24.5L224.5 862.4c0 43.8 35.5 79.4 79.2 79.4h421c43.7 0 79.2-35.5 79.2-79.4l43.4-567.2h24.5c30.6 0 55.3-22.1 55.3-49.3-0-27.2-24.8-49.3-55.3-49.3z m-476.9-63.1h234.3v63.1H394.9v-63.1zM725.8 866.5H306.9l-51.1-571.3h512.4L725.8 866.5z" fill="#6569" p-id="581"></path></svg>