<svg xmlns="http://www.w3.org/2000/svg" viewBox="0 0 1024 1024" version="1.1"><path d="M624.6 788.5h-466.4V613.7c21.9-51 54.9-97.5 102.3-124.2 112.2-68.3 170.7 107.3 263.4 131.7 107.3 29.3 185.3-48.8 219.5-136.6 24.4-68.3 24.4-263.4 126.8-268.2 39 0 39-58.5 0-53.6-112.2 9.8-136.6 121.9-156.1 209.7-9.8 58.5-19.5 126.8-63.4 170.7-53.6 58.5-136.6 24.4-180.5-24.4-63.4-82.9-165.8-136.6-263.4-58.5-19 16.2-34.9 34-48.7 52.4V129.4c0-22.9-18.6-41.5-41.5-41.5s-41.5 18.6-41.5 41.5v700.6c0 22.9 18.6 41.5 41.5 41.5 0.3 0 0.6-0 0.9-0 0.3 0 0.6 0 1 0h561c-25.1-22-44.4-50.5-55.1-82.9z" fill="#6569" p-id="736"></path><path d="M676 813.5c14.3-6.8 24.5-12.4 30.5-16.9 6-4.5 13.1-11.4 21.3-20.6l-26-0.2-25.3 1v-38.4l25.3 0.8h32.7l0.3-77.2h-16.8l-26.2 0.8v-37l26.2 1h16.8l-1.3-22.4h45.6l-0.6 22.4h71l-1-21.9h45.6l-1.1 21.9h22.1l23.7-1v37l-23.7-0.8h-21.9v77.2h34.6l26.7-0.8v38.4l-26.7-0.8-28-0.2c6.9 7.3 13.7 13.8 20.4 19.4 6.7 5.6 19.4 12 38 19.1-7.6 5.9-13.1 10.6-16.4 14-3.3 3.4-8.1 9.7-14.3 18.9l19.2-0.8v41.9l-40.3-1.3-183 0.3-38.3 1v-41.9l17.3 1c-5.9-8.6-9.9-14.2-12-16.8-2.1-2.6-6.9-8.3-14.5-17z m31.4 33.7h86.7v-12.5h-34.5l-24.3 1 0.2-7c-7.1 5.6-16.5 11.8-28.1 18.6z m86.9-48.6v-17.9l42.2-0.3v18.3l26.5-0.2c-5.4-6.4-8.5-10.4-9.4-12.1l-6.2-10.5h-65.6c-3.8 6.1-6.1 9.6-7 10.5l-11 12.2h30.3z m-16.2-59.2l72.3-0.2v-5.6H778.3l-0.2 5.7z m0.2-69.4l71.2-0.2v-7.8H778.3v7.9z m0 34.9l71.2 0.2v-6.7H778.3v6.5z m145.5 142.3c-8.4-4.2-19.2-10.4-32.4-18.4l-0.2 6.8-26-0.8h-28.6v12.7l87.2-0.3z" fill="#6569" p-id="737"></path></svg>