<svg xmlns="http://www.w3.org/2000/svg" viewBox="0 0 1024 1024" version="1.1"><path d="M614.5 910.6c-1.6 3.4-5.1 6.3-10.4 8l-70 22.8c-12.6 4.1-19.3-2.5-15.2-14.9l23.4-68.5c1.8-5.2 4.7-8.6 8.3-10.2l220.8-215.9 64 62.6L614.5 910.6z m-163.8-28.2l320.6-313.4V291.9H611.3c-35.3-0-64-28-64-62.6V68.9H223.3c-50.9 0-92.1 40.3-92.1 90v653.1c0 18.7 7.6 36.6 21.1 49.8 13.5 13.2 31.8 20.6 50.9 20.6h247.4z m165.4-801.7l143.2 140c20.3 19.9 13.5 36-15.2 36h-112.8c-28.7-0-52-22.7-52-50.8V95.6c0-28.1 16.5-34.7 36.8-14.9l0-0z m-356.8 332.4c0-17.3 14.3-31.3 32-31.3h320c17.7 0 32 14 32 31.3-0 17.3-14.3 31.3-32 31.3H291.3c-17.7-0-32-14-32-31.3z m0 125.1c0-17.3 14.3-31.3 32-31.3h320c17.7 0 32 14 32 31.3-0 17.3-14.3 31.3-32 31.3H291.3c-17.7-0-32-14-32-31.3z m526.7 80.8l37-36.2c9.4-9.2 24.5-9.2 33.9-0l31.9 31.2c9.3 9.2 9.3 24-0 33.2l-37 36.2-65.8-64.4-0-0z m0 0" fill="#6569" p-id="1030"></path></svg>