<svg xmlns="http://www.w3.org/2000/svg" viewBox="0 0 1024 1024" version="1.1"><path d="M417.5 512.9c15.4-8.9 25-25.3 25-43.1 0-17.8-9.5-34.2-25-43.1a50 50 0 0 0-49.9 0c-15.4 8.9-24.9 25.3-24.9 43.1 0 17.8 9.5 34.2 24.9 43.1a50 50 0 0 0 49.9 0zM303.2 795.6V380.8h565.2v167.1a216.4 216.4 0 0 1 61.4 39.8V350.2c0-16.9-13.8-30.6-30.7-30.6h-99.5l-75.5-206.9c-5.8-15.9-23.4-24.1-39.4-18.3L95.9 308c-15.9 5.8-24.2 23.3-18.4 39.2l163.4 447.3c0.3 0.8 0.6 1.5 0.9 2.3v29.4c0 16.9 13.7 30.6 30.7 30.6h325a214 214 0 0 1-25-61.2H303.2zM241.8 350.2v268l-96.1-263.1 531.1-192.7 57.4 157.2H272.5c-17 0-30.7 13.7-30.7 30.6zM783.1 580.2c-91.9 0-166.4 74.2-166.4 165.8C616.7 837.5 691.2 911.8 783.1 911.8c91.9 0 166.4-74.2 166.4-165.8 0-91.6-74.5-165.8-166.4-165.8z m97.4 175.1l-81.1 81.8v-0.1a11.6 11.6 0 0 1-8.2 3.4c-6.4 0-11.6-5.2-11.6-11.6v-33.3h-84c-0.9 0.2-1.9 0.4-2.8 0.4-6.4 0-11.6-5.2-11.6-11.6v-76.1c0-6.4 5.2-11.6 11.6-11.6h86.9v-33.5c0-6.4 5.2-11.6 11.6-11.6 3.5 0 6.6 1.5 8.7 4l81.1 81.7a11.5 11.5 0 0 1 4.1 8.8c0 3.8-1.8 7.1-4.6 9.2zM765.2 531.1l-36.7-36.6-162.1 161-100.9-60.9-123.3 100.5v61h224.9c-0.2-3.4-0.3-6.8-0.3-10.2 0-113 87.3-205.8 198.4-214.8z" fill="#6569" p-id="1097"></path></svg>