<svg xmlns="http://www.w3.org/2000/svg" viewBox="0 0 1024 1024" version="1.1"><path d="M896.4 416.2c0-26.7-21.6-48.3-48.3-48.3H630.8c-26.7 0-48.3 21.6-48.3 48.3v83H384.7l-2.7-5.4c-41.3-87.4-36-204.1 150.6-199.9v108.9l172.2-164.8L532.6 73.3v106.6c-228.6-5.7-263.7 183.5-157.4 314l4.7 5.3h-88.5c-26.7 0-48.3 21.6-48.3 48.3v66.8h-98.4c-26.7 0-40.4 21.6-30.7 48.3l79.1 217.3c9.7 26.7 39.2 48.3 65.9 48.3h603.7c23.8 0 37.3-17.2 33.1-39.8 0.5-2.8 0.8-5.6 0.8-8.5v-463.8z m-60.4 306.5l-21.8-60c-9.7-26.7-39.2-48.3-65.9-48.3H303.4v-30.6c0-13.3 10.8-24.1 24.1-24.1h315.3v-107.2c0-13.3 10.8-24.1 24.1-24.1h144.9c13.3 0 24.1 10.8 24.1 24.1v270.2z" fill="#6569" p-id="1086"></path></svg>