<svg xmlns="http://www.w3.org/2000/svg" viewBox="0 0 1024 1024" version="1.1"><path d="M532.6 745.5h-3.4c-6.8 0-12.9 5.5-12.9 13v17.7c0 7.5 6.1 13.6 13.6 13h119.1c6.8 0 12.9-5.5 12.9-13v-20.5c0-6.8-5.4-13-12.9-13h-21.1c-4.8 0-8.2-2-10.9-5.5l-98-130.3c-3.4-4.8-3.4-11.6 0-16.4l93.2-123.5c2.7-3.4 6.8-5.5 10.9-5.5h19.7c6.8 0 12.9-5.5 12.9-13v-20.5c0-6.8-5.4-13-12.9-13h-118.4c-6.8 0-12.9 5.5-12.9 13v17.7c0 6.8 5.4 13 12.9 13h0.7c10.9 0 17 12.3 10.9 21.1l-45.6 63.4c-5.4 7.5-16.3 7.5-21.8 0l-46.3-63.4c-6.1-8.9 0-21.1 10.9-21.1 6.8 0 12.9-5.5 12.9-13V428.3c0-6.8-5.4-13-12.9-13h-118.4c-6.8 0-12.9 5.5-12.9 13v20.5c0 6.8 5.4 13 12.9 13h21.8c4.8 0 8.2 2 10.9 5.5l91.9 122.1c3.4 4.8 3.4 11.6 0 16.4l-99.4 131c-2 3.4-6.1 5.5-10.2 5.5h-22.5c-6.8 0-12.9 5.5-12.9 13v20.5c0 6.8 5.4 13 12.9 13h119.8c6.8 0 12.9-5.5 12.9-13v-17.7c0-6.8-5.4-13-12.9-13-10.9 0-17-12.3-10.9-21.1l53.1-71.6c4.8-7.5 15.7-7.5 21.1 0l53.1 72.3c6.1 8.9 0 21.1-10.9 21.1z m408.7 43.4L783.4 630.6v108.5l-91.2 0.7v99.6l90.5-0.7V947.8l158.6-158.9zM184.7 873.5V147.7c0-6.1 4.8-10.9 10.9-10.9h351.2c6.1 0 10.9 4.8 10.9 10.9V340c0 25.2 20.4 46.4 46.3 46.4h191.9c6.1 0 10.9 4.8 10.9 10.9v167.8l61.9 62.8V314.1c0-13.6-5.4-27.3-15-36.8L665.8 89c-10.2-9.6-23.1-15-37.4-15H174.5c-28.6 0-52.4 23.2-52.4 52.5V895.3c0 28.7 23.1 52.5 52.4 52.5h549.2v-63.4h-528.1c-6.1 0-10.9-4.8-10.9-10.9z m434.9-712.8c0-10.9 12.9-16.4 21.1-8.9l151.1 150.8c7.5 7.5 2 21.1-8.9 21.1H631.8c-6.8 0-12.2-5.5-12.2-12.3V160.6z" fill="#6569" p-id="1108"></path></svg>