<svg xmlns="http://www.w3.org/2000/svg" viewBox="0 0 1024 1024" version="1.1"><path d="M809.7 253a38.7 38.7 0 0 0-28.1-4.8 37 37 0 0 0-23.3 15.6 35.1 35.1 0 0 0-5.2 27.1 35.2 35.2 0 0 0 16 22.5c4.1 2.5 100 65.4 100 221.6 0 156.6-92 219.4-95.7 221.8a35 35 0 0 0-10.4 49.9 37.4 37.4 0 0 0 23.7 15.2c9.8 1.9 19.9 0 28.2-5.3 5.2-3.3 129-84.8 129-281.7 0-197.1-128.8-278.6-134.3-282" fill="#6569" p-id="545"></path><path d="M696.6 356.5a39.2 39.2 0 0 0-29.1-1.3 37.5 37.5 0 0 0-21.5 19 37.5 37.5 0 0 0-1.6 28.7 37.5 37.5 0 0 0 19.2 21.5c2.4 1.2 60 30.5 60 113.8 0 89.1-53.8 118.6-55.5 119.5a37.2 37.2 0 0 0-21.3 36.3 37.2 37.2 0 0 0 26.2 32.9 39.7 39.7 0 0 0 29.4-1.9c4-2 98-49.6 98-186.8 0-132.5-99.4-179.8-103.6-181.8v0.1zM521.9 810.3l-80.1-70.3-131.2-115.2a41 41 0 0 0-27-10.1l-122.3 0.1-0.4-248.4h161a41.2 41.2 0 0 0 34.3-9.4l85.6-75.1 80.1-70.3v598.7z m47.7-702.7c-9.8-4.2-35.7-11.2-64.2 13.8l-63.6 55.9L314.5 289H160.9c-44.1 0.2-79.8 34.7-79.8 77.3v248.5c0 42.6 35.8 77.3 79.8 77.3h107.2l173.7 152.4 63.7 55.9c16.1 14.1 31.3 18 43.3 18 9.3 0 16.7-2.3 20.9-4.2 9.8-4.2 32.4-17.8 32.4-54.9v-696.9c0-25.6-12.2-46-32.6-54.8h0.1z m0 0" fill="#6569" p-id="546"></path></svg>