<svg xmlns="http://www.w3.org/2000/svg" viewBox="0 0 1024 1024" version="1.1"><path d="M753.2 556.7c20.3-45.9 31.9-98.2 31.9-153.8 0-181-122.3-327.7-273.1-327.7s-273.1 146.7-273.1 327.7c0 55.6 11.5 107.9 31.9 153.8-52.6 39.9-86.5 103-86.5 174.1 0 120.6 97.8 218.5 218.5 218.5h218.5c120.6 0 218.5-97.8 218.5-218.5 0-71.1-33.9-134.2-86.5-174.1zM512 151.7c108.6 0 196.6 112.5 196.6 251.2s-88 251.2-196.6 251.2-196.6-112.5-196.6-251.2 88-251.2 196.6-251.2z m83.7 721.1H428.3c-92.5 0-167.5-63.6-167.5-142 0-40.7 20.2-77.3 52.4-103.2 49.8 63.4 120.4 103 198.8 103 78.4 0 149-39.6 198.8-103.1l-0 0c32.3 25.9 52.4 62.5 52.4 103.2 0 78.4-75 142-167.5 142z" fill="#6569" p-id="534"></path></svg>