<svg xmlns="http://www.w3.org/2000/svg" viewBox="0 0 1024 1024" version="1.1"><path d="M885.9 537.5c0.2-0.2 0.4-0.5 0.6-0.7 0.2-0.3 0.5-0.6 0.7-0.9 0.1-0.2 0.3-0.4 0.4-0.6 0.2-0.3 0.5-0.7 0.7-1 0.1-0.2 0.2-0.3 0.4-0.5 0.2-0.3 0.5-0.7 0.7-1 0.1-0.2 0.2-0.4 0.3-0.5 0.2-0.3 0.4-0.7 0.6-1 0.1-0.2 0.2-0.4 0.3-0.6 0.2-0.3 0.3-0.7 0.5-1 0.1-0.2 0.2-0.5 0.3-0.7 0.1-0.3 0.3-0.6 0.4-0.9 0.1-0.3 0.2-0.5 0.4-0.8 0.1-0.3 0.2-0.5 0.3-0.8 0.1-0.3 0.2-0.6 0.4-1 0.1-0.2 0.2-0.5 0.2-0.7 0.1-0.4 0.2-0.7 0.3-1.1 0.1-0.2 0.1-0.4 0.2-0.6 0.1-0.4 0.2-0.8 0.3-1.2 0-0.2 0.1-0.4 0.1-0.6 0.1-0.4 0.2-0.8 0.3-1.2 0-0.2 0.1-0.4 0.1-0.6 0.1-0.4 0.1-0.8 0.2-1.2 0-0.2 0.1-0.5 0.1-0.7 0-0.4 0.1-0.7 0.1-1.1 0-0.3 0-0.6 0.1-1 0-0.3 0.1-0.6 0.1-0.9a38.2 38.2 0 0 0 0-3.8c-0-0.3-0-0.6-0.1-0.9-0-0.3-0-0.6-0.1-1-0-0.4-0.1-0.7-0.1-1.1-0-0.2-0.1-0.5-0.1-0.7a40 40 0 0 0-0.2-1.2c-0-0.2-0.1-0.4-0.1-0.6a37.9 37.9 0 0 0-0.3-1.2c-0-0.2-0.1-0.4-0.1-0.6a37.4 37.4 0 0 0-0.3-1.2c-0.1-0.2-0.1-0.4-0.2-0.6a39.2 39.2 0 0 0-0.3-1.1c-0.1-0.2-0.2-0.5-0.2-0.7-0.1-0.3-0.2-0.6-0.4-1-0.1-0.3-0.2-0.6-0.3-0.8a36.4 36.4 0 0 0-0.4-0.8c-0.1-0.3-0.3-0.6-0.4-0.9-0.1-0.2-0.2-0.5-0.3-0.7-0.2-0.3-0.3-0.7-0.5-1-0.1-0.2-0.2-0.4-0.3-0.6-0.2-0.3-0.4-0.7-0.6-1-0.1-0.2-0.2-0.4-0.3-0.5-0.2-0.4-0.4-0.7-0.7-1-0.1-0.2-0.2-0.3-0.4-0.5a36.8 36.8 0 0 0-0.7-1c-0.1-0.2-0.3-0.4-0.4-0.6-0.2-0.3-0.5-0.6-0.7-0.9-0.2-0.3-0.4-0.5-0.6-0.7-0.2-0.2-0.4-0.5-0.6-0.7a38.3 38.3 0 0 0-1.3-1.3l-0-0-177.6-177.6c-14.9-14.9-39.1-14.9-54.1 0s-14.9 39.1 0 54.1L764.7 474.3H431c-21.1 0-38.2 17.1-38.2 38.2s17.1 38.2 38.2 38.2H764.7L652.3 663.1c-14.9 14.9-14.9 39.1 0 54.1s39.1 14.9 54.1 0l177.6-177.6a38.7 38.7 0 0 0 1.3-1.4c0.2-0.2 0.4-0.4 0.6-0.7z" fill="#6569" p-id="557"></path><path d="M435 864.7h-243.6v-703.4h243.6c23.5 0 42.6-19.1 42.6-42.6s-19.1-42.6-42.6-42.6h-286.2c-23.5 0-42.6 19.1-42.6 42.6v788.6c0 23.5 19.1 42.6 42.6 42.6h286.2c23.5 0 42.6-19.1 42.6-42.6s-19.1-42.6-42.6-42.6z" fill="#6569" p-id="558"></path></svg>