<svg xmlns="http://www.w3.org/2000/svg" viewBox="0 0 1024 1024" version="1.1"><path d="M798.4 512.4c-27.6 0-50-22.4-50-50 0-27.6 22.4-50 50-50 27.6 0 50 22.4 50 50 0 27.6-22.4 50-50 50z m-51.1 336.3c0 18.3-14.8 33.2-33.2 33.2H309.7c-18.3 0-33.2-14.8-33.2-33.2v-268.5h470.8v268.5z m-471-674c0-18.3 14.8-33.2 33.2-33.2H637.9S630.1 208.3 649.6 232.7s96.2 17.7 96.2 17.7v91.9h-469.5v-167.5z m594.8 167.4h-55.9V214.1s0.6-3.8-5.8-16c-5.6-10.7-67.9-83.2-109.3-115-4.7-3.6-5.4-5.7-14.7-7.5h-398.5c-42.9 0-77.7 34.8-77.7 77.7V342.1h-56.5c-42.9 0-77.7 34.8-77.7 77.7v249.7c0 42.9 34.8 77.7 77.7 77.7h56.5v124.4c0 42.9 34.8 77.7 77.7 77.7h450.6c42.9 0 77.7-34.8 77.7-77.7V747.4h55.9c42.9 0 77.7-34.8 77.7-77.7V419.9c0-42.9-34.8-77.7-77.7-77.7zM343.7 747.4h235.8v67.3H343.7v-67.3z m0-100.4h336.2v67.3H343.7v-67.3z m0 0" fill="#6569" p-id="1063"></path></svg>