<svg xmlns="http://www.w3.org/2000/svg" viewBox="0 0 1024 1024" version="1.1"><path d="M524.2 73.5c1.3 0 2.6 0.1 4 0.2 26.2 2.1 45.7 25.1 43.5 51.1l-25.2 302.3c-1.6 40.5 4.7 53.9 13.2 53.9 11.2 0 26.3-23.7 31.9-39.6 1.1-3 2-5.1 2.8-6.7l75.3-244.5c6.3-20.4 25.2-33.5 45.5-33.5 4.6 0 9.3 0.7 14 2.1 25.1 7.7 39.2 34.2 31.5 59.3L684.7 464.8c-38.2 124.2-17 158.9 10.4 158.9 10.8 0 22.6-5.4 32.1-12.8l90.4-70.8c9-7.5 19.9-11.2 30.7-11.2 13.5 0 27 5.7 36.4 16.9 16.9 20 14.5 49.9-5.6 66.8l-158.1 133.2c-46.3 83.2-99.2 112-99.2 112l-0.7 89.5H345.7l-1.2-85.8C289.7 761.1 273.1 637.9 273.1 637.9L138.6 354.5c-14-22.2-7.2-51.5 15-65.4 7.8-5 16.6-7.3 25.2-7.3 15.8 0 31.3 7.9 40.4 22.2l75 161.7c0.1 0 0.1 0 0.1 0.1 7.2 11.4 12.7 15.7 16.8 15.7 12.2 0 13.3-36.3 13.3-37.3l-44.7-250.7c-4.6-25.8 12.7-50.4 38.5-55a48.6 48.6 0 0 1 8.4-0.7c22.6 0 42.7 16.2 46.8 39.1l45.7 255.9s7.6 17.6 16.4 17.6c5.2 0 10.8-6.1 15.6-25.3l25.7-308.3c2.1-24.8 22.9-43.5 47.4-43.5" fill="#6569" p-id="886"></path></svg>