<svg xmlns="http://www.w3.org/2000/svg" viewBox="0 0 1024 1024" version="1.1"><path d="M910.4 482.5H863.6v-52c0-19.1-15.6-34.7-34.7-34.7H562c-5.2-15.6-17.3-29.5-32.9-34.7v-43.3h69.3c19.1 0 34.7-15.6 34.7-34.7v-173.4c0-19.1-15.6-34.7-34.7-34.7H425c-19.1 0-34.7 15.6-34.7 34.7v173.4c0 19.1 15.6 34.7 34.7 34.7h69.4v43.3c-15.6 5.2-27.7 19.1-32.9 34.7H194.4c-19.1-1.7-34.7 13.9-36.4 32.9v53.7h-45.1c-19.1 0-34.7 15.6-34.7 34.7V621.2c0 19.1 15.6 34.7 34.7 34.7h104c19.1 0 34.7-15.6 34.7-34.7v-104c0-19.1-15.6-34.7-34.7-34.7H194.4v-52h268.7c6.9 13.9 17.3 22.5 31.2 27.7v24.3h-34.7c-19.1 0-34.7 15.6-34.7 34.7v104c0 19.1 15.6 34.7 34.7 34.7h104c19.1 0 34.7-15.6 34.7-34.7v-104c0-19.1-15.6-34.7-34.7-34.7h-34.7v-24.3c13.9-5.2 24.3-13.9 31.2-27.7h268.7v52h-22.5c-19.1 0-34.7 15.6-34.7 34.7V621.2c0 19.1 15.6 34.7 34.7 34.7h34.7v39.9H529c-19.1 0-34.7 15.6-34.7 34.7v45.1h-34.7c-19.1 0-34.7 15.6-34.7 34.7v104c0 19.1 15.6 34.7 34.7 34.7h104c19.1 0 34.7-15.6 34.7-34.7v-104c0-19.1-15.6-34.7-34.7-34.7h-34.7v-45.1h312.1c19.1 1.7 34.7-13.9 36.4-32.9v-41.6h34.7c19.1 0 34.7-15.6 34.7-34.7v-104c0-19.1-15.6-34.7-36.4-34.7z m-398.8-55.5c-10.4 0-17.3-6.9-17.3-17.3 0-10.4 6.9-17.3 17.3-17.3 10.4 0 17.3 6.9 17.3 17.3 0 10.4-6.9 17.3-17.3 17.3z" fill="#6569" p-id="1210"></path></svg>