<svg xmlns="http://www.w3.org/2000/svg" viewBox="0 0 1024 1024" version="1.1"><path d="M908.9 762.9H528.1c-22 0-40 19.9-40 44.3 0 24.4 18 44.2 40 44.2h380.8c22 0 40-19.9 40-44.2 0-24.4-18-44.3-40-44.3z m0-319.4H655c-22 0-40 19.7-40 44.2 0 24.4 18 44.2 40 44.2H908.9c22 0 40-19.9 40-44.2-0-24.5-18-44.2-40-44.2zM515.6 222.3h393.3c22 0 40-19.7 40-44.2 0-24.5-18-44.3-40-44.3H515.6c-22 0-40 19.7-40 44.3 0 24.5 18 44.2 40 44.2z m27.8 211.2c15.8-17.3 15.8-45.5 0.3-62.9L344.4 148c-7.8-8.8-18.3-13.3-28.6-13.3-10.2 0-20.5 4.3-28.3 12.8l-0.2 0.2s-0.2 0-0.2 0.2l-200.4 220.7c-15.6 17.5-15.6 45.6 0.2 63.1h0c15.6 17.5 41.7 17.5 57.5 0.2l130.7-143.8v529.4c0 24.5 17.8 44.4 40 44.4 22.2 0 40-19.9 40-44.4V285.5L486.8 433.2c15.6 17.5 41 17.6 56.6 0.3z" fill="#6569" p-id="875"></path></svg>