<svg xmlns="http://www.w3.org/2000/svg" viewBox="0 0 1024 1024" version="1.1"><path d="M843.8 785.5l-114.4-114.7c41.5-54 66.4-121.5 66.4-194.7 0-176.6-143.4-320.3-319.6-320.3S156.6 299.6 156.6 476.3c0 176.6 143.3 320.3 319.6 320.3 73.9 0 141.9-25.5 196.1-68l114.1 114.4c7.9 7.9 18.3 11.9 28.7 11.9s20.8-3.9 28.7-11.9c15.8-15.9 15.8-41.6 0-57.5zM237.7 476.3c0-131.8 107-239.1 238.5-239.1S714.7 344.5 714.7 476.3s-107 239.1-238.5 239.1-238.5-107.3-238.5-239.1z m0 0" fill="#6569" p-id="692"></path></svg>