<svg xmlns="http://www.w3.org/2000/svg" viewBox="0 0 1024 1024" version="1.1"><path d="M455.7 114.5c-10.2 0-19.6 4.1-27.6 10.9-1.1 0.9-2.1 2-3.2 3.1L285.2 265.1 122.5 423.8l-3.9 3.8c-12.1 12.5-20 31.9-20 53.9 0 22.1 7.9 41.5 20.1 54l3.8 3.6 162.7 158.9L419.2 828.8l12.5 12.2c7.2 5.2 15.3 8.4 24 8.4 28.3 0 51.2-30.6 51.2-68.4V182.9c0-37.7-22.9-68.4-51.2-68.4z" fill="#6569" p-id="783"></path><path d="M864 114.5c-10.2 0-19.6 4.1-27.6 10.9-1.1 0.9-2.1 2-3.2 3.1L693.4 265.1 530.7 423.8l-3.9 3.8c-12.1 12.5-20 31.9-20 53.9 0 22.1 7.9 41.5 20.1 54l3.8 3.6 162.7 158.9L827.5 828.8l12.5 12.2c7.2 5.2 15.3 8.4 24 8.4 28.3 0 51.2-30.6 51.2-68.4V182.9c0-37.7-22.9-68.4-51.2-68.4z" fill="#6569" p-id="784"></path></svg>