<svg xmlns="http://www.w3.org/2000/svg" viewBox="0 0 1024 1024" version="1.1"><path d="M394 497c10.5 10.5 24.8 16.7 40.6 16.7 15.8 0 29.8-6.2 40.6-16.7 10.5-10 16.7-24.6 16.7-40.6 0-15.3-6.7-29.8-16.7-40.6h-0.5c-10.3-10-24.3-16.2-40.1-16.2a58.7 58.7 0 0 0-40.6 16.2c-10.3 10.7-16.7 25.3-16.7 40.6 0 15.8 6.4 30.1 16.7 40.6z m28.6-52.5c2.9-2.9 6.9-4.8 11.9-4.8 4.8 0 9.1 1.9 11.9 4.8 2.9 3.1 4.8 7.6 4.8 11.9 0 4.8-1.9 9.1-4.8 12.4-2.9 2.6-7.2 4.3-11.9 4.3-5 0-9.3-1.7-11.9-4.3-3.1-3.3-4.8-7.6-4.8-12.4 0-4.3 1.7-8.8 4.8-11.9z m-28.6 204.9c10.5 10.3 24.8 16.7 40.6 16.7 15.8 0 29.8-6.4 40.1-16.7l0.5-0.2c10-10.5 16.7-24.8 16.7-40.3 0-16-6.7-30.1-16.7-40.6h-0.5c-10.3-10.2-24.3-16.7-40.1-16.7-15.7 0-30 6.4-40.6 16.7-10.3 10.5-16.7 24.6-16.7 40.6 0 15.5 6.4 29.8 16.7 40.3v0.2z m28.6-52.5v-0.2c2.9-2.9 6.9-4.8 11.9-4.8 4.8 0 9.1 1.9 11.9 4.8v0.2c2.9 3.1 4.8 7.2 4.8 11.9 0 4.5-1.9 8.8-4.8 11.9-2.9 3.1-7.2 5-11.9 5-5 0-9.1-1.9-11.9-5-3.1-3.1-4.8-7.4-4.8-11.9 0-4.8 1.7-8.8 4.8-11.9z m281.7-99.9c10.3 10.5 24.6 16.7 40.3 16.7 16.2 0 30-6.2 40.3-16.7 10.8-10 17-24.6 17-40.6 0-15.3-6.2-29.8-17-40.6-10.3-10-24.6-16.2-40.3-16.2-15.5 0-30.1 6.2-40.3 16.2-10.3 10.7-16.9 25.3-16.9 40.6 0 15.8 6.7 30.1 16.7 40.6h0.2z m28.4-52.5c2.9-2.9 7.1-4.8 11.9-4.8 4.8 0 9.1 1.9 11.9 4.8 3.3 3.1 4.8 7.6 4.8 11.9 0 4.8-1.4 9.1-4.8 12.4-2.9 2.6-7.2 4.3-11.9 4.3-4.8 0-9.1-1.7-11.9-4.3-2.9-3.3-5-7.6-5-12.4 0-4.3 2.2-8.8 5-11.9z m-183.7 52.5c10.5 10.5 24.8 16.7 40.5 16.7 15.8 0 30.1-6.2 40.6-16.7 10-10 16.7-24.6 16.7-40.6 0-15.3-6.7-29.8-16.7-40.6h-0.2c-10.5-10-25.1-16.2-40.3-16.2-15.7 0-30 6.2-40.5 16.2-10.3 10.7-16.7 25.3-16.7 40.6 0 15.8 6.4 30.1 16.7 40.6z m28.6-52.5c2.9-2.9 7.2-4.8 11.9-4.8s9.1 1.9 11.9 4.8c3.4 3.1 5.3 7.6 5.3 11.9 0 4.8-1.9 9.1-5.3 12.4-2.9 2.6-7.2 4.3-11.9 4.3s-9.1-1.7-11.9-4.3c-3.4-3.3-5-7.6-5-12.4 0-4.3 1.7-8.8 5-11.9zM394 801.4c10.5 10.5 24.8 17.2 40.6 17.2 15.8 0 29.8-6.7 40.1-17.2h0.5c10-10.2 16.7-24.8 16.7-40.1 0-16-6.7-30.5-16.7-40.5h-0.5c-10.3-10.5-24.3-16.7-40.1-16.7-15.7 0-30 6.2-40.6 16.7-10.3 10-16.7 24.6-16.7 40.5 0 15.3 6.4 29.8 16.7 40.1z m28.6-52c2.9-3.3 6.9-5.2 11.9-5.2 4.8 0 9.1 1.9 11.9 5.2 2.9 2.6 4.8 6.9 4.8 11.9 0 4.8-1.9 8.6-4.8 11.9-2.9 2.9-7.2 4.8-11.9 4.8-5 0-9.1-1.9-11.9-4.8-3.1-3.4-4.8-7.2-4.8-11.9 0-5 1.7-9.3 4.8-11.9zM915.5 72.4H108.7c-18.6 0-33.6 15-33.6 33.6v806.5c0 18.6 15 33.6 33.6 33.6H915.5c18.4 0 33.4-15 33.4-33.6V106c0-18.6-15-33.6-33.4-33.6z m-33.6 806.5H142.6V335.7h739.3v543.2z m0-583.7H142.6V139.6h65.9v50.1c0 18.6 14.8 33.4 33.6 33.4 18.8 0 33.6-14.8 33.6-33.4v-50.1h112.6v50.1c0 18.6 15.3 33.4 33.9 33.4 18.6 0 33.4-14.8 33.4-33.4v-50.1h112.8v50.1c0 18.6 15 33.4 33.6 33.4 18.4 0 33.4-14.8 33.4-33.4v-50.1h113.1v50.1c0 18.6 14.8 33.4 33.4 33.4 18.6 0 33.9-14.8 33.9-33.4v-50.1h66.1v155.5zM549.1 801.4c10.5 10.5 24.8 17.2 40.5 17.2 15.3 0 29.8-6.7 40.3-17.2h0.2c10-10.2 16.7-24.8 16.7-40.1 0-16-6.7-30.5-16.7-40.5h-0.2c-10.5-10.5-25.1-16.7-40.3-16.7-15.7 0-30 6.2-40.5 16.7-10.3 10-16.7 24.6-16.7 40.5 0 15.3 6.4 29.8 16.7 40.1z m28.6-52c2.9-3.3 7.2-5.2 11.9-5.2s9.1 1.9 11.9 5.2c3.4 2.6 5.3 6.9 5.3 11.9 0 4.8-1.9 8.6-5.3 11.9-2.9 2.9-7.2 4.8-11.9 4.8s-9.1-1.9-11.9-4.8c-3.4-3.4-5-7.2-5-11.9 0-5 1.7-9.3 5-11.9z m-338.7-100c10.5 10.3 24.6 16.7 40.5 16.7 15.7 0 29.8-6.4 40.1-16.7l0.5-0.2c10.5-10.5 16.7-24.8 16.7-40.3 0-16-6.2-30.1-16.7-40.6h-0.5c-10.2-10.2-24.3-16.7-40.1-16.7-16 0-30.1 6.4-40.5 16.7-10 10.5-16.7 24.6-16.7 40.6 0 15.5 6.7 29.8 16.7 40.3v0.2z m28.6-52.5v-0.2c2.9-2.9 7.2-4.8 11.9-4.8s8.8 1.9 11.9 4.8v0.2c2.9 3.1 4.8 7.2 4.8 11.9 0 4.5-1.9 8.8-4.8 11.9-3.1 3.1-7.2 5-11.9 5s-9.1-1.9-11.9-5c-3.1-3.1-5.2-7.4-5.2-11.9 0-4.8 2.1-8.8 5.2-11.9z m-28.6 204.4c10.5 10.5 24.6 17.2 40.5 17.2 15.7 0 29.8-6.7 40.1-17.2h0.5c10.5-10.2 16.7-24.8 16.7-40.1 0-16-6.2-30.5-16.7-40.5h-0.5c-10.2-10.5-24.3-16.7-40.1-16.7-16 0-30.1 6.2-40.5 16.7-10 10-16.7 24.6-16.7 40.5 0 15.3 6.7 29.8 16.7 40.1z m28.6-52c2.9-3.3 7.2-5.2 11.9-5.2s8.8 1.9 11.9 5.2c2.9 2.6 4.8 6.9 4.8 11.9 0 4.8-1.9 8.6-4.8 11.9-3.1 2.9-7.2 4.8-11.9 4.8s-9.1-1.9-11.9-4.8c-3.1-3.4-5.2-7.2-5.2-11.9 0-5 2.1-9.3 5.2-11.9z m281.5-100c10.5 10.3 24.8 16.7 40.5 16.7 15.3 0 29.8-6.4 40.3-16.7l0.2-0.2c10-10.5 16.7-24.8 16.7-40.3 0-16-6.7-30.1-16.7-40.6h-0.2c-10.5-10.2-25.1-16.7-40.3-16.7-15.7 0-30 6.4-40.5 16.7-10.3 10.5-16.7 24.6-16.7 40.6 0 15.5 6.4 29.8 16.7 40.3v0.2z m28.6-52.5v-0.2c2.9-2.9 7.2-4.8 11.9-4.8s9.1 1.9 11.9 4.8v0.2c3.4 3.1 5.3 7.2 5.3 11.9 0 4.5-1.9 8.8-5.3 11.9-2.9 3.1-7.2 5-11.9 5s-9.1-1.9-11.9-5c-3.4-3.1-5-7.4-5-11.9 0-4.8 1.7-8.8 5-11.9z m126.7 52.5c10.3 10.3 24.8 16.7 40.3 16.7 15.7 0 30-6.4 40.3-16.7v-0.2c10.8-10.5 17-24.8 17-40.3 0-16-6.2-30.1-17-40.6-10.3-10.2-24.6-16.7-40.3-16.7-15.5 0-30.1 6.4-40.3 16.7-10.3 10.5-16.9 24.6-16.9 40.6 0 15.5 6.7 29.8 16.9 40.3v0.2z m28.4-52.5v-0.2c2.9-2.9 7.1-4.8 11.9-4.8 4.8 0 9.1 1.9 11.9 4.8v0.2c3.3 3.1 4.8 7.2 4.8 11.9 0 4.5-1.4 8.8-4.8 11.9-2.9 3.1-7.2 5-11.9 5-4.8 0-9.1-1.9-11.9-5-2.9-3.1-5-7.4-5-11.9 0-4.8 2.2-8.8 5-11.9z m0 0" fill="#6569" p-id="714"></path></svg>