<svg xmlns="http://www.w3.org/2000/svg" viewBox="0 0 1024 1024" version="1.1"><path d="M900.1 837.9H165.8V652.6c23.2-54.1 58.2-103.3 108.5-131.6 118.9-72.4 181 113.8 279.2 139.6 113.8 31 196.5-51.7 232.7-144.8 25.9-72.4 25.9-279.2 134.4-284.4 41.4 0 41.4-62.1 0-56.9-118.9 10.3-144.8 129.3-165.5 222.4-10.3 62.1-20.7 134.4-67.2 181-56.9 62.1-144.8 25.9-191.3-25.9-67.2-87.9-175.8-144.8-279.2-62.1-20.1 17.2-37 36.1-51.6 55.6v-406.4c0-24.3-19.7-44-44-44S77.9 114.8 77.9 139.1v742.8c0 24.3 19.7 44 44 44 0.3 0 0.6-0 1-0 0.3 0 0.7 0 1 0h776.2c25.4 0 45.9-19.7 45.9-44-0-24.3-20.6-44-45.9-44z" fill="#6569" p-id="761"></path></svg>