<svg xmlns="http://www.w3.org/2000/svg" viewBox="0 0 1024 1024" version="1.1"><path d="M650.4 162.1c-6.7-6.8-17.6-6.8-24.3 0L80.1 720.9c-6.7 6.9-6.7 18 0 24.9l106.2 108.7c8.1 7.5 18.5 11.9 29.4 12.5h340.2c9.4 0 22.7-5.6 29.4-12.5l358.6-367.1c6.7-6.9 6.7-18 0-24.9L650.4 162.1zM551.5 788.2c-8.1 7.5-18.5 11.9-29.4 12.5H258.7c-10.9-0.6-21.3-5-29.4-12.5l-50-51.3c-6.7-6.9-6.7-18 0-24.9l200.1-204.8c6.7-6.9 17.6-6.9 24.4 0l199 203.7c6.7 6.9 6.7 18 0 24.9l-51.2 52.5z m0 0" fill="#6569" p-id="569"></path></svg>