<svg xmlns="http://www.w3.org/2000/svg" viewBox="0 0 1024 1024" version="1.1"><path d="M376.7 882.5h-181.6c-31.2 0-56.6-26.7-56.6-59.5V188.7c0-32.8 25.4-59.5 56.6-59.5h567.9c31.2 0 56.6 26.7 56.6 59.5v161.5c0 16.6 12.8 30.1 28.7 30.1 15.8 0 28.7-13.5 28.7-30.1V188.7c0-66-51.1-119.7-113.9-119.7h-567.9c-62.8 0-113.9 53.7-113.9 119.7v634.3c0 66 51.1 119.8 113.9 119.8h181.6c15.8 0 28.7-13.5 28.7-30.1 0-16.6-12.8-30.1-28.7-30.1z m88.2-51.3v105.5h103.5l299.7-308.3-103.5-105.5-299.7 308.3z m482.1-322.2l-62.3-63.5c-10.8-11.1-27.4-11.1-38.3 0l-49.1 50 103.5 105.5 46.1-53.1c10.6-11 10.6-28.1 0-39z m-514.1 73.7H272.9c-15.8 0-28.7 13.5-28.7 30.1 0 16.7 12.8 30.1 28.7 30.1h160c15.8 0 28.7-13.5 28.7-30.1 0-16.6-12.8-30.1-28.7-30.1z m277.1-298.8c0-16.6-12.8-30.1-28.7-30.1H272.9c-15.8 0-28.7 13.5-28.7 30.1 0 16.6 12.8 30.1 28.7 30.1h408.4c15.8 0 28.7-13.5 28.7-30.1z m-437.1 128.9c-15.8 0-28.7 13.5-28.7 30.1 0 16.6 12.8 30.1 28.7 30.1h281.8c15.8 0 28.7-13.5 28.7-30.1s-12.8-30.1-28.7-30.1h-281.8z" fill="#6569" p-id="864"></path></svg>