<svg xmlns="http://www.w3.org/2000/svg" viewBox="0 0 1024 1024" version="1.1"><path d="M585.6 285.3c12.8 84.4 78.9 150.7 163.3 163.7-4.4 0.4-8.8 0.5-13.3 0.5a153.3 153.3 0 0 1-31.3-3.2l-38.8-8.1-28 28-374.9 374.9c-19.1 19.1-50.1 19.2-69.3 0.1-19.1-19.1-19.2-50.1-0.1-69.3L568.2 397l28-28-8.1-38.8a153 153 0 0 1-2.7-45m128-208.3c-4.2 0-8.5 0.3-12.7 1A223.4 223.4 0 0 0 516.6 345.1L141.8 719.9c-46.3 47.9-45.7 124.1 1.4 171.3 47.1 47.1 123.4 47.8 171.3 1.4L689.4 517.8a226.4 226.4 0 0 0 46.3 4.6c110.2 0.2 204.1-80 221-188.9 4.6-30.4-7.4-47.8-23.4-47.8a34.1 34.1 0 0 0-23.4 11.4l-44.7 44.7c-48.2 44.1-122.5 42.5-168.8-3.6-46.3-46.1-48.1-120.4-4.1-168.8 43.9-48.3 20-20 44.7-44.7 22.2-22.2 11.1-47.9-23.6-47.9l0.1 0z m0 0" fill="#6569" p-id="806"></path><path d="M228.1 765.7c-19.4 0-36.1 13.7-39.9 32.8-3.8 19.1 6.4 38.1 24.4 45.6 18 7.4 38.7 1.2 49.5-15 10.8-16.2 8.7-37.7-5-51.4a40.6 40.6 0 0 0-28.8-11.9z m-11.9-460.7l141.1 141.2 57.6-57.6L273.8 247.4l-31.6-60.4-100.8-72L83.8 172.6l72 100.8 60.4 31.6z m472.3 299.5c-8-7.9-20.8-7.9-28.8 0l-86.5 86.4c-7.9 8-7.9 20.8 0 28.8l203.8 203.8a81.5 81.5 0 0 0 79.2 22.1 81.5 81.5 0 0 0 36-137.3L688.5 604.5z m0 0" fill="#6569" p-id="807"></path></svg>