<svg xmlns="http://www.w3.org/2000/svg" viewBox="0 0 1024 1024" version="1.1"><path d="M554.5 229h344.4c27.9 0 50.5-22.2 50.5-49.6 0-27.4-22.6-49.6-50.5-49.6h-344.4c-27.9 0-50.5 22.2-50.5 49.6h-0c0 27.4 22.6 49.6 50.5 49.6zM261.5 140.9c-6.7-6.5-16.2-10.1-26.7-10.1-9.8 0-18 3.1-27.4 10.3l-121.4 133.6c-6.8 6.6-10.3 15-10.3 24.2 0 18.7 16.6 33.9 37.1 33.9 8.6 0 15.9-3.6 24.5-12l62.5-67v194.8c0 19.9 14.4 33.9 35 33.9 20.9 0 34.5-13.3 34.5-33.9v-194.8l62.4 66.8c7.8 7.6 18 12.2 27.3 12.2 18.4 0 34.5-15.8 34.5-33.9 0-10.2-4-17.9-8.3-24.8L261.5 140.9z m97.3 551.4c-9.3 0-19.5 4.6-27.3 12.2l-62.4 66.8V576.5c-0-20.6-13.5-33.9-34.5-33.9-20.6 0-35 13.9-35 33.9V771.3l-62.5-67c-8.5-8.4-15.9-12-24.5-12-20.4 0-37.1 15.2-37.1 33.9 0 9.2 3.6 17.6 10.3 24.2L207.3 884c9.4 7.2 17.6 10.3 27.4 10.3 10.6 0 20.1-3.6 26.7-10.2L385 751c4.2-7 8.3-14.7 8.3-24.8 0-18-16.1-33.9-34.5-33.9z m540.1-340.8h-344.4c-27.9 0-50.5 22.2-50.5 49.6h-0c0 27.4 22.6 49.6 50.5 49.6h344.4c27.9 0 50.5-22.2 50.5-49.6 0-27.4-22.6-49.6-50.5-49.6z m0 221.8h-344.4c-27.9 0-50.5 22.2-50.5 49.6h-0c0 27.4 22.6 49.6 50.5 49.6h344.4c27.9 0 50.5-22.2 50.5-49.6s-22.6-49.6-50.5-49.6z m0 221.8h-344.4c-27.9 0-50.5 22.2-50.5 49.6h-0c0 27.4 22.6 49.6 50.5 49.6h344.4c27.9 0 50.5-22.2 50.5-49.6 0-27.4-22.6-49.6-50.5-49.6z" fill="#6569" p-id="1221"></path></svg>