<svg xmlns="http://www.w3.org/2000/svg" viewBox="0 0 1024 1024" version="1.1"><path d="M509.4 75.9c-238.9 0-432.5 193.7-432.5 432.5s193.7 432.5 432.5 432.5c107.2 0 205.3-39 280.8-103.6a435.1 435.1 0 0 0 17.6-15.9c10.7-8.8 19.6-18.9 19.6-33.2a37.7 37.7 0 0 0-9.7-25.3l0-0-0.3-0.3a38.1 38.1 0 0 0-2.2-2.2L285.4 230.7c61.2-49.5 139.2-79.1 224-79.1 197.1 0 356.8 159.8 356.8 356.8 0 28.7-3.4 56.6-9.8 83.4l0 0a37.9 37.9 0 0 0-1.1 9.2c0 20.9 16.9 37.8 37.8 37.8 17.3 0 31.9-11.6 36.4-27.5l0-0 0-0c0.3-1.1 0.6-2.1 0.8-3.2a429.9 429.9 0 0 0 4.6-21.8c4.6-25.3 7-51.3 7-78 0-238.9-193.7-432.5-432.5-432.5z m-356.8 432.5c0-85 29.7-163 79.3-224.2l501.8 501.8c-61.3 49.6-139.3 79.3-224.2 79.3-197.1 0-356.8-159.8-356.8-356.8z" fill="#6569" p-id="648"></path></svg>