<svg xmlns="http://www.w3.org/2000/svg" viewBox="0 0 1024 1024" version="1.1"><path d="M765.4 740c0 80.2-63.2 145.2-141.1 145.2H216.7c-77.9 0-141.1-65.1-141.1-145.2V320.5c0-80.2 63.2-145.2 141.1-145.2h407.6c19.6 0 39.2 4 57.3 12.6 4.4 2 7.8 6.6 8.8 11.6 1 5.5-0.5 10.6-4.4 14.6l-24 24.7c-4.4 4.5-10.3 6.1-15.7 4-7.4-2-14.7-3-22-3H216.7c-43.1 0-78.4 36.3-78.4 80.7v419.5c0 44.4 35.3 80.7 78.4 80.7h407.6c43.1 0 78.4-36.3 78.4-80.7v-63.5c0-4 1.5-8.1 4.4-11.1l31.3-32.3c4.9-5 11.3-6.1 17.1-3.5 5.9 2.5 9.8 8.1 9.8 14.6v95.8z m94.1-322.7L530.2 756.1H389.2V610.9l329.2-338.9 141.1 145.2z m-292 232l-74.5-76.6-56.8 58.5v28.2h47v48.4h27.4l56.8-58.5z m142.5-304.1L538.6 521.7c-4.4 4.5-4.9 12.1-0.5 16.6s11.8 4 16.2-0.5l171.5-176.5c4.4-4.5 4.9-12.1 0.5-16.6-4.4-4.5-11.8-4-16.2 0.5z m180.8 39.8L749.7 239.8l45.1-46.4c18.1-18.7 48.5-18.7 66.6 0l74.5 76.6c18.1 18.7 18.1 49.9 0 68.6l-45.1 46.4z m0 0" fill="#6569" p-id="985"></path></svg>