<svg xmlns="http://www.w3.org/2000/svg" viewBox="0 0 1024 1024" version="1.1"><path d="M730.8 328c0-20.1-16.4-36.5-36.5-36.5H329.7c-20.1 0-36.5 16.4-36.5 36.5v364.7c0 20.1 16.4 36.5 36.5 36.5h364.7c20.1 0 36.5-16.4 36.5-36.5V328z m-36.5 346.4c0 10.9-7.3 18.2-18.2 18.2H347.9c-10.9 0-18.2-7.3-18.2-18.2V346.3c0-10.9 7.3-18.2 18.2-18.2h328.2c10.9 0 18.2 7.3 18.2 18.2v328.2z m62.6-387.3c4.4 4.4 13.1 4.4 17.5 4.4h130.9c26.2 0 43.6-17.4 43.6-43.6 0-26.2-17.4-43.6-43.6-43.6h-26.2l56.7-56.7c17.4-17.4 17.4-43.6 0-61.1-8.7-8.7-17.5-13.1-30.5-13.1s-21.8 4.4-30.5 13.1l-56.7 56.7v-26.2c0-26.2-17.5-43.6-43.6-43.6-26.2 0-43.6 17.5-43.6 43.6v130.9c0 4.4 0 13.1 4.4 17.5 4.4 8.7 13.1 17.4 21.8 21.8z m122.1 529.2h26.2c26.2 0 43.6-17.4 43.6-43.6 0-26.2-17.4-43.6-43.6-43.6H774.4c-4.4 0-13.1 0-17.5 4.4-8.7 4.4-17.4 13.1-21.8 21.8-4.4 4.4-4.4 13.1-4.4 17.5v130.9c0 26.2 17.4 43.6 43.6 43.6 26.2 0 43.6-17.4 43.6-43.6v-26.2l56.7 56.7c17.5 17.4 43.6 17.4 61.1 0 17.4-17.5 17.4-43.6 0-61.1l-56.7-56.7zM75.1 247.9c0 26.2 17.5 43.6 43.6 43.6h130.9c4.4 0 13.1 0 17.4-4.4 8.7-4.4 17.4-13.1 21.8-21.8 4.4-4.4 4.4-13.1 4.4-17.5V117.1c0-26.2-17.4-43.6-43.6-43.6-26.2 0-43.6 17.5-43.6 43.6v26.2l-56.7-56.7c-8.7-8.7-17.4-13.1-30.5-13.1-13.1 0-21.8 4.4-30.5 13.1-17.4 17.4-17.4 43.6 0 61.1l56.7 56.7h-26.2c-26.2 0-43.6 17.5-43.6 43.6z m191.9 485.6c-4.4-4.4-13.1-4.4-17.4-4.4H118.7c-26.2 0-43.6 17.4-43.6 43.6 0 26.2 17.5 43.6 43.6 43.6H144.9l-56.7 56.7c-17.4 17.5-17.4 43.6 0 61.1 17.4 17.4 43.6 17.4 61.1 0l56.7-56.7v26.2c0 26.2 17.4 43.6 43.6 43.6 26.2 0 43.6-17.4 43.6-43.6V772.8c0-4.4 0-13.1-4.4-17.5-4.4-8.7-13.1-17.4-21.8-21.8z" fill="#6569" p-id="974"></path></svg>