<svg xmlns="http://www.w3.org/2000/svg" viewBox="0 0 1024 1024" version="1.1"><path d="M603 357.6c0-86.3 79.9-166.6 165.9-166.6s165.9 80.2 165.9 166.6v65.7H1024v-64.4C1024 217.5 909.8 102.9 769 102.9c-140.8 0-255 114.6-255 256v64.4h89.1v-65.7z m0 0M584.3 456H113c-39.5 0-71.6 32.2-71.6 71.8V850.3c0 39.7 32 71.8 71.6 71.8H584.3c39.5 0 71.6-32.2 71.6-71.8V527.9c0-39.7-32-71.8-71.6-71.8zM394.2 771.4h-91l20-75.1c-19.5-9.5-33-29.6-33-52.8 0-32.4 26.2-58.7 58.4-58.7 32.3 0 58.4 26.3 58.4 58.7 0 23.2-13.4 43.2-32.9 52.8l20 75.2z m0 0" fill="#6569" p-id="592"></path></svg>