<svg xmlns="http://www.w3.org/2000/svg" viewBox="0 0 1024 1024" version="1.1"><path d="M512 443.6c-37.2 0-67.3 30.1-67.3 67.3s30.1 67.3 67.3 67.3c37.2 0 67.3-30.1 67.3-67.3 0-37.2-30.1-67.3-67.3-67.3z" fill="#6569" p-id="818"></path><path d="M900.4 462.4h-91.9c-7.6-46.8-26-89.9-52.5-126.8l65-65c19-19 19-49.7-0-68.7s-49.7-19-68.7 0l-65 65c-36.9-26.5-80-44.9-126.7-52.5v-91.9c0-26.8-21.7-48.5-48.5-48.5s-48.5 21.7-48.5 48.5v91.9c-46.8 7.6-89.9 26-126.8 52.5l-65-65c-19-19-49.7-19-68.7 0-19 19-19 49.7 0 68.7l65 65c-26.5 36.9-44.9 80-52.5 126.8h-91.9c-26.8 0-48.5 21.7-48.5 48.5 0 26.8 21.7 48.5 48.5 48.5h91.9c7.6 46.8 26 89.9 52.5 126.7l-65 65c-19 19-19 49.7-0 68.7s49.7 19 68.7 0l0-0 65-65c36.9 26.5 80 44.9 126.8 52.5v91.9c0 26.8 21.7 48.5 48.5 48.5s48.5-21.7 48.5-48.5v-91.9c46.8-7.6 89.9-26 126.7-52.5l65 65 0 0c19 19 49.7 19 68.7 0s19-49.7 0-68.7l-65-65c26.5-36.9 44.9-80 52.5-126.8h91.9c26.8 0 48.5-21.7 48.5-48.5-0-26.8-21.7-48.5-48.5-48.5z m-388.4 254.6c-113.8 0-206.1-92.3-206.1-206.1 0-113.8 92.3-206.1 206.1-206.1 113.8 0 206.1 92.3 206.1 206.1 0 113.8-92.3 206.1-206.1 206.1z" fill="#6569" p-id="819"></path></svg>