<svg xmlns="http://www.w3.org/2000/svg" viewBox="0 0 1024 1024" version="1.1"><path d="M451.5 887.9h-281.5c-17.5 0-31.3-14.4-31.3-31.3V168.5c0-17.5 13.8-31.3 31.3-31.3H795.6c16.9 0 31.3 13.8 31.3 31.3v281.5c0 17.3 14 31.3 31.3 31.3s31.3-14 31.3-31.3v-312.8c0-34.4-28.2-62.6-62.6-62.6H138.7c-34.4 0-62.6 28.1-62.6 62.6v750.7c0 34.4 28.1 62.6 62.6 62.6h312.8c17.3 0 31.3-14 31.3-31.3 0-17.3-14-31.3-31.3-31.3z m486 5.7l-81.3-81.3c-6.3-6.3-12.5-6.3-18.8-6.3-18.8 0-31.3 12.5-31.3 31.3 0 6.3 0 12.5 6.3 18.8l81.3 81.3c6.3 6.3 12.5 12.5 25 12.5 18.8 0 31.3-12.5 31.3-31.3-0-6.3-6.3-18.8-12.5-25z m0 0" fill="#6569" p-id="830"></path><path d="M693.1 511.2c-103.7 0-187.7 84-187.7 187.7 0 103.6 84 187.7 187.7 187.7 103.7 0 187.7-84 187.7-187.7 0-103.7-84-187.7-187.7-187.7z m0 312.8c-45.4 1-87.7-22.6-110.7-61.7-23-39.1-23-87.6-0-126.7 23-39.1 65.3-62.8 110.7-61.8 68 1.5 122.3 57 122.4 125.1 0 68-54.3 123.6-122.3 125.1z m31.7-499.7H223.3c-17-0-30.7-13.8-30.8-30.8v-1c0-17 13.8-30.8 30.8-30.8h501.5c17 0 30.8 13.8 30.8 30.8v1c0 16.9-13.9 30.8-30.8 30.8z m-2 125.1H221.4c-17-0-30.7-13.8-30.8-30.8v-1c0-17 13.8-30.8 30.8-30.8h501.5c17 0 30.8 13.8 30.8 30.8v1c0 16.9-13.9 30.8-30.8 30.8zM411.6 574.2H223c-17-0-30.7-13.8-30.8-30.8v-1c0-17 13.8-30.8 30.8-30.8h188.6c17 0 30.8 13.8 30.8 30.8v1c-0 17-13.8 30.7-30.8 30.8z m0 0" fill="#6569" p-id="831"></path></svg>