<svg xmlns="http://www.w3.org/2000/svg" viewBox="0 0 1024 1024" version="1.1"><path d="M941.8 705.7l-1.2-1.2-54-52.7-44.5-43.4-4.1-4c-2.4-1.7-5.1-2.8-8-2.8-9.4 0-17 10.2-17 22.7v61.6h-54.2a76.5 76.5 0 0 1-66.2-38.2l-5.1-8.8 0.2 0-234.7-406.5-0-0-0-0c-27.3-47.3-77.8-76.5-132.4-76.5h-58.3c-15.1-34.9-49.8-59.3-90.3-59.3-54.3 0-98.3 44-98.3 98.3s44 98.3 98.3 98.3c41 0 76.2-25.1 90.9-60.8h57.7a76.5 76.5 0 0 1 63.8 34.3l242 419.1 0 0 0 0c27.3 47.3 77.8 76.5 132.4 76.5h54.2v60.5c0 12.5 7.6 22.7 17 22.7 3.4 0 6.5-1.4 9.2-3.6 0.4-0.3 0.7-0.7 1.1-1l46.4-45.3 54-52.7 1.3-1.3c4-4.1 6.6-10.6 6.6-17.9-0-7.3-2.6-13.8-6.7-17.9z m-769.9-472.6c-21.1 0-38.2-17.1-38.2-38.2s17.1-38.2 38.2-38.2 38.2 17.1 38.2 38.2-17.1 38.2-38.2 38.2z" fill="#6569" p-id="1188"></path></svg>