<svg xmlns="http://www.w3.org/2000/svg" viewBox="0 0 1024 1024" version="1.1"><path d="M882.7 194.6c-6.8-5.4-15.8-7.7-24.6-6.2l-218.2 36.6-55.7-17.5c-15.9-5-32.8 3.1-38.1 18-5.2 14.9 3.3 31 19.1 35.9l63 19.8c1.5 0.5 3 0.8 4.5 1V512.9L508.2 476.7c-10.6-3.1-21.8 2.5-25.1 12.5-3.2 10 2.7 20.6 13.3 23.7l136.3 39.6v237.8l-260.8-69.2V614.1c0-10.5-9-18.9-20.1-18.9s-20.1 8.5-20.1 18.9v107.5l-200.6 29.7V216.3c0-15.7-13.5-28.4-30.1-28.4-16.6 0-30.1 12.7-30.1 28.4v568.2c0 8.3 3.8 16.2 10.5 21.6 6.7 5.4 15.6 7.8 24.2 6.5l249.3-36.9 279.6 74.1a31.8 31.8 0 0 0 13.5 0.6l111.5-19.2c-12.3-15.4-20.7-33.7-24-53.6l-62.8 10.8v-234l160.5-26.4v113.1a135.2 135.2 0 0 1 28.6-3c10.9 0 21.5 1.3 31.5 3.7V216.3c0-8.4-3.9-16.4-10.8-21.8z m-49.4 295.1l-160.5 26.4V277.2l160.5-27v239.4zM204.9 364.1c9.8 18.4 100.3 138.7 127.8 175.2 5.6 7.5 14.8 11.9 24.5 11.9h0.1c9.8-0 18.9-4.5 24.5-12.1 27.4-36.7 117.5-157.9 126.7-174.7 12.1-22.1 18.8-47.8 18.8-72.4 0-88.8-76.5-161-170.5-161-94 0-170.5 72.2-170.5 161 0 24.6 6.3 48.8 18.7 72v0z m151.9-176.2c60.8 0 110.4 46.7 110.4 104.2 0 15.4-4.4 32.2-12 46.1-5.3 9.2-50.8 71.6-98.1 135.4-43.4-58-92.7-124.7-98.4-135-8.1-15.2-12.2-30.9-12.2-46.5 0-57.4 49.5-104.2 110.4-104.2z m-25.1 145.2c15.5 8.5 34.6 8.5 50.2 0 15.5-8.5 25.1-24.1 25.1-41 0-16.9-9.6-32.5-25.1-41-15.5-8.5-34.6-8.5-50.2 0-15.5 8.5-25.1 24.1-25.1 41-0 16.9 9.6 32.6 25.1 41z" fill="#6569" p-id="1153"></path><path d="M893.5 859.1c-56.6 0-102.8-47.2-102.8-105.4 0-26.8 9.8-52.3 27.7-71.9 5.7-6.3 15.2-6.6 21.3-0.8 6.1 5.8 6.4 15.6 0.8 21.9-12.6 13.8-19.5 31.9-19.5 50.8 0 41.1 32.6 74.5 72.6 74.5 40 0 72.6-33.4 72.6-74.5 0-18.9-6.9-37-19.5-50.7-5.7-6.3-5.4-16 0.8-21.9 6.1-5.8 15.6-5.5 21.3 0.8 17.8 19.6 27.6 45.1 27.6 71.8-0.1 58.1-46.2 105.4-102.9 105.4z m0 0" fill="#FC5043" p-id="1154"></path><path d="M893.5 737.6c-2.5 0-4.5-2.1-4.5-4.6v-74.9c0-2.5 2-4.6 4.5-4.6s4.5 2.1 4.5 4.6v74.9c-0 2.6-2 4.6-4.5 4.6z" fill="#FC5043" p-id="1155"></path></svg>