<svg xmlns="http://www.w3.org/2000/svg" viewBox="0 0 1024 1024" version="1.1"><path d="M876.1 75.1H147.9C107.9 75.1 75.1 107.9 75.1 147.9v728.2C75.1 916.1 107.9 948.9 147.9 948.9H876.1C916.1 948.9 948.9 916.1 948.9 876.1v-728.2c0-40.1-32.8-72.8-72.8-72.8z m0 764.6c0 21.8-14.6 36.4-36.4 36.4H184.3c-21.9 0-36.4-14.6-36.4-36.4V184.3c0-21.8 14.6-36.4 36.4-36.4h655.4c21.8 0 36.4 14.6 36.4 36.4v655.4z m-546.1-655.4h-109.2c-3.6 0-10.9 0-14.6 3.6-7.3 3.6-14.6 10.9-18.2 18.2C184.3 209.8 184.3 217.1 184.3 220.7v109.2c0 21.8 14.6 36.4 36.4 36.4s36.4-14.6 36.4-36.4V308.1L304.5 355.4c7.3 7.3 14.6 10.9 25.5 10.9 10.9 0 18.2-3.6 25.5-10.9 14.6-14.6 14.6-36.4 0-51l-47.3-47.3h21.8c21.8 0 36.4-14.6 36.4-36.4 0-21.9-14.6-36.4-36.4-36.4z m0 582.5h-21.8L355.4 719.5c14.6-14.6 14.6-36.4 0-51-14.6-14.6-36.4-14.6-51 0l-47.3 47.3v-21.9c0-21.8-14.6-36.4-36.4-36.4S184.3 672.2 184.3 694v109.2c0 3.6 0 10.9 3.6 14.6 3.6 7.3 10.9 14.6 18.2 18.2 3.6 3.6 10.9 3.6 14.6 3.6h109.2c21.8 0 36.4-14.6 36.4-36.4S351.8 766.9 330 766.9zM817.8 188C814.2 184.3 806.9 184.3 803.3 184.3h-109.2c-21.8 0-36.4 14.6-36.4 36.4 0 21.8 14.6 36.4 36.4 36.4h21.8L668.6 304.5c-14.6 14.6-14.6 36.4 0 51 7.3 7.3 14.6 10.9 25.5 10.9s18.2-3.6 25.5-10.9l47.3-47.3v21.9c0 21.8 14.6 36.4 36.4 36.4 21.8 0 36.4-14.6 36.4-36.4v-109.2c0-3.6 0-10.9-3.6-14.6-3.6-7.3-10.9-14.6-18.2-18.2z m-14.6 469.7c-21.8 0-36.4 14.6-36.4 36.4v21.9L719.5 668.6c-14.6-14.6-36.4-14.6-51 0-14.6 14.6-14.6 36.4 0 51l47.3 47.3h-21.8c-21.8 0-36.4 14.6-36.4 36.4S672.2 839.7 694 839.7h109.2c3.6 0 10.9 0 14.6-3.6 7.3-3.6 14.6-10.9 18.2-18.2 3.6-3.6 3.6-10.9 3.6-14.6v-109.2c0-21.8-14.6-36.4-36.4-36.4z" fill="#6569" p-id="963"></path></svg>