<svg xmlns="http://www.w3.org/2000/svg" viewBox="0 0 1024 1024" version="1.1"><path d="M393.2 571.6c32.5-32.2 54.5-58.7 66.2-79.5 11.6-20.8 17.5-42.1 17.5-63.7 0-28.7-9.1-51.6-27.3-68.6-18.2-17-43-25.5-74.4-25.5-36.5 0-68.6 10.6-96.1 31.8l0 44.9c28.3-26.5 58-39.7 89.1-39.7 21 0 37.1 5.3 48.3 15.9 11.1 10.6 16.7 25.8 16.7 45.7 0 17.4-4.7 34.3-14.2 50.6-9.5 16.3-28.2 38.4-56.1 66.4l-101.5 101.2 0 38.3 212.4 0 0-39.2L313.6 650.3l0-0.9L393.2 571.6z" fill="#272636" p-id="997"></path><path d="M717.9 689.6l0-90.7 44.6 0 0-35L717.9 564l0-223.7-51.2 0L512.3 570.3l0 28.6 162.8 0 0 90.7L717.9 689.6zM557.8 564l104-155.4c6.8-12.2 11.2-21.1 13.3-26.8l0.9 0c-0.6 13.5-0.9 25.5-0.9 35.9l0 146.3L557.8 564z" fill="#272636" p-id="998"></path><path d="M940.7 341.7c0-0 0-0.1 0-0.1L940.8 158.3c0-11.7-9.5-21.2-21.2-21.2-11.7 0-21.2 9.5-21.2 21.2l0 101.7C848.4 186.5 777.5 129.7 693 96.5 582 52.8 460.7 55.1 351.3 102.7c-225.7 98.4-329.3 362-230.9 587.7 47.6 109.3 135 193.6 246 237.2 52.9 20.8 108.2 31.2 163.4 31.2 60.6 0 121.1-12.5 178.3-37.4 79.7-34.7 146.9-91.3 194.4-163.5 6.4-9.8 3.7-22.9-6.1-29.4-9.8-6.4-22.9-3.7-29.4 6.1-43 65.4-103.9 116.6-176 148-98.9 43.1-208.8 45.1-309.2 5.7-100.5-39.5-179.5-115.7-222.6-214.6C70.3 469.2 164 230.6 368.3 141.6c98.9-43.1 208.8-45.1 309.2-5.7 90 35.4 162.7 100.2 207.9 184.4l-75.9 0c-11.7 0-21.2 9.5-21.2 21.2s9.5 21.2 21.2 21.2l105.2 0c4.3 1 8.9 0.7 13.3-1.2C936.1 358 940.9 350 940.7 341.7z" fill="#272636" p-id="999"></path></svg>