<svg xmlns="http://www.w3.org/2000/svg" viewBox="0 0 1024 1024" version="1.1"><path d="M504.7 1023.7c-277.7 0-503.6-225.9-503.6-503.6S227 16.4 504.7 16.4s503.6 225.9 503.6 503.6S782.4 1023.7 504.7 1023.7zM504.7 47.9c-260.3 0-472.1 211.8-472.1 472.1s211.8 472.1 472.1 472.1S976.8 780.4 976.8 520.1 765 47.9 504.7 47.9z" fill="#272636" p-id="2452"></path><path d="M276.9 464.8c-21.8 0-43.6-8.3-60.2-24.9-33.2-33.2-33.2-87.1 0-120.3 33.2-33.2 87.2-33.2 120.3-0 33.2 33.2 33.2 87.2 0 120.3C320.5 456.5 298.7 464.8 276.9 464.8zM276.9 326.2c-13.7 0-27.5 5.2-37.9 15.7-20.9 20.9-20.9 54.9-0 75.8 20.9 20.9 54.9 20.9 75.8 0 20.9-20.9 20.9-54.9 0-75.8C304.3 331.4 290.6 326.2 276.9 326.2z" fill="#272636" p-id="2453"></path><path d="M685.9 830.1c-17.7 0-33.9-4.3-48.4-12.8-27.1-15.9-46.4-46.1-55.8-87.4-13.8-60.4-34.9-72.2-66.6-72.2-32.7 0-110.8-27.4-143.4-112.2-37.7-98 13.9-182 81.6-211.2 55.1-23.8 113.1-25.4 163.3-4.5 50.7 21.1 89.8 63.3 112.9 122.1 19.1 48.6 27.5 76.4 37.2 108.7 4 13.4 8.3 27.5 13.6 44.3l0 0c24.6 76.9 26.8 132.7 6.6 170.6-12.6 23.8-34 40.2-63.4 48.8C710.3 828.1 697.8 830.1 685.9 830.1zM542.4 346.7c-25.2 0-51.3 5.5-76.7 16.5-54.2 23.4-95.3 91.3-64.7 171 27 70.2 93.1 92 114.1 92 66.2 0 86.4 48.9 97.3 96.7 5.2 22.7 16.5 52.8 41.1 67.2 16.5 9.7 37 11 61.2 3.9 21.3-6.2 35.8-17.1 44.5-33.4 15.8-29.6 12.8-78.9-8.8-146.3-5.4-17-9.8-31.3-13.8-44.9-9.5-31.6-17.7-58.8-36.3-106.2-20-50.7-53-86.8-95.7-104.5C584.9 350.8 564 346.7 542.4 346.7z" fill="#272636" p-id="2454"></path><path d="M394.2 327.8c-27 0-49-22-49-49s22-49 49-49 49 22 49 49S421.2 327.8 394.2 327.8zM394.2 261.3c-9.7 0-17.5 7.9-17.5 17.5 0 9.7 7.9 17.5 17.5 17.5s17.5-7.9 17.5-17.5C411.7 269.1 403.8 261.3 394.2 261.3z" fill="#272636" p-id="2455"></path><path d="M500.4 293.3c-21.3 0-38.6-17.3-38.6-38.6s17.3-38.6 38.6-38.6 38.6 17.3 38.6 38.6S521.7 293.3 500.4 293.3z" fill="#272636" p-id="2456"></path><path d="M597 284.4c-17.7 0-32-14.4-32-32s14.4-32 32-32 32 14.4 32 32S614.7 284.4 597 284.4z" fill="#272636" p-id="2457"></path><path d="M678.4 315.6c-17.7 0-32-14.4-32-32 0-17.7 14.4-32 32-32 17.7 0 32 14.4 32 32C710.5 301.2 696.1 315.6 678.4 315.6z" fill="#272636" p-id="2458"></path></svg>