<svg xmlns="http://www.w3.org/2000/svg" viewBox="0 0 1024 1024" version="1.1"><path d="M723.5 306.4l-31 0c-11.4-7.9-25.1-12.8-39.9-13.5-19.1-66.8-53.8-81.2-80.1-81.2-14.6 0-27.2 6-36.8 14.1-14.9-16.9-34.4-28.3-59.7-28.3-52.7 0-80.2 49.3-94.4 95.3l-78.9 0c-42.3 0-76.7 34.4-76.7 76.7l0 365.2c0 42.3 34.4 76.7 76.7 76.7l420.8 0c42.4 0 77-34.5 77-77L800.5 383.3C800.5 340.9 765.9 306.4 723.5 306.4zM572.5 243.1c20.4 0 36.2 16.7 47.1 49.6l-49.6 0c-4.2-13.7-9.6-27.8-16.4-40.7C558.4 247.2 565 243.1 572.5 243.1zM476 228.9c30.8 0 49.6 30.7 60.9 63.8L414.8 292.7C426.2 259.7 445.2 228.9 476 228.9zM257.5 734.7 257.5 369.5c0-25 20.3-45.2 45.2-45.2l70.8 0c-1.4 7-2.6 13.5-3.5 19.3-10.7 4.7-18.1 15.4-18.1 27.9 0 16.8 13.7 30.5 30.5 30.5 16.8 0 30.5-13.7 30.5-30.5 0-9.6-4.5-18.2-11.4-23.8 1.1-7 2.6-14.9 4.5-23.4L545.5 324.2c1.8 8.3 3.3 16.2 4.3 23.1-7.2 5.6-11.9 14.3-11.9 24.1 0 16.8 13.7 30.5 30.5 30.5 16.8 0 30.5-13.7 30.5-30.5 0-12.2-7.2-22.8-17.6-27.7-0.9-5.9-2-12.5-3.4-19.5l71 0c24.9 0 45.2 20.3 45.2 45.2l0 365.2c0 25-20.3 45.2-45.2 45.2L302.7 779.9C277.8 779.9 257.5 759.6 257.5 734.7zM769 734.4c0 25.1-20.4 45.5-45.5 45.5l-12.7 0c9.3-12.7 14.8-28.3 14.8-45.2L725.6 369.5c0-11.3-2.5-22-6.9-31.6l4.7 0c25.1 0 45.5 20.4 45.5 45.5L769 734.4z" fill="#272636" p-id="2354"></path><path d="M504.4 16.4c-277.8 0-503.8 226-503.8 503.8 0 277.8 226 503.8 503.8 503.8S1008.2 798 1008.2 520.2C1008.2 242.4 782.2 16.4 504.4 16.4zM504.4 992.5c-260.4 0-472.3-211.9-472.3-472.3S243.9 47.9 504.4 47.9 976.7 259.8 976.7 520.2 764.8 992.5 504.4 992.5z" fill="#272636" p-id="2355"></path></svg>