<svg xmlns="http://www.w3.org/2000/svg" viewBox="0 0 1024 1024" version="1.1"><path d="M504.4 16.4c-277.8 0-503.8 226-503.8 503.8s226 503.8 503.8 503.8S1008.1 798 1008.1 520.2 782.1 16.4 504.4 16.4zM504.4 992.2c-260.3 0-472-211.8-472-472S244.1 48.2 504.4 48.2s472 211.8 472 472S764.6 992.2 504.4 992.2z" fill="#272636" p-id="2515"></path><path d="M210.8 407.8l137.8 0c26.6 0 52.3 9.4 72.6 26.6 3 2.5 6.6 3.8 10.2 3.8 4.5 0 9-1.9 12.1-5.6 5.7-6.7 4.8-16.7-1.9-22.4-26-22-59-34.1-93.1-34.1L210.8 376.1c-8.8 0-15.9 7.1-15.9 15.9S202.1 407.8 210.8 407.8z" fill="#272636" p-id="2516"></path><path d="M806 378.3l-136.3-81.4c-7.5-4.5-17.3-2-21.8 5.5-4.5 7.5-2 17.3 5.5 21.8l87 52L605.2 376.1c-79.5 0-144.1 64.7-144.1 144.1 0 62-50.4 112.4-112.4 112.4L210.8 632.6c-8.8 0-15.9 7.1-15.9 15.9s7.1 15.9 15.9 15.9l137.8 0c79.5 0 144.1-64.7 144.1-144.1 0-62 50.4-112.4 112.4-112.4l135.2 0-86.9 51.9c-7.5 4.5-10 14.2-5.5 21.8 3 5 8.2 7.7 13.6 7.7 2.8 0 5.6-0.7 8.1-2.2l136.3-81.4c4.8-2.9 7.7-8 7.7-13.6C813.8 386.4 810.8 381.2 806 378.3z" fill="#272636" p-id="2517"></path><path d="M806 634.8l-136.3-81.4c-7.5-4.5-17.3-2-21.8 5.5-4.5 7.5-2 17.3 5.5 21.8l86.9 51.9L605.2 632.6c-27.5 0-54.1-10.1-74.6-28.3-6.6-5.8-16.6-5.2-22.4 1.3-5.8 6.6-5.2 16.6 1.3 22.4 26.4 23.4 60.4 36.4 95.7 36.4L740.4 664.3l-87 52c-7.5 4.5-10 14.2-5.5 21.8 3 5 8.2 7.7 13.6 7.7 2.8 0 5.6-0.7 8.1-2.2l136.3-81.4c4.8-2.9 7.7-8 7.7-13.6C813.8 642.9 810.8 637.7 806 634.8z" fill="#272636" p-id="2518"></path></svg>