<svg xmlns="http://www.w3.org/2000/svg" viewBox="0 0 1024 1024" version="1.1"><path d="M599.1 216.6 936.9 216.6c11.4 0 20.7-9.3 20.7-20.7 0-11.4-9.3-20.7-20.7-20.7L599.1 175.2c-11.4 0-20.7 9.3-20.7 20.7C578.3 207.3 587.6 216.6 599.1 216.6z" fill="#272636" p-id="967"></path><path d="M936.9 332.7 599.1 332.7c-11.4 0-20.7 9.3-20.7 20.7 0 11.4 9.3 20.7 20.7 20.7L936.9 374.2c11.4 0 20.7-9.3 20.7-20.7C957.7 342 948.4 332.7 936.9 332.7z" fill="#272636" p-id="968"></path><path d="M366.9 65.3 180.3 65.3c-63 0-114 51-114 114l0 186.6c0 63 51 114 114 114l186.6 0c63 0 114-51 114-114L480.9 179.3C480.9 116.3 429.9 65.3 366.9 65.3zM439.4 365.9c0 40.1-32.5 72.6-72.6 72.6L180.3 438.4c-40.1 0-72.6-32.5-72.6-72.6L107.8 179.3c0-40.1 32.5-72.6 72.6-72.6l186.6 0c40.1 0 72.6 32.5 72.6 72.6L439.4 365.9z" fill="#272636" p-id="969"></path><path d="M936.9 654 599.1 654c-11.4 0-20.7 9.3-20.7 20.7s9.3 20.7 20.7 20.7L936.9 695.5c11.4 0 20.7-9.3 20.7-20.7S948.4 654 936.9 654z" fill="#272636" p-id="970"></path><path d="M936.9 811.5 599.1 811.5c-11.4 0-20.7 9.3-20.7 20.7s9.3 20.7 20.7 20.7L936.9 853c11.4 0 20.7-9.3 20.7-20.7S948.4 811.5 936.9 811.5z" fill="#272636" p-id="971"></path><path d="M366.9 544.1 180.3 544.1c-63 0-114 51-114 114l0 186.6c0 63 51 114 114 114l186.6 0c63 0 114-51 114-114L480.9 658.1C480.9 595.2 429.9 544.1 366.9 544.1zM439.4 844.7c0 40.1-32.5 72.6-72.6 72.6L180.3 917.3c-40.1 0-72.6-32.5-72.6-72.6L107.8 658.1c0-40.1 32.5-72.6 72.6-72.6l186.6 0c40.1 0 72.6 32.5 72.6 72.6L439.4 844.7z" fill="#272636" p-id="972"></path></svg>