<svg xmlns="http://www.w3.org/2000/svg" viewBox="0 0 1024 1024" version="1.1"><path d="M504.4 16.4c-277.8 0-503.8 226-503.8 503.8 0 277.8 226 503.8 503.8 503.8S1008.2 798 1008.2 520.2C1008.2 242.4 782.2 16.4 504.4 16.4zM504.4 992.5c-260.4 0-472.3-211.9-472.3-472.3S243.9 47.9 504.4 47.9 976.7 259.8 976.7 520.2 764.8 992.5 504.4 992.5z" fill="#272636" p-id="2381"></path><path d="M785.3 573.3c-0.8 0.1-9 1.4-22.4 4.7-42-93.8 15-164 17.4-166.9 3.9-4.6 4.8-11.1 2.3-16.6-2.5-5.5-8-9.1-14-9.3-3.2-0-69.2-1-112.4 25-1.3-2.2-2.7-4.5-4.1-6.7C546.5 234.4 334.3 202.1 325.3 200.8c-6.9-1-13.6 2.7-16.5 9-2.9 6.3-1.3 13.8 3.9 18.4 4.5 4 64 57.7 93.6 155.4-58.3-41.8-121.1-42.4-124.3-42.4-6.2 0-11.9 3.7-14.4 9.4-2.5 5.7-1.4 12.4 2.8 17 0.9 1 66.7 75.2 62.6 208.4-58.9-27.3-107.4-35.1-109.6-35.4-6.8-1.1-13.5 2.4-16.6 8.6-3 6.2-1.7 13.6 3.3 18.4 0.6 0.5 51.8 50.1 71.3 139.2l-64.3 0c-8.7 0-15.7 7-15.7 15.7l0 55.1c0 8.7 7 15.7 15.7 15.7l558.6 0c8.7 0 15.7-7 15.7-15.7l0-55.1c0-5.2-2.5-9.7-6.4-12.6-42.2-66.4 5.9-104.1 11.6-108.2 6-4.2 8.3-12 5.5-18.8C799.6 576.2 792.5 572.1 785.3 573.3zM711.7 627.6c12.7-5.1 24.6-9.1 35.1-12.3-11 22.2-16.6 53.3 0.9 91.6l-47.4 0C704.7 689.5 710.3 661.9 711.7 627.6zM738.6 418.3c-17.5 33.5-37.5 94.7-6.2 168.4-6.5 2.1-13.5 4.5-20.8 7.2-2-45.9-12.4-100-40.2-156C689.8 426.3 716.7 420.7 738.6 418.3zM625.5 420.2c79.1 126.7 51.7 252.6 42 286.5L407.8 706.8c99.9-232.2 12.8-394.4-40.4-464.1C434.1 261.6 556.5 309.8 625.5 420.2zM316 377.5c28.6 6.6 69.8 22.2 102.4 59.3 11.1 72.6 3.7 163.1-45 270l-31.8 0C393.9 542.1 347.1 428.9 316 377.5zM330.5 609.7c-3.1 27-9.1 56.2-19 87.3-11.4-50.2-31.7-88.7-49-114.4C281.7 588.5 305.4 597.3 330.5 609.7zM760.3 761.2l-526.6 0 0-23.2 526.6 0L760.3 761.2z" fill="#272636" p-id="2382"></path></svg>