<svg xmlns="http://www.w3.org/2000/svg" viewBox="0 0 1024 1024" version="1.1"><path d="M504.4 16.4c-277.8 0-503.8 226-503.8 503.8s226 503.8 503.8 503.8S1008.2 798 1008.2 520.2 782.2 16.4 504.4 16.4zM504.4 992.5c-260.4 0-472.3-211.9-472.3-472.3S243.9 47.9 504.4 47.9 976.7 259.8 976.7 520.2 764.8 992.5 504.4 992.5z" fill="#272636" p-id="2393"></path><path d="M795.6 776.8c-29.3 0-48.7-9.2-69.2-18.9-16.9-8-34.3-16.3-56.4-18.5l59.5-132.7c8.9-20 1.5-43.4-17.3-54.6l-22.4-13.3L689.8 344.8c0-8.7-7.4-16.7-16.1-16.7l-77.5 0 0-77.9c0-8.7-7-15.7-15.7-15.7l-63.8 0 0-23.5c0-8.7-6.9-15.7-15.6-15.7s-15.6 7-15.6 15.7l0 23.5-62.8 0c-8.7 0-15.7 7-15.7 15.7l0 77.9-79.5 0c-8.7 0-16.1 8-16.1 16.7l0 198.7-12.2 7.1c-19.7 11.5-26.9 36.4-16.5 56.7l67.8 132c-19.5 2.1-35.4 9.2-52 16.6-22.8 10.2-46.4 20.8-85.2 20.8-8.7 0-15.7 7-15.7 15.7s7 15.7 15.7 15.7c45.5 0 74.6-13 98-23.5 18.1-8.1 32.4-14.5 50.7-14.5 20.8 0 41.2 8.4 62.8 17.3 24.7 10.2 50.2 20.7 79.9 20.7 29.1 0 56.5-10.2 82.9-20 24.6-9.2 47.9-17.8 70.7-17.8 20.9 0 36.7 7.5 54.9 16.1 21.7 10.3 46.3 22 82.7 22 8.7 0 15.7-7 15.7-15.7S804.3 776.8 795.6 776.8zM438.1 265.7l125.9 0 0 62.4-125.9 0L438.1 265.7zM343.4 359.4l315.2 0 0 161-145.2-86.1c-4.9-2.9-11-2.9-16-0l-153.9 90.3L343.4 359.4zM576.4 758.5c-25 9.3-48.5 18.1-71.9 18.1-23.5 0-45.1-8.9-67.9-18.3-16-6.6-32.4-13.3-49.8-17l-76.2-148.4c-2.8-5.4-0.8-12.1 4.4-15.2l170.4-100 0 158.3c0 8.7 6.9 15.7 15.6 15.7s15.6-7 15.6-15.7L516.6 472.8l179.5 106.4c5 3 7 9.3 4.6 14.6l-65.9 147C614.8 744.3 595.4 751.5 576.4 758.5z" fill="#272636" p-id="2394"></path><path d="M429.7 383.5l-47.2 0c-8.7 0-15.7 7.4-15.7 16.1s7 16.1 15.7 16.1l47.2 0c8.7 0 15.7-7.4 15.7-16.1S438.4 383.5 429.7 383.5z" fill="#272636" p-id="2395"></path><path d="M634.3 399.7c0-8.7-7-16.1-15.7-16.1L484.8 383.5c-8.7 0-15.7 7.4-15.7 16.1s7 16.1 15.7 16.1l133.8 0C627.3 415.8 634.3 408.4 634.3 399.7z" fill="#272636" p-id="2396"></path></svg>