<svg xmlns="http://www.w3.org/2000/svg" viewBox="0 0 1024 1024" version="1.1"><path d="M504.4 16.4c-277.8 0-503.8 226-503.8 503.8s226 503.8 503.8 503.8S1008.2 798 1008.2 520.2 782.2 16.4 504.4 16.4zM504.4 992.5c-260.4 0-472.3-211.9-472.3-472.3S243.9 47.9 504.4 47.9 976.7 259.8 976.7 520.2 764.8 992.5 504.4 992.5z" fill="#272636" p-id="2366"></path><path d="M510.5 207.4c-2-0-5.9-0-7.9-0-2 0-6.5 0-8.4 0-122.4 1.8-222.2 101.3-222.2 221.9l0 270.5c0 47.4 46.9 82.7 89.9 84.5l-53.6 40.2c-6.9 5.2-8.4 15.1-3.1 22 3.1 4.1 7.8 6.3 12.6 6.3 3.3 0 6.6-1 9.4-3.2l24-18 303.6 0 24 18c2.8 2.1 6.1 3.2 9.4 3.2 4.8 0 9.5-2.2 12.6-6.3 5.2-7 3.8-16.8-3.1-22l-53.5-40.2c46-0.5 84-38.8 84-84.5L728.1 427.7C728.1 307.9 630.6 209.1 510.5 207.4zM392.7 800.4l21.5-16.1 177.5 0 21.5 16.1L392.7 800.4zM643.3 753.1 365.2 753.1c-19.2 0-38.4-10.1-50.2-24.2l372.6 0C677.9 743.3 661.4 753.1 643.3 753.1zM696.9 697.7l-393.7 0L303.2 429.3c0-103.5 86-188.9 191.3-190.4 1.8-0 6.3-0 8.2-0 1.9 0 5.7 0 7.6 0 103.1 1.5 186.7 86.2 186.7 188.8L696.9 697.7z" fill="#272636" p-id="2367"></path><path d="M358.2 367.4c-8.7 0-15.7 7-15.7 15.7l0 78.3c0 8.7 7 15.7 15.7 15.7l275.6 0c8.7 0 15.7-7 15.7-15.7l0-78.3c0-8.7-7-15.7-15.7-15.7L358.2 367.4zM374.7 398.7l109.8 0 0 47.3-109.8 0L374.7 398.7zM618.3 446l-102.7 0 0-47.3 102.7 0L618.3 446z" fill="#272636" p-id="2368"></path><path d="M503.5 536.7c-34.2 0-62.1 27.9-62.1 62.1 0 34.2 27.9 62.1 62.1 62.1s62.1-27.9 62.1-62.1C565.6 564.6 537.7 536.7 503.5 536.7zM503.5 629.5c-16.9 0-30.6-13.7-30.6-30.6 0-16.9 13.7-30.6 30.6-30.6 16.9 0 30.6 13.7 30.6 30.6C534.1 615.7 520.4 629.5 503.5 629.5z" fill="#272636" p-id="2369"></path><path d="M453.3 320.1l94.5 0c8.7 0 15.7-6.9 15.7-15.6s-7-15.6-15.7-15.6l-94.5 0c-8.7 0-15.7 6.9-15.7 15.6S444.6 320.1 453.3 320.1z" fill="#272636" p-id="2370"></path></svg>