<svg xmlns="http://www.w3.org/2000/svg" viewBox="0 0 1024 1024" version="1.1"><path d="M504.4 16.4C226.5 16.4 0.5 242.5 0.5 520.3s226 503.9 503.9 503.9S1008.2 798.1 1008.2 520.3 782.2 16.4 504.4 16.4zM504.4 992.7c-260.5 0-472.4-211.9-472.4-472.4 0-260.5 211.9-472.4 472.4-472.4S976.8 259.8 976.8 520.3C976.8 780.8 764.8 992.7 504.4 992.7z" fill="#272636" p-id="2407"></path><path d="M380.8 276.6c-25.5 0-46.3 22.5-46.3 50.1l0 80.7 92.6 0 0-80.7C427.1 299.1 406.4 276.6 380.8 276.6zM395.6 375.9l-29.6 0 0-49.2c0-10.1 6.8-18.6 14.8-18.6 8 0 14.8 8.5 14.8 18.6L395.6 375.9z" fill="#272636" p-id="2408"></path><path d="M366.1 432.9c-26.5 0-46.8 21.3-46.8 48.6l0 193 93.7 0L412.9 481.5C412.9 454.3 392.6 432.9 366.1 432.9zM381.7 643.3l-31.2 0L350.5 481.5c0-9.7 6.6-17.1 15.6-17.1s15.6 7.3 15.6 17.1L381.7 643.3z" fill="#272636" p-id="2409"></path><path d="M499.3 276.6c-25.5 0-46.3 22.5-46.3 50.1l0 80.7 92.6 0 0-80.7C545.6 299.1 524.8 276.6 499.3 276.6zM514.1 375.9l-29.6 0 0-49.2c0-10.1 6.8-18.6 14.8-18.6s14.8 8.5 14.8 18.6L514.1 375.9z" fill="#272636" p-id="2410"></path><path d="M493 432.9c-26.5 0-46.8 21.3-46.8 48.6l0 193 93.7 0L539.8 481.5C539.8 454.3 519.5 432.9 493 432.9zM508.6 643.3l-31.2 0L477.4 481.5c0-9.7 6.6-17.1 15.6-17.1s15.6 7.3 15.6 17.1L508.6 643.3z" fill="#272636" p-id="2411"></path><path d="M784.9 721.8 752.2 721.8 752.2 342.4c0-42.4-34.5-76.9-76.9-76.9l-65.7 0c-7.2-35-38.2-61.5-75.3-61.5L342.4 204c-42.4 0-76.9 34.5-76.9 76.9l0 440.9-56.4 0c-8.7 0-15.7 7-15.7 15.7l0 63.2c0 8.7 7 15.7 15.7 15.7l575.8 0c8.7 0 15.7-7 15.7-15.7l0-63.2C800.7 728.9 793.6 721.8 784.9 721.8zM720.7 342.4l0 379.5L611.2 721.8 611.2 297l64.1 0C700.3 297 720.7 317.3 720.7 342.4zM297 280.9c0-25 20.4-45.4 45.4-45.4l191.9 0c25 0 45.4 20.4 45.4 45.4l0 440.9L297 721.8 297 280.9zM767.4 784.3l-542.8 0 0-31.2 542.8 0L767.4 784.3z" fill="#272636" p-id="2412"></path></svg>