<svg xmlns="http://www.w3.org/2000/svg" viewBox="0 0 1024 1024" version="1.1"><path d="M504.4 16.4c-277.8 0-503.8 226-503.8 503.8s226 503.8 503.8 503.8S1008.2 798 1008.2 520.2 782.2 16.4 504.4 16.4zM504.4 992.5c-260.4 0-472.3-211.9-472.3-472.3S243.9 47.9 504.4 47.9c260.4 0 472.3 211.9 472.3 472.3S764.8 992.5 504.4 992.5z" fill="#272636" p-id="2423"></path><path d="M775.8 488.3c9.6-13.2 14.2-29.3 14.2-44.8 0-96.9-122.1-205.2-285.6-205.2S218.8 346.6 218.8 443.5c0 17.1 5.4 32.4 14.7 44.7-22.4 7.2-39.2 34.2-39.2 66.6 0 25.1 0 68.8 33.4 80 1.2 5.8 3.4 11.5 6.4 16.7-0.3 1.3-0.5 2.6-0.5 4L233.6 714.5c0 42.8 34.8 77.6 77.6 77.6l387.8 0c42.8 0 77.6-34.8 77.6-77.6l0-58.9c5-6.6 8.2-14.7 9.4-24 28.4-13.1 28.4-51.9 28.4-76.9C814.4 522.7 798 495.8 775.8 488.3zM504.4 269.7c155.1 0 254.1 103.1 254.1 173.9 0 20.5-11.9 42.6-45.3 42.6L295.5 486.3c-29.7 0-45.2-21.5-45.2-42.6C250.3 372.8 349.2 269.7 504.4 269.7zM745.2 714.5c0 25.4-20.7 46.1-46.1 46.1L311.2 760.7c-25.4 0-46.1-20.7-46.1-46.1l0-40.7 480.1-0.2L745.2 714.5zM748 639.7 263.3 639.7c-1.5-1.2-2.9-2.7-4-4.3 14.5-6.9 25.1-20.8 34.8-33.4 10-13.1 19.5-25.5 29.5-25.5 7.3 0 18.2 12.2 27.7 22.9 15.4 17.2 34.5 38.6 61.7 38.6 7.3 0 14.1-1.5 20.3-4.1 17.4-6.6 30.8-21.5 42.9-35.1 2.2-2.4 4.4-4.9 6.5-7.3 8.1-8.5 16.3-16.1 22.2-16.1 8 0 20.2 13.9 30 25 1.4 1.5 2.7 3.1 4.1 4.7 8.4 9.9 17.7 19.8 29 25.8 7 4 14.7 6.6 23.1 6.6 25 0 43.3-19.8 59.4-37.4 9.7-10.6 21.8-23.7 29.3-23.7 8.4 0 17.2 11.1 26.5 22.8 11.1 14 24.4 30.8 44.2 37.5C750 637.8 749.1 638.8 748 639.7zM763.3 604.5c-8.1 0-19.3-13.3-29.3-25-14.6-17.2-31.1-36.6-54.2-36.6-22.4 0-37.9 17.9-52.9 35.1-11.7 13.5-23.8 27.4-35.3 27.4-3.5 0-7-1.3-10.5-3.5-5.7-4-11.8-10.4-17.7-16.9-1.8-2.1-3.5-4.2-5.3-6.3-13.8-16.6-29.5-35.4-52.4-35.4-20.9 0-35.8 15.1-49.9 30.9-1.1 1.2-2.2 2.4-3.3 3.5-8.8 9.6-17.8 19.5-26.9 24.9-3.6 1.9-7.3 3.1-11 3.1-12.9 0-25.2-13.4-38.1-27.6-14.8-16.2-31.7-34.6-54.8-34.6-25.5 0-41.6 22-54.5 39.7-6.6 9-16.5 22.6-21.9 22.6-10.1 0-19.6 0-19.6-51.3 0-21.5 11.7-37.1 19.6-37.1l517.9 0c7.9 0 19.6 15.6 19.6 37.1C782.9 604.6 774.7 604.5 763.3 604.5z" fill="#272636" p-id="2424"></path><path d="M435.9 347.3c9.4 0 17.1-7.7 17.1-17.1s-7.7-17.1-17.1-17.1c-9.4 0-17.1 7.7-17.1 17.1S426.5 347.3 435.9 347.3z" fill="#272636" p-id="2425"></path><path d="M360.9 426.5c9.4 0 17.1-7.7 17.1-17.1s-7.7-17.1-17.1-17.1-17.1 7.7-17.1 17.1S351.5 426.5 360.9 426.5z" fill="#272636" p-id="2426"></path><path d="M576 347.3c9.4 0 17.1-7.7 17.1-17.1s-7.7-17.1-17.1-17.1-17.1 7.7-17.1 17.1S566.6 347.3 576 347.3z" fill="#272636" p-id="2427"></path><path d="M506 426.5c9.4 0 17.1-7.7 17.1-17.1s-7.7-17.1-17.1-17.1-17.1 7.7-17.1 17.1S496.5 426.5 506 426.5z" fill="#272636" p-id="2428"></path><path d="M651 426.5c9.4 0 17.1-7.7 17.1-17.1s-7.7-17.1-17.1-17.1-17.1 7.7-17.1 17.1S641.5 426.5 651 426.5z" fill="#272636" p-id="2429"></path></svg>