<svg xmlns="http://www.w3.org/2000/svg" viewBox="0 0 1024 1024" version="1.1"><path d="M504.4 1024c-277.8 0-503.8-226-503.8-503.8S226.6 16.4 504.4 16.4 1008.2 242.4 1008.2 520.2 782.2 1024 504.4 1024zM504.4 47.9c-260.4 0-472.3 211.9-472.3 472.3s211.9 472.3 472.3 472.3S976.7 780.6 976.7 520.2 764.8 47.9 504.4 47.9z" fill="#272636" p-id="2342"></path><path d="M625.1 850.8c-1.2 0-2.5-0.1-3.7-0.4-5.4-1.3-9.7-5.4-11.3-10.7l-79-257-92.7 78.6 1.1 139.5c0 4.2-1.6 8.2-4.5 11.2L411.5 835.9c-3.7 3.8-9.2 5.5-14.4 4.4-5.2-1.1-9.6-4.7-11.5-9.7L334.8 699.3l-136.2-58.5c-4.8-2-8.2-6.3-9.2-11.4-1-5.1 0.5-10.3 4.2-14.1l23.5-24.1c3.2-3.2 7.5-4.9 12-4.7l142.7 7 78.8-96.7-258.9-82.2c-5.2-1.7-9.2-5.9-10.5-11.2-1.3-5.3 0.2-10.9 4-14.8l44.8-45.8c3.3-3.4 8-5.1 12.8-4.6l321.3 32.4 90.7-92.4c36.8-37.2 72.1-44.6 89.9-44.6 0.1 0 0.2 0 0.3 0 16.9 0 31.4 6.4 39.7 14.7 19.5 19.5 18.8 75.5-33.1 128.5l-91.7 91.9 25.7 319.3c0.4 4.5-1.3 9.1-4.4 12.4l-44.9 45.8C633.4 849.1 629.3 850.8 625.1 850.8zM539.2 539.5c1.5 0 3 0.2 4.4 0.6 5.1 1.5 9.1 5.4 10.6 10.5l78.2 254.5 21.3-21.8-25.7-319.2c-0.4-4.6 1.3-9.1 4.6-12.4l96.7-96.5c40.9-41.8 37.7-77.8 33.1-83.3-5.9-5.3-44.1-11.7-85.2 29.9-0 0-0 0-0.1 0.1l-96 96.1c-3.3 3.3-8 5-12.7 4.5l-321.2-32.3-21.6 22.1 256.6 81.5c5 1.6 8.8 5.5 10.3 10.5 1.5 5 0.4 10.4-2.9 14.4l-98.5 120.8c-3.2 3.9-7.9 6-13 5.8l-143.6-7-2.5 2.6 121.3 52.1c3.9 1.7 6.9 4.8 8.5 8.8l44.3 114.6 1.9-1.9-1.1-140.3c-0-4.7 2-9.1 5.6-12.1l116.5-98.8C531.9 540.8 535.5 539.5 539.2 539.5z" fill="#272636" p-id="2343"></path></svg>