<svg xmlns="http://www.w3.org/2000/svg" viewBox="0 0 1024 1024" version="1.1"><path d="M794.1 453.6c-8.8 0-16.2 7.1-16.2 15.9l0 23.7-17.6 0c-3.2-59.5-26.7-113.7-63.8-155.8l13.9-13.9 17.1 17.1c3.1 3.1 7.2 4.6 11.2 4.6 4.1 0 8.1-1.5 11.2-4.6 6.2-6.2 6.2-16.2 0-22.4l-56.7-56.7c-6.2-6.2-16.2-6.2-22.4 0-6.2 6.2-6.2 16.2 0 22.4l17.1 17.1-13.9 13.9c-42.5-37.6-97.5-61.4-157.9-64.2l0-19.3 24 0c8.8 0 15.9-7 15.9-15.7 0-8.8-7.1-15.7-15.9-15.7l-79.3 0c-8.8 0-15.9 7-15.9 15.7 0 8.8 7.1 15.7 15.9 15.7l23.9 0 0 19.7c-57.5 4.3-109.8 27.8-150.6 63.9l-14.1-14.1 17.1-17.1c6.2-6.2 6.2-16.2 0-22.4-6.2-6.2-16.2-6.2-22.4 0L258.1 318.2c-6.2 6.2-6.2 16.2 0 22.4 3.1 3.1 7.2 4.6 11.2 4.6 4.1 0 8.1-1.5 11.2-4.6l17.1-17.1 14.1 14.1c-37 42-60.5 96.1-63.6 155.5l-25.1 0 0-23.7c0-8.8-7-15.9-15.7-15.9-8.8 0-15.7 7.1-15.7 15.9l0 79.3c0 8.8 7 15.9 15.7 15.9 8.8 0 15.7-7.1 15.7-15.9l0-24.2 25.4 0c4 58.1 27.4 111 63.9 152.1l-14.7 14.7-17.1-17.1c-6.2-6.2-16.2-6.2-22.4 0-6.2 6.2-6.2 16.2 0 22.4l56.7 56.7c3.1 3.1 7.2 4.6 11.2 4.6 4.1 0 8.1-1.5 11.2-4.6 6.2-6.2 6.2-16.2 0-22.4l-17.1-17.1 14.7-14.7c22.6 20 48.7 36 77.4 47l-35 86.7c-0.1 0.4-0.3 0.7-0.4 1.1L270.5 834c-8.8 0-15.9 7.5-15.9 16.2 0 8.8 7.1 16.2 15.9 16.2l460.1 0c8.8 0 15.9-7.5 15.9-16.2 0-8.8-7.1-16.2-15.9-16.2l-92.2 0c-0.1-0.4-0.3-0.9-0.5-1.3l-37.3-88.1c26.9-10.9 51.5-26.3 72.9-45.2l14.5 14.5-17.1 17.1c-6.2 6.2-6.2 16.2 0 22.4 3.1 3.1 7.2 4.6 11.2 4.6 4.1 0 8.1-1.5 11.2-4.6l56.7-56.7c6.2-6.2 6.2-16.2 0-22.4-6.2-6.2-16.2-6.2-22.4 0l-17.1 17.1-14.4-14.4c36.5-41.1 60.1-94.1 64.1-152.3l17.9 0 0 24.2c0 8.8 7.5 15.9 16.2 15.9s16.2-7.1 16.2-15.9l0-79.3C810.3 460.7 802.8 453.6 794.1 453.6zM728.5 493.2 570.6 493.2c-1.6-7.7-4.5-14.9-8.5-21.5l111.8-111.8C705.4 396.1 725.4 442.4 728.5 493.2zM484.7 730.7c-10.3-0.9-20.4-2.5-30.3-4.7l30.3-75.1L484.7 730.7zM516.2 626.7l41.7 98.4c-13.5 3.3-27.4 5.4-41.7 6.2L516.2 626.7zM504.2 543c-19.9 0-36.1-16.2-36.1-36.1 0-19.9 16.2-36.1 36.1-36.1 19.9 0 36.1 16.2 36.1 36.1 0 0-0 0-0 0-0.1 0.7-0.1 1.3-0.1 2 0 0.2 0 0.4 0 0.6C538.8 528.2 523.2 543 504.2 543zM651.6 337.5 539.8 449.2c-7.1-4.4-15.1-7.5-23.6-9L516.2 282.6C567.8 285.3 614.9 305.5 651.6 337.5zM484.7 283.1l0 158.9c-5.8 1.7-11.3 4.3-16.4 7.4L356.6 337.7C391.5 307.2 435.9 287.3 484.7 283.1zM334.3 360.1l111.9 111.9c-3.9 6.5-6.7 13.6-8.3 21.2L280 493.2C283 442.5 303 396.3 334.3 360.1zM280.2 524.7l158.5 0c1.7 6.4 4.4 12.4 7.8 17.9L334.8 654.3C304 619 284.1 574 280.2 524.7zM357.2 676.7l111.8-111.8c4.3 2.6 8.8 4.7 13.6 6.3l-58.7 145.6C399.4 707.3 376.8 693.7 357.2 676.7zM604 834 410.9 834l31.5-78.2c13.7 3.4 27.8 5.7 42.3 6.8l0 16.6-23.9 0c-8.8 0-15.9 7-15.9 15.7 0 8.8 7.1 15.7 15.9 15.7l79.3 0c8.8 0 15.9-7 15.9-15.7 0-8.8-7.1-15.7-15.9-15.7l-24 0 0-16.2c18.6-0.9 36.8-3.7 54.2-8.4L604 834zM588.2 715.3l-61.2-144.5c4.3-1.5 8.3-3.5 12.2-5.8l111.9 111.9C632.4 692.9 611.2 706 588.2 715.3zM673.5 654.5 561.7 542.8c3.5-5.5 6.2-11.6 7.9-18.1l158.5 0C724.3 574.1 704.3 619.2 673.5 654.5z" fill="#272636" p-id="2318"></path><path d="M504.4 16.4c-277.7 0-503.7 226-503.7 503.7s226 503.7 503.7 503.7 503.7-226 503.7-503.7S782.1 16.4 504.4 16.4zM504.4 992.1c-260.2 0-472-211.7-472-472S244.1 48.2 504.4 48.2s472 211.7 472 472S764.6 992.1 504.4 992.1z" fill="#272636" p-id="2319"></path></svg>