<svg xmlns="http://www.w3.org/2000/svg" viewBox="0 0 1024 1024" version="1.1"><path d="M504.9 16.5c-277.5 0-503.2 225.7-503.2 503.2s225.7 503.2 503.2 503.2 503.2-225.7 503.2-503.2S782.4 16.5 504.9 16.5zM504.9 991.4c-260.1 0-471.8-211.6-471.8-471.8S244.8 47.9 504.9 47.9s471.8 211.6 471.8 471.8S765 991.4 504.9 991.4z" fill="#272636" p-id="2330"></path><path d="M807.5 332.4c0-45-35-82.6-76.6-82.6L278.9 249.8c-43.4 0-84.3 39.9-84.3 82.6l0 137.1c0 8.7 6.8 16.2 15.5 16.2l110.5 0 0 70.6-47.3 0c-43.7 0-78.7 42.7-78.7 78.3l0 78.7c0 8.7 6.8 16.4 15.5 16.4l64.2 0c3.1 33.2 31.1 59.3 65 59.3s62-26.1 65-59.3l201 0c3.1 33.2 31.1 59.3 65 59.3 34 0 62-26.1 65-59.3l56.5 0c8.7 0 15.5-7.7 15.5-16.4L807.5 332.4zM776.2 332.4l0 27.2-93.7 0 0-78.6 48.4 0C758 281.1 776.2 307.5 776.2 332.4zM351.9 359.7l0-78.6 78.6 0 0 78.6L351.9 359.7zM461.8 281.1l78.6 0 0 78.6-78.6 0L461.8 281.1zM571.6 281.1l78.6 0 0 78.6-78.6 0L571.6 281.1zM278.9 281.1l41.7 0 0 78.6-94.7 0 0-27.2C225.9 306.9 252.6 281.1 278.9 281.1zM351.9 485.7l78.6 0 0 70.6-78.6 0L351.9 485.7zM650.2 556.2l-78.6 0 0-70.6 78.6 0L650.2 556.2zM540.4 556.2l-78.6 0 0-70.6 78.6 0L540.4 556.2zM225.9 634.5c0-18.6 21.2-47.1 47.4-47.1l376.9 0 0 74c-18.1 5.9-32.8 19.5-40.1 36.9L399.6 698.4c-9.9-23.5-33.2-40.1-60.3-40.1s-50.4 16.6-60.3 40.1l-53.2 0L225.9 634.5zM339.4 757.4c-18.7 0-33.9-15.2-33.9-33.9s15.2-33.9 33.9-33.9 33.9 15.2 33.9 33.9S358.1 757.4 339.4 757.4zM670.4 757.4c-18.7 0-33.9-15.2-33.9-33.9s15.2-33.9 33.9-33.9 33.9 15.2 33.9 33.9S689.1 757.4 670.4 757.4zM776.2 698.4l-45.6 0c-8.4-20-26.4-34.9-48.2-39L682.5 485.7l93.7 0L776.2 698.4zM225.9 454.4l0-63.5 550.4 0 0 63.5L225.9 454.4z" fill="#272636" p-id="2331"></path></svg>