<svg xmlns="http://www.w3.org/2000/svg" viewBox="0 0 1024 1024" version="1.1"><path d="M504.6 16.5c-278.3 0-504 225.6-504 504s225.6 504 504 504 504-225.6 504-504S782.9 16.5 504.6 16.5zM827.4 537.4 523.4 537.4l0 305.8c0 10.9-8.8 19.7-19.6 19.7-10.9 0-19.6-8.8-19.6-19.7l0-305.8L181.7 537.4c-10.9 0-19.7-8.8-19.7-19.6 0-10.9 8.8-19.6 19.7-19.6l302.4 0 0-300.6c0-10.9 8.8-19.7 19.6-19.7 10.9 0 19.6 8.8 19.6 19.7l0 300.6 304 0c10.9 0 19.7 8.8 19.7 19.6C847.1 528.7 838.3 537.4 827.4 537.4z" fill="#272636" p-id="1693"></path></svg>