<svg xmlns="http://www.w3.org/2000/svg" viewBox="0 0 1024 1024" version="1.1"><path d="M829.7 196C745 111.4 632.4 64.8 512.7 64.8c-119.7 0-232.3 46.6-316.9 131.3C111.1 280.7 64.5 393.2 64.5 513c0 119.7 46.6 232.3 131.3 316.9 84.7 84.7 197.2 131.3 316.9 131.3 119.7 0 232.3-46.6 316.9-131.3 84.7-84.7 131.3-197.2 131.3-316.9C960.9 393.2 914.3 280.7 829.7 196zM512.7 921.1c-225.1 0-408.2-183.1-408.2-408.2 0-225.1 183.1-408.2 408.2-408.2s408.2 183.1 408.2 408.2C920.9 738 737.8 921.1 512.7 921.1z" fill="#272636" p-id="1987"></path><path d="M541 516l225.3-225.3c7.8-7.8 7.8-20.5 0-28.3-7.8-7.8-20.5-7.8-28.3 0L512.7 487.7 287.4 262.3c-7.8-7.8-20.5-7.8-28.3 0-7.8 7.8-7.8 20.5 0 28.3l225.3 225.3L257.9 742.6c-7.8 7.8-7.8 20.5 0 28.3 3.9 3.9 9 5.9 14.1 5.9 5.1 0 10.2-2 14.1-5.9l226.6-226.6 226.6 226.6c3.9 3.9 9 5.9 14.1 5.9 5.1 0 10.2-2 14.1-5.9 7.8-7.8 7.8-20.5 0-28.3L541 516z" fill="#272636" p-id="1988"></path></svg>