<svg xmlns="http://www.w3.org/2000/svg" viewBox="0 0 1024 1024" version="1.1"><path d="M515.7 71.1c-244.8 0-444 199.2-444 444s199.2 444 444 444 444-199.2 444-444S760.5 71.1 515.7 71.1zM528.6 918.8l0-46.6c0-11-8.9-20-20-20s-20 9-20 20l0 45.9c-203.3-13.5-366-178.2-376.4-382.3l39.8 0c11 0 20-8.9 20-20s-9-20-20-20l-39.8 0C121.8 291 284.8 125.5 488.7 112l0 40.3c0 11 8.9 20 20 20s20-9 20-20L528.6 111.3c210.5 6.6 380.8 175 390.7 384.6l-47.3 0c-11 0-20 8.9-20 20s9 20 20 20l47.2 0C908.5 744.7 738.5 912.2 528.6 918.8z" fill="#272636" p-id="2480"></path><path d="M707.6 312.3l-238 160.2c-0.9 0.6-1.7 1.2-2.4 1.9-0 0-0.1 0.1-0.1 0.1-0.1 0.1-0.3 0.3-0.4 0.4-0.1 0.1-0.3 0.3-0.4 0.4-0 0-0.1 0.1-0.1 0.1-0.7 0.8-1.3 1.6-1.9 2.4L303.9 716c-5.4 8-4.3 18.6 2.5 25.4 3.9 3.8 9 5.8 14.1 5.8 3.9 0 7.9-1.1 11.3-3.5l236.4-161.8c0.1-0.1 0.3-0.2 0.4-0.3 0.1-0.1 0.2-0.2 0.4-0.3 0.2-0.1 0.3-0.3 0.5-0.4 0.1-0.1 0.2-0.2 0.4-0.3 0.2-0.1 0.3-0.3 0.4-0.4 0.1-0.1 0.3-0.2 0.4-0.3 0.1-0.1 0.3-0.3 0.4-0.4 0.1-0.1 0.3-0.3 0.4-0.4 0.1-0.1 0.2-0.3 0.3-0.4 0.1-0.1 0.3-0.3 0.4-0.4 0.1-0.1 0.2-0.2 0.3-0.4 0.1-0.2 0.3-0.3 0.4-0.5 0.1-0.1 0.2-0.2 0.3-0.4 0.1-0.1 0.2-0.3 0.3-0.4l161.8-236.4c5.4-7.9 4.4-18.6-2.3-25.4C726.2 308 715.5 307 707.6 312.3zM395.4 651.7l88.3-131.2 42 42L395.4 651.7z" fill="#272636" p-id="2481"></path></svg>