<svg xmlns="http://www.w3.org/2000/svg" viewBox="0 0 1024 1024" version="1.1"><path d="M640.8 362.5c0-71.4-58.1-129.5-129.5-129.5-71.4 0-129.5 58.1-129.5 129.5s58.1 129.5 129.5 129.5C582.7 492 640.8 433.9 640.8 362.5z" fill="#272636" p-id="1502"></path><path d="M829.7 195.7C745 111 632.4 64.4 512.7 64.4c-119.7 0-232.3 46.6-316.9 131.3C111.1 280.3 64.5 392.9 64.5 512.6c0 119.7 46.6 232.3 131.3 316.9 84.7 84.7 197.2 131.3 316.9 131.3 119.7 0 232.3-46.6 316.9-131.3 84.7-84.7 131.3-197.2 131.3-316.9C960.9 392.9 914.3 280.3 829.7 195.7zM733 764c-11 0-20-9-20-20 0-111.2-90.5-201.7-201.7-201.7S309.6 632.8 309.6 744c0 11-9 20-20 20-11.1 0-20-9-20-20 0-107 69.9-198 166.5-229.7-55.8-27.8-94.3-85.4-94.3-151.8 0-93.5 76-169.5 169.5-169.5 93.5 0 169.5 76 169.5 169.5 0 66.4-38.5 124.1-94.3 151.8 96.5 31.7 166.5 122.7 166.5 229.7C753 755 744 764 733 764z" fill="#272636" p-id="1503"></path></svg>