<svg xmlns="http://www.w3.org/2000/svg" viewBox="0 0 1024 1024" version="1.1"><path d="M639.3 362.5c0-70.6-57.4-128-128-128-70.6 0-128 57.4-128 128s57.4 128 128 128C581.9 490.5 639.3 433.1 639.3 362.5z" fill="#272636" p-id="1578"></path><path d="M829.6 195.7c-84.6-84.6-197.2-131.3-316.9-131.3-119.7 0-232.3 46.6-316.9 131.3C111.1 280.3 64.5 392.9 64.5 512.6c0 119.7 46.6 232.3 131.3 316.9 84.6 84.6 197.2 131.3 316.9 131.3 119.7 0 232.3-46.6 316.9-131.3 84.6-84.6 131.3-197.2 131.3-316.9C960.9 392.9 914.2 280.3 829.6 195.7zM732.9 764c-11 0-20-9-20-20 0-111.2-90.5-201.7-201.7-201.7s-201.7 90.5-201.7 201.7c0 11-9 20-20 20-11 0-20-9-20-20 0-107 69.9-198 166.5-229.7-55.8-27.8-94.3-85.4-94.3-151.8 0-93.4 76-169.5 169.5-169.5s169.5 76 169.5 169.5c0 66.4-38.5 124-94.3 151.8 96.5 31.7 166.5 122.7 166.5 229.7C752.9 755 744 764 732.9 764z" fill="#272636" p-id="1579"></path></svg>