<svg xmlns="http://www.w3.org/2000/svg" viewBox="0 0 1024 1024" version="1.1"><path d="M659.8 345.5l208.6 0-136.6 81.6c-9.5 5.7-12.6 18-6.9 27.4 3.7 6.3 10.4 9.7 17.2 9.7 3.5 0 7-0.9 10.2-2.8l198.8-118.8c6-3.6 9.7-10.1 9.7-17.2 0-7-3.7-13.6-9.7-17.2l-198.8-118.8c-9.5-5.7-21.8-2.6-27.4 6.9-5.7 9.5-2.6 21.8 6.9 27.4l136.6 81.6L659.8 305.5c-114.2 0-207.1 92.9-207.1 207.1 0 92.1-74.9 167.1-167.1 167.1L84.5 679.6c-11 0-20 9-20 20s9 20 20 20l201.1 0c114.2 0 207.1-92.9 207.1-207.1C492.7 420.4 567.6 345.5 659.8 345.5z" fill="#272636" p-id="1301"></path><path d="M84.5 345.5l201.1 0c39.5 0 77.8 14 107.9 39.5 3.8 3.2 8.4 4.7 12.9 4.7 5.7 0 11.3-2.4 15.3-7.1 7.1-8.4 6.1-21.1-2.3-28.2-37.3-31.6-84.8-49-133.8-49L84.5 305.5c-11 0-20 9-20 20C64.5 336.5 73.5 345.5 84.5 345.5z" fill="#272636" p-id="1302"></path><path d="M951.1 682.5 752.3 563.7c-9.5-5.7-21.8-2.6-27.4 6.9-5.7 9.5-2.6 21.8 6.9 27.4l136.6 81.6L659.8 679.6c-41 0-80.4-15-110.9-42.1-8.3-7.3-20.9-6.6-28.2 1.7-7.3 8.3-6.6 20.9 1.7 28.2 37.9 33.7 86.7 52.3 137.5 52.3l208.6 0-136.6 81.6c-9.5 5.7-12.6 18-6.9 27.4 3.7 6.3 10.4 9.8 17.2 9.8 3.5 0 7-0.9 10.2-2.8l198.8-118.8c6-3.6 9.7-10.1 9.7-17.2C960.9 692.6 957.2 686.1 951.1 682.5z" fill="#272636" p-id="1303"></path></svg>