<svg xmlns="http://www.w3.org/2000/svg" viewBox="0 0 1024 1024" version="1.1"><path d="M791.3 675.5 232.1 675.5c-85.7 0-155.5-69.7-155.5-155.3 0-70.5 47.9-131.7 114.4-149.9-0.1-1.7-0.1-3.4-0.1-5 0-59.5 48.4-108 107.9-108 21.9 0 42.9 6.6 60.6 18.6 39.7-81.4 122.9-134.4 215.3-134.4 127.4 0 232 100 239.1 225.6 33.4 5 64.1 20.6 88 45 28.5 29.1 44.3 67.6 44.3 108.3 0 41.3-16.3 80.3-45.9 109.7C870.9 659.5 832.2 675.5 791.3 675.5zM298.8 297.4c-37.5 0-67.9 30.5-67.9 67.9 0 5.4 0.7 10.8 1.9 16.1 1.3 5.5 0.3 11.3-2.9 16-3.2 4.7-8.2 7.8-13.8 8.6-56.7 7.8-99.5 56.9-99.5 114.2 0 63.6 51.8 115.3 115.5 115.3l559.2 0c30.2 0 58.9-12 80.7-33.6 22-21.8 34.1-50.7 34.1-81.3 0-30.2-11.7-58.7-32.8-80.3-21.1-21.6-49.4-33.9-79.5-34.7-11-0.3-19.7-9.4-19.5-20.4 0-0.6-0-1.1-0-1.6-0-0.8-0-1.6-0-2.5 0-110-89.5-199.4-199.5-199.4-85.2 0-161.1 54.1-188.7 134.7-2.4 6.9-8.3 11.9-15.4 13.2-7.2 1.3-14.4-1.4-19-7.1C338.6 306.5 319.4 297.4 298.8 297.4z" fill="#272636" p-id="2184"></path><path d="M311.9 959.6c-11 0-20-9-20-20L291.9 730.6c0-11 9-20 20-20s20 9 20 20l0 209.1C332 950.7 323 959.6 311.9 959.6z" fill="#272636" p-id="2185"></path><path d="M450.7 879.6c-11 0-20-9-20-20L430.7 730.6c0-11 9-20 20-20s20 9 20 20L470.7 859.6C470.7 870.6 461.7 879.6 450.7 879.6z" fill="#272636" p-id="2186"></path><path d="M589.4 959.6c-11 0-20-9-20-20L569.4 730.6c0-11 9-20 20-20 11 0 20 9 20 20l0 209.1C609.4 950.7 600.5 959.6 589.4 959.6z" fill="#272636" p-id="2187"></path><path d="M728.1 879.6c-11 0-20-9-20-20L708.1 730.6c0-11 9-20 20-20 11 0 20 9 20 20L748.2 859.6C748.2 870.6 739.2 879.6 728.1 879.6z" fill="#272636" p-id="2188"></path></svg>