<svg xmlns="http://www.w3.org/2000/svg" viewBox="0 0 1024 1024" version="1.1"><path d="M541.9 551.1 541.9 432.2l100.6 58.1 27.9 124.5c2.1 9.3 10.3 15.6 19.5 15.6 1.5 0 2.9-0.2 4.4-0.5 10.8-2.4 17.6-13.1 15.1-23.9l-19.9-88.5 92.7 53.5c3.2 1.8 6.6 2.7 10 2.7 6.9 0 13.6-3.6 17.3-10 5.5-9.6 2.2-21.8-7.3-27.3l-91.5-52.8 84.6-26.4c10.5-3.3 16.4-14.5 13.1-25.1-3.3-10.5-14.5-16.4-25.1-13.1l-119.8 37.4-102.9-59.4 100.9-58.3 121.8 38.1c2 0.6 4 0.9 6 0.9 8.5-0 16.4-5.5 19.1-14 3.3-10.5-2.6-21.8-13.1-25.1l-86.6-27.1 92.7-53.5c9.6-5.5 12.8-17.8 7.3-27.3-5.5-9.6-17.8-12.8-27.3-7.3l-91.5 52.8 19.4-86.5c2.4-10.8-4.4-21.5-15.1-23.9-10.8-2.4-21.5 4.4-23.9 15.1l-27.5 122.5-101.1 58.4L541.9 245.1l92-84.8c8.1-7.5 8.6-20.1 1.2-28.3-7.5-8.1-20.1-8.6-28.3-1.2l-64.9 59.8L541.9 85.6c0-11-8.9-20-20-20s-20 9-20 20L502 192.7l-67.1-61.8c-8.1-7.5-20.8-7-28.3 1.2-7.5 8.1-7 20.8 1.2 28.3l94.2 86.8L502 363l-102.8-59.4-27.5-122.5c-2.4-10.8-13.1-17.6-23.9-15.1-10.8 2.4-17.6 13.1-15.1 23.9l19.4 86.5-91.9-53.1c-9.6-5.5-21.8-2.2-27.3 7.3-5.5 9.6-2.2 21.8 7.3 27.3l93.1 53.8-86.6 27.1c-10.5 3.3-16.4 14.5-13.1 25.1 2.7 8.6 10.6 14 19.1 14 2 0 4-0.3 6-0.9l121.8-38.1 100.5 58-102.4 59.1-119.8-37.4c-10.5-3.3-21.8 2.6-25.1 13.1-3.3 10.5 2.6 21.8 13.1 25.1l84.6 26.4-91.9 53.1c-9.6 5.5-12.8 17.8-7.3 27.3 3.7 6.4 10.4 10 17.3 10 3.4 0 6.8-0.9 10-2.7l93.1-53.8-19.9 88.5c-2.4 10.8 4.4 21.5 15.1 23.9 1.5 0.3 2.9 0.5 4.4 0.5 9.2 0 17.4-6.3 19.5-15.6l27.9-124.5 102.4-59.1 0 118.1-94.2 86.8c-8.1 7.5-8.6 20.1-1.2 28.3 7.5 8.1 20.1 8.6 28.3 1.2l67.1-61.8 0 106.4c0 11 8.9 20 20 20s20-9 20-20L541.9 605.5l64.9 59.8c3.8 3.5 8.7 5.3 13.5 5.3 5.4 0 10.8-2.2 14.7-6.5 7.5-8.1 7-20.8-1.2-28.3L541.9 551.1z" fill="#272636" p-id="2171"></path><path d="M361.3 760.7c-5.5-9.6-17.8-12.8-27.3-7.3l-66.4 38.3 0-77.8c0-11-9.4-20-20.5-20s-20.5 9-20.5 20l0 78.8-68.2-39.4c-9.6-5.5-21.8-2.2-27.3 7.3-5.5 9.6-2.2 21.8 7.3 27.3l67.7 39.1-67.5 38.9c-9.6 5.5-12.8 17.8-7.3 27.3 3.7 6.4 10.4 10 17.3 10 3.4 0 6.8-0.9 10-2.7l67.9-39.2 0 76.5c0 11 9.4 20 20.5 20s20.5-9 20.5-20l0-75.4 66.1 38.2c3.2 1.8 6.6 2.7 10 2.7 6.9 0 13.6-3.6 17.3-10 5.5-9.6 2.2-21.8-7.3-27.3l-67.5-38.9 67.7-39.1C363.6 782.5 366.9 770.2 361.3 760.7z" fill="#272636" p-id="2172"></path><path d="M884.8 866l-67.5-38.9 67.7-39.1c9.6-5.5 12.8-17.8 7.3-27.3-5.5-9.6-17.8-12.8-27.3-7.3l-67.4 38.9 0-78.4c0-11-8.9-20-20-20s-20 9-20 20l0 78.8-68.2-39.4c-9.6-5.5-21.8-2.2-27.3 7.3-5.5 9.6-2.2 21.8 7.3 27.3l67.7 39.1-67.5 38.9c-9.6 5.5-12.8 17.8-7.3 27.3 3.7 6.4 10.4 10 17.3 10 3.4 0 6.8-0.9 10-2.7l67.9-39.2 0 76.5c0 11 8.9 20 20 20s20-9 20-20l0-76 67.1 38.7c3.2 1.8 6.6 2.7 10 2.7 6.9 0 13.6-3.6 17.3-10C897.7 883.8 894.4 871.6 884.8 866z" fill="#272636" p-id="2173"></path></svg>