<svg xmlns="http://www.w3.org/2000/svg" viewBox="0 0 1024 1024" version="1.1"><path d="M900.4 601.7c1-15.3 1.6-31 1.6-47.3 0-89.5-36.5-174.9-102.7-240.4-47.8-47.3-108.5-81.3-174.7-99.1-0.3-0.1-0.5-0.2-0.8-0.3-92.3-22.1-206.8-13.5-248.4-26.1-47.1-14.3-82.5-42.6-108.2-86.6C251.8 75.7 232.1 77.7 224.4 79.7c-34.4 9.2-50.1 70.9-50.5 128-0.3 49.5 10.3 98.9 30.3 142.8-2.3 1.3-4.4 3.1-6.1 5.4-44.5 59.9-68 131.1-68 206.1 0 13.5 0.5 26.7 1.5 39.6-43.7 13.8-71.2 59.2-62.3 105.9 4.7 24.5 18.5 45.6 39 59.4 15.1 10.2 32.4 15.4 50.1 15.4 5.9 0 11.8-0.6 17.6-1.7 2.8-0.6 5.3-1.7 7.5-3.2 14 23.5 30.6 44.9 49.8 63.9 35.3 34.9 78.6 61.5 128.8 79 46.2 16.2 97.3 24.4 151.8 24.4 1.9 0 3.8-0 5.7-0 163.8-1.7 275.5-57.1 334.1-165.1 1.5 0.7 3.1 1.2 4.8 1.4 5 0.8 9.9 1.2 14.9 1.2 18.7 0 36.9-5.8 52.4-17 20.1-14.4 33.3-36 37.2-60.6C970.2 658.8 942.8 615.2 900.4 601.7zM218.8 158.8c4-19.4 9.6-31.3 13.6-37.1 0 0.1 0.1 0.2 0.1 0.2 69.9 119.7 187.6 119.1 265.5 118.6 4.7-0 90.4 6.1 113.4 12.1 38.4 16.3 66.8 41 82.1 71.6 13.8 27.6 16 58.4 6.1 86.9-12.3 35.5-41.7 63.7-82.7 79.3-49.7 18.9-113.7 18.3-185-1.7-164.3-46.2-205.2-167.6-214.9-235.9C212.3 220.2 213 186.8 218.8 158.8zM130.5 733.8c-11.6-7.8-19.4-19.8-22.1-33.8-4.6-23.9 7.4-47.1 27.8-57.3 5.7 35.7 15.4 68.8 28.9 99.1C153 743.6 140.9 740.7 130.5 733.8zM763.3 829.9c-55.7 48.5-137.9 73.7-244.2 74.8-106.8 1-195.9-30.6-257.8-91.8-60.6-60-91.4-144.4-91.4-250.9 0-63 18.8-123 54.4-174.2 43 67.9 109.2 114.7 196.7 139.3 40.2 11.3 78.5 16.9 114.2 16.9 34.9 0 67.2-5.4 95.8-16.3 52.3-19.9 90-56.6 106.3-103.6 13.3-38.2 10.6-79.5-7.4-116.4 14.6 10.4 28.4 22 41.1 34.6 58.6 58 90.9 133.3 90.9 212C861.9 680.3 828.7 773 763.3 829.9zM923.4 698.4c-2.2 14.1-9.7 26.3-21.1 34.5-9.3 6.7-20.2 9.9-31.3 9.4 11.7-29.8 20.1-62.8 25.1-99.1C915.4 653.1 927.1 675.2 923.4 698.4z" fill="#272636" p-id="1117"></path><path d="M361 619.4c-41.9 0-76 34.6-76 77.2 0 11 9 20 20 20s20-9 20-20c0-20.5 16.2-37.2 36-37.2 19.9 0 36 16.7 36 37.2 0 11 9 20 20 20s20-9 20-20C437 654 402.9 619.4 361 619.4z" fill="#272636" p-id="1118"></path><path d="M685.4 619.4c-41.9 0-76 34.6-76 77.2 0 11 9 20 20 20s20-9 20-20c0-20.5 16.2-37.2 36-37.2s36 16.7 36 37.2c0 11 9 20 20 20 11.1 0 20-9 20-20C761.4 654 727.3 619.4 685.4 619.4z" fill="#272636" p-id="1119"></path></svg>