<svg xmlns="http://www.w3.org/2000/svg" viewBox="0 0 1024 1024" version="1.1"><path d="M827.2 733.9c3.7-11 5.7-22.7 5.7-34.9L832.8 405.5c0-60.7-49.4-110-110-110l-67.8 0 0-121c0-60.7-49.4-110-110-110l-44.2 0c-60.7 0-110 49.4-110 110l0 121-73.3 0c-60.7 0-110 49.4-110 110l0 293.5c0 12.6 2.1 24.7 6.1 36-18.5 5.1-36.6 14-52.1 25.9-28.9 22.1-44.7 50.7-44.7 80.5l0 10.1c0 61.4 49.9 111.3 111.3 111.3l570.1 0c61.4 0 111.3-49.9 111.3-111.3l0-10.1C909.3 790 874.5 746.7 827.2 733.9zM500.7 104.4l44.2 0c25.2 0 47.3 13.4 59.6 33.3L441.1 137.8C453.5 117.8 475.6 104.4 500.7 104.4zM544.9 384.7l-44.2 0c-39.1 0-70-38.9-70-89.2s0-117.8 0-117.8l184.3 0c0 0 0 69 0 117.8S580.8 384.7 544.9 384.7zM247.3 405.5c0-38.6 31.4-70 70-70l75.3 0c9.8 50.7 54.5 89.2 108.1 89.2l44.2 0c53.6 0 98.3-38.5 108.1-89.2l69.8 0c38.6 0 70 31.4 70 70l0 293.5c0 38.6-31.4 70-70 70l-31.2 0c-43.1 0-90.9-6-109.2-31.3-5.4-7.4-7-15.6-7.1-21.8l114.6 0c11 0 19.9-9 19.9-20L709.7 581.9c0-11-8.9-20-20-20s-20 9-20 20l0 94.1-111.7 0c-8.5 0-16 5.3-18.8 13.2-5 14-8.5 44.6 10.2 71.1 2.1 3 4.5 5.9 7 8.6l-63.2 0c2.5-2.7 4.9-5.6 7-8.6 18.7-26.5 15.2-57.2 10.3-71.1-2.8-8-10.4-13.2-18.8-13.2L380.2 676l0-94.1c0-11-9.4-20-20.5-20s-20.5 9-20.5 20l0 114.1c0 11 9.4 20 20.4 20l114.8 0c-0.2 6.1-1.8 14.1-6.9 21.4-18 25.6-79 31.7-109.5 31.7l-40.7 0c-19.2 0-36.6-7.8-49.3-20.3-6.4-6.8-8.8-9.7-12.8-17.4-5.1-9.7-8-20.7-8-32.4L247.3 405.5zM156.6 851.5l0-10.1c0-33.6 40.5-63.8 77.9-70.1 20.2 23.2 49.9 37.8 82.9 37.8l280.3 0c-2 12.2-7.1 21.6-15.4 28.4-24.7 20.2-73.6 15.8-90.3 12.5-5.9-1.2-11.9 0.3-16.6 4.1-4.7 3.8-7.1 9.5-7.1 15.5l0 53.3L227.9 922.8C188.6 922.8 156.6 890.8 156.6 851.5zM869.3 851.5c0 39.3-32 71.3-71.3 71.3L508.1 922.8l0-30.6c5.1 0.4 12.3 0.7 19.4 0.6 33.9-0.4 60.6-8.6 79.9-24.3 17.8-14.5 28.1-34.5 30.6-59.5l84.8 0c33.4 0 63.3-14.9 83.5-38.5 35.4 4.1 63 34.3 63 70.8L869.3 851.5z" fill="#272636" p-id="1130"></path></svg>