<svg xmlns="http://www.w3.org/2000/svg" viewBox="0 0 1024 1024" version="1.1"><path d="M308.2 414.2c-37.4 0-67.9 30.4-67.9 67.9s30.4 67.9 67.9 67.9c37.4 0 67.9-30.4 67.9-67.9S345.6 414.2 308.2 414.2zM308.2 510c-15.4 0-27.9-12.5-27.9-27.9 0-15.4 12.5-27.9 27.9-27.9 15.4 0 27.9 12.5 27.9 27.9C336.1 497.5 323.6 510 308.2 510z" fill="#272636" p-id="1782"></path><path d="M555.4 259.8c51.4 0 93.3-41.8 93.3-93.3 0-51.4-41.8-93.3-93.3-93.3-51.4 0-93.3 41.8-93.3 93.3C462.1 218 504 259.8 555.4 259.8zM555.4 113.3c29.4 0 53.2 23.9 53.2 53.2 0 29.4-23.9 53.2-53.2 53.2-29.4 0-53.2-23.9-53.2-53.2C502.2 137.2 526.1 113.3 555.4 113.3z" fill="#272636" p-id="1783"></path><path d="M962 565.8c0-165.9-116.8-295.6-277.8-308.6-1.7-0.2-3.5-0.4-5.2-0.7-7.8-1-15.8-2.1-24.3-2.7-8-0.6-15.5 3.7-19.2 10.9l-26.1 51.1L501.6 315.8l-27-54.9c-3.4-6.8-10.3-11.2-17.9-11.2-21.9 0-42.5 1.1-62 3.3l-104.1-75.8c-5-3.7-11.5-4.8-17.5-3-6 1.8-10.8 6.3-13 12.1l-63.4 168.3c-0.1 0.4-0.2 0.7-0.4 1.1-24.5 32-44.3 72.7-61.7 125.6L80.1 491.7c-9.4 1.8-16.1 10-16.1 19.7L64 641.1c0 6.7 3.3 13 8.9 16.7l61.5 40.8c25.5 62.1 88.3 109.7 153.8 118l0 107.5c0 11 8.5 20.2 19.5 20.2L431.7 944.1c11 0 20.1-9.1 20.1-20.2l0-35.1c31.7 9.8 57.2 15.5 102 15.5 38.6 0 64.8-4.2 93.4-11.4l0 30.9c0 11 9.5 20.2 20.5 20.2l126 0c11 0 20.2-9.1 20.2-20.2l0-99.7c94.1-46.2 146.9-136.3 147.8-255.3C962.1 567.9 962 566.9 962 565.8zM288.3 225.1l52.1 37.9c-29.5 7.7-55.7 18.7-78.8 33.1L288.3 225.1zM921.8 565.8c0 53.5-11.3 100.1-33.7 138.5-23 39.5-57.3 69.4-102.1 88.7-7.3 3.2-11.9 10.4-11.9 18.4l0 92.8-86 0 0-37c0-6.2-3.1-12.1-8-15.9-4.9-3.8-11.5-5.1-17.5-3.5-39.8 10.5-64.4 16.5-108.6 16.5-48.1 0-69.3-6.8-111.6-20.4l-4.6-1.5c-6.1-2-12.7-0.9-17.8 2.9-5.2 3.8-8.1 9.8-8.1 16.2l0 42.7-83.9 0 0-106.5c0-11-9.1-20-20.1-20-57.3 0-118.3-43.6-138.6-99.2-1.5-4-4.1-7.5-7.7-9.8l-57.7-38.3L103.9 528l50-9.5c7.3-1.4 13-6.7 15.2-13.7 23.6-75.9 51.3-124.5 89.8-157.4 32.7-27.9 75.4-45.5 129.4-53.2 2.8 0.2 5.6-0.1 8.2-1.1 15.1-1.8 31-2.9 47.8-3.3l27 54.7c3.4 6.8 10.3 11.1 17.9 11.1l132.4 0c7.5 0 14.4-4.2 17.8-10.9l25.5-49.8c3 0.4 5.9 0.8 8.8 1.1 2 0.3 3.9 0.5 5.9 0.8 0.3 0 0.6 0.1 1 0.1 68.6 5.4 130.5 35.7 174.3 85.2 42.7 48.2 66.5 112.3 67.1 180.6C921.9 563.8 921.8 564.8 921.8 565.8z" fill="#272636" p-id="1784"></path></svg>