<svg xmlns="http://www.w3.org/2000/svg" viewBox="0 0 1024 1024" version="1.1"><path d="M311.1 155.6c-38.1 0-69.1 31-69.1 69.1l0 132 138.1 0L380.2 224.7C380.2 186.6 349.2 155.6 311.1 155.6zM339.3 315.8l-55.3 0 0-91.1c0-15.4 12.3-27.9 27.6-27.9s27.6 12.5 27.6 27.9L339.3 315.8z" fill="#272636" p-id="588"></path><path d="M503.5 155.6c-38.1 0-69.1 31-69.1 69.1l0 132 138.1 0L572.6 224.7C572.6 186.6 541.6 155.6 503.5 155.6zM531.6 315.8l-56.3 0 0-91.1c0-15.4 12.8-27.9 28.1-27.9 15.4 0 28.1 12.5 28.1 27.9L531.6 315.8z" fill="#272636" p-id="589"></path><path d="M311.1 401.1c-38.1 0-69.1 31-69.1 69.1l0 295.8 138.1 0L380.2 470.3C380.2 432.1 349.2 401.1 311.1 401.1zM339.3 724.1l-55.3 0L284 470.3c0-15.4 12.3-27.9 27.6-27.9s27.6 12.5 27.6 27.9L339.3 724.1z" fill="#272636" p-id="590"></path><path d="M503.5 401.1c-38.1 0-69.1 31-69.1 69.1l0 295.8 138.1 0L572.6 470.3C572.6 432.1 541.6 401.1 503.5 401.1zM531.6 724.1l-56.3 0L475.4 470.3c0-15.4 12.8-27.9 28.1-27.9 15.4 0 28.1 12.5 28.1 27.9L531.6 724.1z" fill="#272636" p-id="591"></path><path d="M939.1 829.5l-49.3 0L889.8 279.4c0-62.6-49.1-114-111.7-114L667.6 165.4c-8-54.2-55.3-97.2-112.3-97.2L262.3 68.2c-62.6 0-114.4 51.7-114.4 114.3l0 647.1-61 0c-11.4 0-21.9 10-21.9 21.4l0 86.7c0 11.4 10.5 19.8 21.9 19.8l852.2 0c11.4 0 19.3-8.4 19.3-19.8l0-86.7C958.4 839.5 950.5 829.5 939.1 829.5zM848.9 279.4l0 550.1-181.1 0 0-623.2 110.4 0C818 206.3 848.9 239.6 848.9 279.4zM188.8 182.4c0-39.8 33.7-73.3 73.5-73.3l293 0c39.8 0 70.5 33.5 70.5 73.3l0 647.1-437 0L188.8 182.4zM917.4 916.5l-811.5 0 0-46 811.5 0L917.4 916.5z" fill="#272636" p-id="592"></path></svg>