<svg xmlns="http://www.w3.org/2000/svg" viewBox="0 0 1024 1024" version="1.1"><path d="M512.5 958.4c-119.3 0-231.5-46.5-315.9-130.8C112.3 743.2 65.8 631 65.8 511.7c0-119.3 46.5-231.5 130.8-315.9C281 111.4 393.2 65 512.5 65s231.5 46.5 315.9 130.8c84.4 84.4 130.8 196.6 130.8 315.9 0 119.3-46.5 231.5-130.8 315.9C744 911.9 631.8 958.4 512.5 958.4zM512.5 106c-223.7 0-405.7 182-405.7 405.7s182 405.7 405.7 405.7c223.7 0 405.7-182 405.7-405.7S736.2 106 512.5 106z" fill="#272636" p-id="614"></path><path d="M510.2 776c-18.1 0-32.7-14.7-32.7-32.8L477.4 452.2c0-18.1 14.6-32.8 32.7-32.8 18.1 0 32.7 14.7 32.7 32.8l0 291C542.9 761.3 528.3 776 510.2 776z" fill="#272636" p-id="615"></path><path d="M511.4 296.5m-45.1 0a44.1 44.1 0 1 0 90.2 0 44.1 44.1 0 1 0-90.2 0Z" fill="#272636" p-id="616"></path></svg>