<svg xmlns="http://www.w3.org/2000/svg" viewBox="0 0 1024 1024" version="1.1"><path d="M659.6 287.7c-39.9-28-89.5-33.8-124.1-33.8L429.4 253.9c-11.3 0-20.5 9.2-20.5 20.5l0 512.3c0 11.3 9.2 20.5 20.5 20.5 11.3 0 20.5-9.2 20.5-20.5L449.9 579.7l85.6 0c48.3 0 92.7-13.7 124.9-38.6 38.7-29.8 59.2-74.3 59.2-128.5C719.6 358.4 698.9 315.3 659.6 287.7zM535.5 538.7l-85.6 0L449.9 294.9l85.6 0c28.7 0 69.5 4.6 100.6 26.4 28.2 19.8 42.6 50.5 42.6 91.3C678.6 505.6 604.7 538.7 535.5 538.7z" fill="#272636" p-id="883"></path><path d="M827.9 196.1C743.5 111.8 631.3 65.3 512 65.3c-119.3 0-231.5 46.5-315.9 130.8S65.3 392.7 65.3 512s46.5 231.5 130.8 315.9 196.6 130.8 315.9 130.8c119.3 0 231.5-46.5 315.9-130.8S958.7 631.3 958.7 512 912.2 280.5 827.9 196.1zM512 917.7c-223.7 0-405.7-182-405.7-405.7S288.3 106.3 512 106.3s405.7 182 405.7 405.7S735.7 917.7 512 917.7z" fill="#272636" p-id="884"></path></svg>