<svg xmlns="http://www.w3.org/2000/svg" viewBox="0 0 1024 1024" version="1.1"><path d="M845.1 113.6 179.9 113.6c-62.6 0-113.6 51-113.6 113.6l0 200.4c0 11.4 9.2 20.7 20.7 20.7l160.1 0 0 116.4-75.4 0c-63 0-105.4 55.4-105.4 107.2l0 121.4c0 11.4 9.2 20.7 20.7 20.7l88.9 0c5.5 46.5 45.1 82.6 93 82.6 47.9 0 87.5-36.2 93-82.6l301.3 0c5.5 46.5 45.1 82.6 93 82.6s87.5-36.2 93-82.6l88.9 0c11.4 0 20.7-9.2 20.7-20.7L958.7 227.2C958.7 164.6 907.7 113.6 845.1 113.6zM917.4 227.2l0 51.6L780 278.8 780 154.9l65 0C885 154.9 917.4 187.4 917.4 227.2zM288.4 278.8 288.4 154.9l121.9 0 0 123.9L288.4 278.8zM451.6 154.9l123.9 0 0 123.9L451.6 278.8 451.6 154.9zM616.8 154.9l121.9 0 0 123.9L616.8 278.8 616.8 154.9zM179.9 154.9l67.2 0 0 123.9L107.6 278.8l0-51.6C107.6 187.4 140 154.9 179.9 154.9zM107.6 320.1l809.8 0 0 86.8-809.8 0.1L107.6 320.1zM738.7 563.9 616.8 563.9 616.8 448.2l121.9 0L738.7 563.9zM289.4 448.2l120.9 0 0 115.7L289.4 563.9 289.4 448.2zM451.6 448.2l123.9 0 0 115.7L451.6 563.9 451.6 448.2zM107.6 671.9c0-43 37.2-65.9 64.1-65.9l567-0.8 0 105.7c-33.3 6.3-60.4 30.2-71.2 61.7L357.5 772.6c-12.6-36.8-47.6-63.4-88.6-63.4-41 0-76 26.5-88.6 63.4L107.6 772.6 107.6 671.9zM268.9 855.2c-28.9 0-52.3-23.5-52.3-52.3 0-28.9 23.5-52.3 52.3-52.3s52.3 23.5 52.3 52.3C321.2 831.7 297.7 855.2 268.9 855.2zM756.1 855.2c-28.9 0-52.3-23.5-52.3-52.3 0-28.9 23.5-52.3 52.3-52.3s52.3 23.5 52.3 52.3C808.5 831.7 785 855.2 756.1 855.2zM844.7 772.6c-10.1-29.4-34.4-52.2-64.7-60.2L780 448.2l137.4 0 0 324.4L844.7 772.6z" fill="#272636" p-id="732"></path></svg>