<svg xmlns="http://www.w3.org/2000/svg" viewBox="0 0 1024 1024" version="1.1"><path d="M781 702.3c-16.8 0-34.5-1.7-52.9-5.1-85.8-15.8-151.3-83-213.4-152.3-62.7 69.6-129.1 136.5-217.6 152.3-70.7 12.6-130.7 0.4-173.5-35.4-40.2-33.6-61.4-85.2-61.4-149.2 0-64.5 21.7-116.6 62.8-150.5 43.2-35.7 102.8-47.4 172.3-34 87.8 16.9 154.2 86.1 217.3 156.7 62.2-69.6 127.4-138.6 212.9-156.6l0 0c67.5-14.3 128.3-3 171.1 31.7 41.6 33.7 64.4 87.9 64.4 152.8 0 64.3-21.4 116.1-61.9 149.8C869.6 688.8 828.7 702.3 781 702.3zM541.6 514.9c60.7 67.9 119.4 129.3 193.8 143 58.3 10.7 106.8 1.7 140.3-26.2 31-25.9 47.5-67 47.5-119 0-53.3-17.2-95.4-49.6-121.7-33.7-27.4-81.3-35.5-137.6-23.6C661.4 383 602.8 446.3 541.6 514.9zM244 362.7c-37.4 0-69.1 10.2-93.4 30.2-31.6 26.1-48.3 67.5-48.3 119.7 0 51.7 16.3 92.7 47.1 118.5 33.4 28 82.1 37.2 140.8 26.7 77.2-13.8 136.8-74.9 197.8-143C426.1 445.4 366.4 382.1 289.9 367.4 273.8 364.3 258.5 362.7 244 362.7z" fill="#272636" p-id="2199"></path></svg>