<svg xmlns="http://www.w3.org/2000/svg" viewBox="0 0 1024 1024" version="1.1"><path d="M803.1 637.4 224.7 637.4c-88.3 0-160.1-71.8-160.1-160 0-72.8 49.6-136 118.3-154.5-0.1-1.9-0.1-3.8-0.1-5.7 0-61.2 49.8-111 111-111 22.8 0 44.7 6.9 63 19.6C397.5 141.4 483.5 86.4 579.1 86.4c131.7 0 239.6 103.5 246.7 233.3 34.6 5 66.4 21.2 91.2 46.5 29.4 30 45.6 69.6 45.6 111.6 0 42.6-16.8 82.7-47.3 113C885.1 620.9 845.2 637.4 803.1 637.4zM293.7 246.2c-39.1 0-71 31.8-71 71 0 5.6 0.7 11.3 2 16.8 1.3 5.5 0.3 11.3-2.9 16-3.2 4.7-8.2 7.8-13.8 8.6-59 8.1-103.5 59.2-103.5 118.8 0 66.2 53.9 120 120.1 120l578.5 0c31.4 0 61.3-12.4 84-35 22.9-22.7 35.5-52.8 35.5-84.6 0-31.4-12.1-61.1-34.2-83.6-22-22.4-51.4-35.3-82.8-36.1-11-0.3-19.7-9.4-19.5-20.4 0-0.6-0-1.2-0-1.7-0-0.8-0-1.7-0-2.5 0-114.1-92.9-207-207.1-207-88.5 0-167.2 56.2-195.9 139.8-2.4 6.9-8.3 11.9-15.4 13.2-7.2 1.3-14.4-1.4-19-7.1C335.2 255.8 315.1 246.2 293.7 246.2z" fill="#272636" p-id="2233"></path><path d="M452.3 938.3c-56.2 0-101.9-45.7-101.9-101.9 0-56.2 45.7-101.9 101.9-101.9 56.2 0 101.9 45.7 101.9 101.9C554.2 892.6 508.5 938.3 452.3 938.3zM452.3 774.5c-34.1 0-61.9 27.8-61.9 61.9 0 34.1 27.8 61.9 61.9 61.9 34.1 0 61.9-27.8 61.9-61.9C514.2 802.3 486.4 774.5 452.3 774.5z" fill="#272636" p-id="2234"></path><path d="M648 805c-43.9 0-79.6-35.7-79.6-79.6s35.7-79.6 79.6-79.6c43.9 0 79.6 35.7 79.6 79.6S691.9 805 648 805zM648 685.9c-21.8 0-39.5 17.7-39.5 39.5s17.7 39.5 39.5 39.5c21.8 0 39.5-17.7 39.5-39.5S669.9 685.9 648 685.9z" fill="#272636" p-id="2235"></path></svg>