<svg xmlns="http://www.w3.org/2000/svg" viewBox="0 0 1024 1024" version="1.1"><path d="M909.1 169.5l-217.6 0 0-31.3c0-39.6-32.2-71.8-71.8-71.8L408.2 66.3c-39.6 0-71.8 32.2-71.8 71.8l0 31.3L113.3 169.5c-11 0-19.9 8.9-19.9 20s8.9 20 19.9 20l84.3 0 0 640.7c0 60.5 49.2 109.7 109.7 109.7l416.5 0c60.5 0 109.7-49.2 109.7-109.7L833.5 209.4l75.6 0c11 0 19.9-8.9 19.9-20S920.1 169.5 909.1 169.5zM376.2 138.1c0-17.6 14.3-31.9 31.9-31.9l211.5 0c17.6 0 31.9 14.3 31.9 31.9l0 31.3L376.2 169.5 376.2 138.1zM793.6 850.1c0 38.5-31.3 69.8-69.8 69.8L307.3 919.9c-38.5 0-69.8-31.3-69.8-69.8L237.5 211l556.1 0L793.6 850.1z" fill="#272636" p-id="1141"></path><path d="M510.7 861.3c11 0 20-8.9 20-19.9L530.6 294.9c0-11-8.9-19.9-20-19.9s-20 8.9-20 19.9L490.7 841.3C490.7 852.3 499.6 861.3 510.7 861.3z" fill="#272636" p-id="1142"></path><path d="M374.6 801.4c11 0 20-8.9 20-19.9L394.5 354.7c0-11-8.9-19.9-20-19.9s-20 8.9-20 19.9l0 426.8C354.6 792.5 363.5 801.4 374.6 801.4z" fill="#272636" p-id="1143"></path><path d="M649.8 801.4c11 0 20-8.9 20-19.9L669.8 354.7c0-11-8.9-19.9-20-19.9s-20 8.9-20 19.9l0 426.8C629.9 792.5 638.8 801.4 649.8 801.4z" fill="#272636" p-id="1144"></path></svg>