<svg xmlns="http://www.w3.org/2000/svg" viewBox="0 0 1024 1024" version="1.1"><path d="M940.5 454 678 454 678 196.1l268.9-84.8c10.5-3.3 16.4-14.6 13.1-25.1-3.3-10.5-14.6-16.4-25.1-13.1l-796.3 251.2c-10.5 3.3-16.4 14.6-13.1 25.1 2.7 8.5 10.6 14 19.1 14 2 0 4-0.3 6-0.9l75.1-23.7 0 115.1L84.5 454c-11 0-20 8.9-20 19.9 0 127.8 39.9 245.5 112.4 331.5 81.1 96.3 197.2 147.2 335.6 147.2s254.5-50.9 335.6-147.2c72.5-86 112.4-203.7 112.4-331.5C960.5 462.8 951.5 454 940.5 454zM638.1 454l-62.4 0L575.6 228.4l62.4-19.7L638.1 454zM370 454l0-160.6 61.4-19.4 0 180L370 454zM471.3 261.4l64.5-20.3 0 212.9-64.5 0L471.3 261.4zM265.6 326.3l64.5-20.3 0 148-64.5 0L265.6 326.3zM817.5 779.6C744.2 866.7 638.7 912.6 512.5 912.6s-231.7-46-305-133c-62.6-74.4-98.7-175.3-102.6-285.8l815.2 0C916.2 604.4 880.1 705.3 817.5 779.6z" fill="#272636" p-id="1923"></path></svg>