<svg xmlns="http://www.w3.org/2000/svg" viewBox="0 0 1024 1024" version="1.1"><path d="M959.9 410.5c-2.4-7.2-8.6-12.5-16.2-13.6l-285.5-41.5L530.7 96.7c-3.4-6.8-10.3-11.2-17.9-11.2-7.6 0-14.6 4.3-17.9 11.2L367.1 355.4 81.7 396.9c-7.5 1.1-13.8 6.4-16.2 13.6s-0.4 15.2 5.1 20.5l206.6 201.3-48.8 284.3c-1.3 7.5 1.8 15.1 8 19.6 6.2 4.5 14.3 5.1 21.1 1.5l255.3-134.2 255.3 134.2c2.9 1.5 6.1 2.3 9.3 2.3 4.1 0 8.3-1.3 11.8-3.8 6.2-4.5 9.2-12.1 8-19.6l-48.8-284.3 206.6-201.3C960.3 425.7 962.3 417.8 959.9 410.5zM712.9 611.1c-4.7 4.6-6.9 11.2-5.8 17.7l43.7 254.7L522 763.2c-2.9-1.5-6.1-2.3-9.3-2.3-0.2 0-0.4 0-0.5 0L512.2 151.9l0.5-1.1 114.4 231.8c2.9 5.9 8.5 10 15.1 10.9l255.8 37.2L712.9 611.1z" fill="#272636" p-id="2010"></path></svg>