<svg xmlns="http://www.w3.org/2000/svg" viewBox="0 0 1024 1024" version="1.1"><path d="M906.8 159.8c-8.6-2.8-18 0.4-23.2 7.7-0.1 0.2-15.1 20-45.1 20-22 0-35.9-11.1-41.8-17l0-36.6c0-7.6-4.2-14.7-10.9-18.3-1-0.5-24.5-13.1-65.7-25.5C682.4 78.8 622 65.3 547.3 65.3c-94.4 0-163.4 16.5-200.3 28.1l0-7.3c0-11.5-9.3-20.8-20.8-20.8l-87.2 0c-11.5 0-20.8 9.3-20.8 20.8l0 743.9L123.6 829.9c-11.5 0-20.8 9.3-20.8 20.8l0 87.2c0 11.5 9.3 20.8 20.8 20.8l315.7 0c11.5 0 20.8-9.3 20.8-20.8l0-87.2c0-11.5-9.3-20.8-20.8-20.8l-92.3 0 0-212.8c28.2-9.8 99.9-30.5 204.9-30.5 27.1 0 51.9 1.4 74.3 3.7l0 19.2c0 5.3 2 10.4 5.6 14.2 2.1 2.2 52.2 54.3 147.8 54.3 97.5 0 136.2-54.4 137.8-56.7 2.4-3.5 3.7-7.6 3.7-11.8L921.2 179.5C921.2 170.5 915.4 162.5 906.8 159.8zM418.5 917.2 144.3 917.2l0-45.7 89 0c1.8 0.5 3.7 0.8 5.6 0.8l87.2 0c2 0 3.8-0.3 5.6-0.8l86.7 0L418.5 917.2zM259.8 829.9 259.8 106.8l45.7 0 0 9.9c-0.7 2.1-1.2 4.4-1.2 6.8l0 479.8c0 2.3 0.4 4.6 1.2 6.8l0 219.9L259.8 829.9zM347 573.4 347 137.2c27.9-9.9 98.2-30.4 200.3-30.4 69 0 124.7 12.3 159.3 22.6 22 6.5 38.4 13.2 48.4 17.5L755 573.5c-21.6-6.9-54.6-15.5-98.2-21.5-2.9-1.6-6.3-2.5-9.9-2.5-1.7 0-3.4 0.2-5 0.6-26.6-3.1-56.7-5-90.1-5C454.8 545.1 384.4 561.7 347 573.4zM879.7 601.9c-9.9 10.2-39.9 34.6-100 34.6-61.1 0-98.4-25.1-111.9-36.2l0-4.6c63.4 10.4 98.4 26 99.3 26.4 6.4 3 13.9 2.5 19.9-1.4 6-3.8 9.6-10.4 9.6-17.5l0-383.2c11.3 5.2 25.3 8.9 41.8 8.9 16.3 0 30-3.6 41.2-8.5L879.7 601.9z" fill="#272636" p-id="837"></path></svg>