<svg xmlns="http://www.w3.org/2000/svg" viewBox="0 0 1024 1024" version="1.1"><path d="M512 65.3c-173.6 0-314.9 138.3-314.9 308.3 0 77.6 31 185 85.1 294.7 53.7 109 124.9 209.3 195.2 275.4 9 9.6 21.5 15.1 34.6 15.1 12.9 0 25.4-5.4 34.3-14.7 149.5-140 280.6-406.4 280.6-570.4C826.9 203.6 685.6 65.3 512 65.3zM517.5 914.1l-1.1 1.1c-0.8 0.9-2.2 2-4.3 2-2.2 0-3.7-1.3-4.4-2l-1.3-1.3C366.2 782.6 238.6 525 238.6 373.6c0-147.1 122.7-266.8 273.4-266.8 150.8 0 273.4 119.7 273.4 266.8C785.4 525.5 657.7 783.1 517.5 914.1z" fill="#272636" p-id="661"></path><path d="M513 181.6c-91.1 0-165.2 74.1-165.2 165.2 0 91.1 74.1 165.2 165.2 165.2 91.1 0 165.2-74.1 165.2-165.2C678.2 255.7 604.1 181.6 513 181.6zM513 470.5c-68.2 0-123.7-55.5-123.7-123.7 0-68.2 55.5-123.7 123.7-123.7 68.2 0 123.7 55.5 123.7 123.7C636.7 415 581.3 470.5 513 470.5z" fill="#272636" p-id="662"></path></svg>