<svg xmlns="http://www.w3.org/2000/svg" viewBox="0 0 1024 1024" version="1.1"><path d="M848.8 805.6c71-81.3 109.8-184.2 109.8-293.1 0-119.2-46.4-231.3-130.7-315.6C744.9 113.9 634.9 67.6 517.8 66.2c-1.9-0.6-10.3-0.6-12.2 0C388.9 67.9 279.4 114.2 196.7 196.9 113.9 279.7 67.6 389.5 66.1 506.4c-0.4 1.6-0.4 8.6-0 10.2 1.1 117.6 47.4 228.1 130.7 311.4 84.3 84.3 196.4 130.7 315.6 130.7 119.2 0 231.3-46.4 315.6-130.7 6.1-6.1 12.1-12.4 17.8-18.9 0.5-0.5 1-0.9 1.5-1.4C847.8 807 848.3 806.3 848.8 805.6zM107.4 532l187.5 0c1.3 65.7 9.3 127.3 22.5 182.1-61.7 16.7-100.8 38.4-121.1 51.9C144.3 701.3 111.7 620.4 107.4 532zM195.9 259.4c20.1 13.6 59.2 35.5 121.3 52.3-13 54.1-20.8 114.8-22.2 179.4L107.5 491.1C112.1 403.7 144.4 323.6 195.9 259.4zM917.1 491.1 729.6 491.1c-1.4-64.6-9.2-125.3-22.2-179.4 62-16.7 101.2-38.4 121.6-52C880.3 323.9 912.5 403.9 917.1 491.1zM688.7 491.1 532.2 491.1 532.2 335.1c52.2-1.1 97.1-6.5 135.3-14C680 373.2 687.3 430.9 688.7 491.1zM532.2 294.1 532.2 109.9c36.8 10.4 72.8 49.2 100.9 110 8.8 19 16.6 39.6 23.5 61.5C621.5 288.2 580.3 293.1 532.2 294.1zM491.2 110.3l0 183.8c-47.5-1.1-88.4-6-123.1-12.8 6.8-21.8 14.6-42.4 23.4-61.3C419.4 159.8 454.8 121.2 491.2 110.3zM491.2 335l0 156.1L335.9 491.1c1.4-60.2 8.7-118 21.2-170.1C395 328.5 439.5 333.9 491.2 335zM335.9 532l155.3 0 0 158.7c-51.6 1.2-96 6.6-133.8 14.1C344.6 651.9 337.2 593.2 335.9 532zM491.2 731.7l0 182.9c-36.4-10.9-71.9-49.5-99.7-109.7-8.7-18.8-16.4-39-23.2-60.6C403 737.6 443.8 732.8 491.2 731.7zM532.2 914.9 532.2 731.6c47.9 1 89.1 5.9 124.1 12.7-6.8 21.6-14.5 41.9-23.2 60.7C604.9 865.7 569 904.5 532.2 914.9zM532.2 690.7 532.2 532l156.5 0c-1.3 61.1-8.7 119.7-21.4 172.5C629.2 697 584.3 691.7 532.2 690.7zM729.7 532l187.5 0c-4.2 88.1-36.7 169-88.6 233.6-20.5-13.7-59.6-35.3-121.3-51.9C720.4 659 728.3 597.6 729.7 532zM801.5 228.7c-18.3 11.6-52.3 29.4-104.9 43.5-19.3-63.1-46.1-115-78.1-151C689 140.4 751.8 178.1 801.5 228.7zM406 121.3c-31.9 35.9-58.7 87.8-78 150.7-52.4-14.2-86.4-32.1-104.6-43.6C273.1 177.9 335.8 140.4 406 121.3zM223.9 797c18.3-11.5 52.1-29.2 104.3-43.3 19.3 62.6 46 114.2 77.8 150C336 884.6 273.5 847.2 223.9 797zM618.6 903.6c31.8-35.8 58.5-87.4 77.8-150.1 52 14 86 31.6 104.5 43.2C751.3 847.1 688.7 884.5 618.6 903.6z" fill="#272636" p-id="684"></path></svg>