<svg xmlns="http://www.w3.org/2000/svg" viewBox="0 0 1024 1024" version="1.1"><path d="M825.9 203.2l-93.3 0c-20.2-67.1-59.6-139-135.6-139-76 0-115.7 72-136.2 139l-94.2 0c-63.4 0-117.4 53-117.4 115.3l0 195.8-47.5 0c-63 0-116.2 52.5-116.2 115.3l0 217.5c0 62.3 52.2 113.4 116.2 113.4l375.8 0c3.9 0 7.8-0.2 11.6-0.6 1.5 0.4 3.1 0.6 4.7 0.6l232.2 0c30.4 0 58.4-12.1 78.9-33.6 20-21 31-49.6 31-80.1L935.8 318.5C935.8 254.1 887.6 203.2 825.9 203.2zM597 104.2c40.2 0 71.7 33.3 93.7 99L502.9 203.2C525.1 137.6 556.8 104.2 597 104.2zM125.4 847.1 125.4 629.6c0-41.1 35-75.4 76.3-75.4l65.1 0c0.8 0.2 1.6 0.3 2.4 0.4 2.2 0.2 4.3 0.1 6.3-0.4l228.7 0c1.4 0.3 2.9 0.5 4.4 0.5 0.6 0 1.2-0 1.8-0.1 0.9-0.1 1.8-0.2 2.6-0.4l64.6 0c39.4 0 70.8 32.9 70.8 75.4l0 217.2c0 41.7-30.7 72.7-70.8 72.7L201.7 919.6C159.7 919.6 125.4 887.3 125.4 847.1zM295.2 514.3c2.8-11.5 7.2-26.1 14.2-40.5 18.3-37.5 45.5-56.5 80.9-56.5 35.3 0 62.4 19 80.4 56.4 7 14.4 11.3 29.1 14 40.6L295.2 514.3zM895.9 846.8c0 41.7-30.1 72.7-70 72.7L663 919.6c15.8-19.6 25.2-44.9 25.2-72.7L688.2 629.6c0-30.5-11.2-59-31.2-80.7-20.7-22.5-49.1-34.6-79.5-34.6l-51.9 0c-2.8-14.5-8.3-35.6-18.4-56.9-24.9-52.4-65.3-80.1-117-80.1-41.1 0-75.2 17.6-100.1 51.2L290.1 318.5c0-40.5 34.8-74.3 76.5-74.3l83.7 0c-3.2 15.1-5.5 28.9-7.1 40.4-11.8 6-19.9 18.2-19.9 32.3 0 20 16.2 36.2 36.2 36.2 20 0 36.2-16.2 36.2-36.2 0-11-4.9-20.8-12.7-27.5 1.8-12.6 4.5-28.3 8.3-45.2l210.6 0c3.8 16.7 6.3 32.2 8.1 44.7-8.1 6.6-13.2 16.7-13.2 28 0 20 16.2 36.2 36.2 36.2 20 0 36.2-16.2 36.2-36.2 0-13.8-7.8-25.9-19.2-31.9-1.6-11.5-3.8-25.5-7-40.7l82.9 0c39.2 0 70 32.4 70 74.3L895.9 846.8z" fill="#272636" p-id="1715"></path></svg>