<svg xmlns="http://www.w3.org/2000/svg" viewBox="0 0 1024 1024" version="1.1"><path d="M497.9 464.5c0-37-28.5-66-65-66s-65 29-65 66l0 107.2 130 0L497.9 464.5zM458 531.7l-50.1 0 0-67.3c0-14.6 11-26 25.1-26s25.1 11.4 25.1 26L458 531.7z" fill="#272636" p-id="1862"></path><path d="M675.9 464.5c0-37-28.5-66-65-66s-65 29-65 66l0 107.2 130 0L675.9 464.5zM636 531.7l-50.1 0 0-67.3c0-14.6 11-26 25.1-26s25.1 11.4 25.1 26L636 531.7z" fill="#272636" p-id="1863"></path><path d="M497.9 676.7c0-37-28.5-66-65-66s-65 29-65 66l0 207 130 0L497.9 676.7zM458 843.8l-50.1 0L407.8 676.7c0-14.6 11-26 25.1-26s25.1 11.4 25.1 26L458 843.8z" fill="#272636" p-id="1864"></path><path d="M675.9 676.7c0-37-28.5-66-65-66s-65 29-65 66l0 207 130 0L675.9 676.7zM636 843.8l-50.1 0L585.9 676.7c0-14.6 11-26 25.1-26s25.1 11.4 25.1 26L636 843.8z" fill="#272636" p-id="1865"></path><path d="M935.9 918.5l-62.5 0 0-353.2c0-33.1-26.9-60-60-60L754.4 505.3l0-116.3c0-29.6-21.6-54.3-49.9-59.1l0-48.9c0-33.1-26.9-60-60-60l-10 0 0-26.8c0-33.1-26.9-60-60-60l-34.6 0L539.8 83.8c0-11-8.9-20-20-20s-20 9-20 20l0 50.3-33.9 0c-33.1 0-60 26.9-60 60l0 26.8-10 0c-33.1 0-60 26.9-60 60l0 48.9c-28.3 4.8-49.9 29.5-49.9 59.1l0 116.3-57.2 0c-33.1 0-60 26.9-60 60l0 353.2-71.2 0c-11 0-20 8.9-20 20s9 20 20 20L935.9 958.4c11 0 20-8.9 20-20S946.9 918.5 935.9 918.5zM813.4 545.3c11 0 20 9 20 20l0 353.2L754.4 918.5 754.4 545.3 813.4 545.3zM446 194.1c0-11 9-20 20-20l108.5 0c11 0 20 9 20 20l0 26.8L446 220.9 446 194.1zM375.9 280.9c0-11 9-20 20-20l30 0 188.5 0 30 0c11 0 20 9 20 20l0 48L375.9 329 375.9 280.9zM326.1 389c0-11 9-20 20-20l348.3 0c11 0 20 9 20 20l0 529.5L326.1 918.5 326.1 389zM208.8 565.3c0-11 9-20 20-20l57.2 0 0 373.2-77.2 0L208.8 565.3z" fill="#272636" p-id="1866"></path></svg>