<svg xmlns="http://www.w3.org/2000/svg" viewBox="0 0 1024 1024" version="1.1"><path d="M909.1 920.3 684.5 920.3c-0.2-0.7-0.4-1.4-0.7-2l-50.9-120.1c37-14.9 70.9-36 100.2-62.1l21.5 21.5-24.1 24.1c-7.8 7.8-7.8 20.4 0 28.2 3.9 3.9 9 5.8 14.1 5.8s10.2-1.9 14.1-5.8l76.4-76.4c7.8-7.8 7.8-20.4 0-28.2-7.8-7.8-20.4-7.8-28.2 0l-24.1 24.1-21.4-21.4c50.6-56.6 82.8-129.9 87.2-210.5l28.6 0 0 33.9c0 11 8.9 19.9 19.9 19.9s19.9-8.9 19.9-19.9L917.1 423.6c0-11-8.9-19.9-19.9-19.9s-19.9 8.9-19.9 19.9l0 33.9-28.8 0c-4.8-79.3-36.6-151.4-86.3-207.3l20.7-20.7 24.1 24.1c3.9 3.9 9 5.8 14.1 5.8 5.1 0 10.2-1.9 14.1-5.8 7.8-7.8 7.8-20.4 0-28.2l-76.4-76.4c-7.8-7.8-20.4-7.8-28.2 0-7.8 7.8-7.8 20.4 0 28.2l24.1 24.1-20.7 20.7c-56.4-50.4-129.5-82.5-209.8-86.9L524.1 106.4l33.9 0c11 0 19.9-8.9 19.9-19.9s-8.9-19.9-19.9-19.9L450.3 66.5c-11 0-19.9 8.9-19.9 19.9s8.9 19.9 19.9 19.9l33.9 0 0 28.7c-79.8 4.8-152.4 36.9-208.5 87.1l-21-21 24.1-24.1c7.8-7.8 7.8-20.4 0-28.2-7.8-7.8-20.4-7.8-28.2 0l-76.4 76.4c-7.8 7.8-7.8 20.4 0 28.2 3.9 3.9 9 5.8 14.1 5.8s10.2-1.9 14.1-5.8l24.1-24.1 21 21c-49.6 55.8-81.3 127.9-86.1 207l-30.3 0 0-33.9c0-11-8.9-19.9-19.9-19.9s-19.9 8.9-19.9 19.9l0 107.7c0 11 8.9 19.9 19.9 19.9s19.9-8.9 19.9-19.9L131.2 497.4l30.2 0c4.3 80.5 36.5 153.7 86.9 210.2l-21.7 21.7-24.1-24.1c-7.8-7.8-20.4-7.8-28.2 0-7.8 7.8-7.8 20.4-0 28.2l76.4 76.4c3.9 3.9 9 5.8 14.1 5.8 5.1 0 10.2-1.9 14.1-5.8 7.8-7.8 7.8-20.4 0-28.2l-24.1-24.1 21.8-21.8c30.9 27.5 66.8 49.5 106.2 64.5l-47.7 118.2c-0.2 0.6-0.4 1.1-0.6 1.7L111.2 920.3c-11 0-19.9 8.9-19.9 19.9s8.9 19.9 19.9 19.9l797.9 0c11 0 19.9-8.9 19.9-19.9S920.2 920.3 909.1 920.3zM617.4 761.4l-83.6-197.5c6.5-2.2 12.8-5.1 18.5-8.7l152.7 152.7C679.2 730.3 649.6 748.5 617.4 761.4zM454.9 478.6c0-27.6 22.5-50.1 50.1-50.1 25.6 0 46.7 19.3 49.7 44.1-0.4 1.5-0.6 3.1-0.6 4.8 0 1.9 0.3 3.7 0.8 5.4-2.2 25.6-23.7 45.8-49.9 45.8C477.4 528.7 454.9 506.2 454.9 478.6zM484.2 782.2c-16.5-1.1-32.6-3.5-48.3-7.2l48.3-119.8L484.2 782.2zM524.1 643.6l55.1 130.1c-17.8 4.5-36.2 7.4-55.1 8.6L524.1 643.6zM733.2 679.6 580.7 527.1c5.8-9 10-19 12.3-29.7l215.7 0C804.4 567 776.6 630.4 733.2 679.6zM808.5 457.5l-216.1 0c-2.3-9.5-6.1-18.4-11.1-26.5l152.6-152.6C776.4 327 803.8 389.2 808.5 457.5zM705.7 250.2 553.1 402.7c-8.8-5.6-18.5-9.7-29-12L524.1 175C593.5 179.3 656.6 207 705.7 250.2zM484.2 175.1l0 216c-10 2.4-19.4 6.4-27.8 11.8L304 250.4C352.8 207.4 415.4 179.7 484.2 175.1zM275.8 278.7l152.7 152.7c-4.9 8-8.7 16.8-10.9 26.1L201.5 457.5C206.2 389.3 233.4 327.2 275.8 278.7zM201.3 497.4l215.7 0c2.3 10.6 6.4 20.5 12.1 29.4L276.5 679.3C233.2 630.1 205.6 566.9 201.3 497.4zM304.8 707.5 457.4 554.9c6.3 4 13.2 7.2 20.5 9.5L397.6 763.3C363.3 750.3 331.9 731.3 304.8 707.5zM420.9 812.4c20.5 5.2 41.7 8.5 63.4 9.8l0 30.3-33.9 0c-11 0-19.9 8.9-19.9 19.9s8.9 19.9 19.9 19.9l107.7 0c11 0 19.9-8.9 19.9-19.9s-8.9-19.9-19.9-19.9l-33.9 0 0-30.2c24.4-1.3 48.1-5.2 70.8-11.4l46.4 109.5L377.3 920.3 420.9 812.4z" fill="#272636" p-id="1279"></path></svg>