<svg xmlns="http://www.w3.org/2000/svg" viewBox="0 0 1024 1024" version="1.1"><path d="M798.8 238.5l-92.1 0c-0.8-2.3-1.7-4.6-2.5-7C663.7 122 597.3 64.2 512.3 64.2c-85 0-151.5 57.8-192.6 167.2-0.9 2.4-1.7 4.7-2.6 7.1l-90.6 0c-60.7 0-110 49.4-110 110l0 502.2c0 60.7 49.4 110 110 110l572.2 0c60.7 0 110-49.4 110-110L908.8 348.5C908.8 287.8 859.5 238.5 798.8 238.5zM512.3 104.2c78.7 0 124.9 65.5 151.6 134.3L360 238.5C387.1 169.7 433.6 104.2 512.3 104.2zM868.8 850.7c0 38.6-31.4 70-70 70L226.6 920.7c-38.6 0-70-31.4-70-70L156.6 348.5c0-38.6 31.4-70 70-70l78 0c-9.7 35.3-15.1 67-17.9 87.8-14.6 6.5-24.8 21.1-24.8 38.2 0 23.1 18.7 41.7 41.7 41.7 23.1 0 41.7-18.7 41.7-41.7 0-14.5-7.4-27.3-18.7-34.8 3-21.6 8.9-55.1 19.6-91.2l331.2 0c10.4 35.9 16.2 69.2 19.1 90.8-11.6 7.4-19.3 20.4-19.3 35.2 0 23.1 18.7 41.7 41.7 41.7 23.1 0 41.7-18.7 41.7-41.7 0-16.8-9.9-31.2-24.1-37.8-2.7-20.8-7.9-52.7-17.5-88.1l79.7 0c38.6 0 70 31.4 70 70L868.8 850.7z" fill="#272636" p-id="1726"></path></svg>