<svg xmlns="http://www.w3.org/2000/svg" viewBox="0 0 1024 1024" version="1.1"><path d="M104.6 780.1c-11 0.1-19.9 9.1-19.8 20.1 0.1 11 9 19.9 20 19.9 0 0 0-0 0 0 0.3 0 25.9 0.1 62 12.2 48.2 16.1 91.3 44.8 128.2 85.2 3.9 4.3 9.4 6.5 14.8 6.5 4.8 0 9.6-1.7 13.5-5.2 8.2-7.4 8.7-20.1 1.3-28.3C224 780.4 109.5 780.1 104.6 780.1z" fill="#272636" p-id="1565"></path><path d="M889 781.7c-8.2-0.6-145.1-8-253.9 108.7-7.5 8.1-7.1 20.7 1 28.3 3.9 3.6 8.8 5.4 13.6 5.4 5.4 0 10.7-2.1 14.6-6.4 40.7-43.7 90.5-73.2 147.8-87.5 42.6-10.7 72.8-8.6 74.1-8.5 0.5 0 1 0.1 1.5 0.1 11 0 20-9 20-20C907.7 791 899.4 782.3 889 781.7z" fill="#272636" p-id="1566"></path><path d="M939.1 537.8c-27.7-67.5-89.4-129.3-138.1-174.6 47.3-30.3 81.8-71.3 102.7-122 3.3-8.1 1-17.4-5.7-23-58.9-49-142.4-91.1-235.2-118.6-96.9-28.7-194.2-38-274-26.1-86.1 12.8-151.9 49.9-190.4 107.5-0.7 0.8-1.3 1.7-1.9 2.6-5 7.9-19.6 39.9-21.2 43.5-3.1 6.9-7.6 16.7-11 24.9-1.6 3.8-2.8 6.8-3.6 9-0.7 2.1-1.2 4-1.5 5.9-6.9 26.7-8.5 54.4-4.8 82.6-0.2 1.3-0.4 2.6-0.4 4 0 3.4 1.3 84.8 40.7 199.6 23 67.2 54.4 131.9 93.4 192.5 48.6 75.7 109.1 145 179.8 206.1 3.8 3.3 8.4 4.9 13.1 4.9 5.6 0 11.2-2.4 15.2-6.9 7.2-8.4 6.3-21-2.1-28.2-67.5-58.3-125.2-124.4-171.6-196.4-37.1-57.7-67.2-119.3-89.2-183.2-5.5-15.9-10.3-31.4-14.4-46.3C322 633.2 518.7 733.6 657.3 752.8c0.9 0.1 1.8 0.2 2.8 0.2 6.8 0 13.2-3.4 16.9-9.2 36-56.4 48.6-116 36.2-159.2 125.2 6.5 209.4-19 213.3-20.1 5.4-1.7 9.8-5.5 12.2-10.6C941.1 548.8 941.2 543 939.1 537.8zM215.7 213.2c-3 0.3-6.1-0.2-9.3-1.5C209.4 213 212.6 213.5 215.7 213.2zM195.3 259.6c-0.9-1.3-1.9-2.5-3.1-3.6C193.4 257.2 194.5 258.4 195.3 259.6zM680.4 542c-8.3-0.8-16.3 3.6-19.9 11.2-3.7 7.5-2.3 16.5 3.5 22.6 23.2 24.4 16.9 81.1-14.1 135.4-68-11.7-147.6-42.7-220.6-86.2-82.4-49.1-150.4-110.1-191.5-171.8-41.1-61.8-54.5-121.4-39.7-177.2 0.2-0.7 0.3-1.4 0.4-2.2 3.9-11.1 25.9-58.6 31.3-68.2 0.4-0.5 0.7-1 1.1-1.5 32.4-49.3 87.5-80 163.8-91.3 74.2-11 165.4-2.2 256.7 24.9 80.3 23.8 155.6 60.4 209.2 101.6-21.4 43.6-55.8 77.9-102.4 102.2-5.8 3-9.7 8.7-10.6 15.1-0.8 6.5 1.5 12.9 6.3 17.4 42.8 39.2 105.3 96.4 138.1 157.6C855.7 539.5 778.3 551.6 680.4 542z" fill="#272636" p-id="1567"></path></svg>