<svg xmlns="http://www.w3.org/2000/svg" viewBox="0 0 1024 1024" version="1.1"><path d="M664.3 328.9c0-82.8-67.3-150.1-150.1-150.1-82.7 0-150.1 67.3-150.1 150.1 0 82.7 67.3 150 150.1 150C597 478.9 664.3 411.6 664.3 328.9zM404.2 328.9c0-60.7 49.4-110.1 110-110.1 60.7 0 110 49.4 110 110.1 0 60.7-49.4 110-110 110C453.6 438.9 404.2 389.5 404.2 328.9z" fill="#272636" p-id="1748"></path><path d="M854.8 740.8c-45.6-18-105.6-31.8-175-40.4 71.2-117.4 120.3-251.5 120.3-347.2 0-154.8-128.6-280.7-286.7-280.7S226.6 198.3 226.6 353.1c0 70.5 28.2 168.1 77.3 267.7 13.4 27.2 28 53.8 43.5 79.3-70.1 8.6-130.7 22.5-176.7 40.6-61.2 24.1-92.2 54-92.2 88.8 0 42.1 47 77.9 135.8 103.5 80 23 185.9 35.7 298.4 35.7 112.4 0 218.4-12.7 298.4-35.7 88.8-25.6 135.8-61.3 135.8-103.5C946.9 794.8 915.9 764.9 854.8 740.8zM266.6 353.1c0-132.7 110.7-240.7 246.7-240.7s246.7 108 246.7 240.7c0 94.2-54.3 233.3-129.3 349.7-1.8 1.8-3.2 4-4.1 6.4-33.4 51-70.8 97.4-109.2 133.2l-1.1 1.1c-0.6 0.6-1.6 1.4-3.1 1.4-1.5 0-2.5-0.8-3.1-1.4l-1.2-1.3C382.2 723.3 266.6 490.2 266.6 353.1zM800 894.6c-76.5 22-178.5 34.1-287.3 34.1-108.8 0-210.8-12.1-287.3-34.1-78.9-22.7-106.8-49.2-106.8-65 0-27.4 78.5-73.4 252.7-91.9 34.6 52 72.4 97.9 109.9 133.2 8.3 8.9 20 14 32.2 14 12 0 23.6-5 31.9-13.7 39.1-36.6 76.7-82.7 110.6-133.3 173 18.6 251 64.4 251 91.7C906.8 845.4 878.9 871.9 800 894.6z" fill="#272636" p-id="1749"></path></svg>