<svg xmlns="http://www.w3.org/2000/svg" viewBox="0 0 1024 1024" version="1.1"><path d="M814.9 729.6c-52.2-15.9-113.7-27.3-179.8-33.6 83.4-122.8 145-275.5 145-379.6 0-144-119.4-260.7-266.7-260.7-147.3 0-266.7 116.7-266.7 260.7 0 102.4 61.6 255.9 145.2 379.5-66.6 6.3-128.7 17.8-181.3 33.8-60.2 18.3-132 49.9-132 96.2 0 89.7 218.4 136.6 434.2 136.6 112.4 0 218.3-12.4 298.3-34.9 88.9-25 135.9-60.2 135.9-101.7C946.9 779.4 875.1 747.9 814.9 729.6zM514.3 182c60.8 0 110 49.3 110 110.1 0 60.8-49.3 110-110 110-60.8 0-110.1-49.3-110.1-110C404.3 231.3 453.5 182 514.3 182zM883.3 854.4c-18.8 12.5-47.6 24.5-83.1 34.5-76.5 21.5-178.6 33.4-287.5 33.4s-210.9-11.9-287.5-33.4c-35.5-10-64.3-21.9-83.1-34.5-15.2-10.1-23.6-20.3-23.6-28.7 0-5.6 17.6-31.7 103.7-57.9 56.2-17.1 123.9-28.8 196.7-34.2 24.4 32.3 50.2 61.7 76.5 86.3 4.4 4.9 10.8 8.1 18 8.1 7.1 0 13.4-3.1 17.8-7.9 26.4-24.7 52.3-54.1 76.8-86.4 72.2 5.5 139.5 17.1 195.2 34.1 86.1 26.2 103.7 52.3 103.7 57.9C906.9 834.1 898.5 844.3 883.3 854.4z" fill="#272636" p-id="1737"></path></svg>