<svg xmlns="http://www.w3.org/2000/svg" viewBox="0 0 1024 1024" version="1.1"><path d="M512.7 960.7c-0 0-0 0-0 0-7-0-13.4-3.7-17-9.6l-83.2-136.4L227.6 814.7c-60.7 0-110-49.4-110-110L117.5 174.4c0-60.7 49.4-110 110-110L797.8 64.4c60.7 0 110 49.4 110 110l0 530.2c0 60.7-49.4 110-110 110l-183.9 0-84.2 136.5C526.1 957.1 519.6 960.7 512.7 960.7zM227.6 104.4c-38.6 0-70 31.4-70 70l0 530.2c0 38.6 31.4 70 70 70l196.1 0c7 0 13.4 3.6 17.1 9.6l72 118.1 72.9-118.2c3.6-5.9 10.1-9.5 17-9.5L797.8 774.7c38.6 0 70-31.4 70-70L867.8 174.4c0-38.6-31.4-70-70-70L227.6 104.4z" fill="#272636" p-id="2133"></path><path d="M512.7 688.3c-0 0-0 0-0 0-5.3 0-10.4-2-14.2-5.7l-70.7-71.2c-0.9-0.9-91.9-92.3-104.9-105.3-39.9-39.9-63.3-84.8-67.8-130-4.5-45.6 11.2-88.9 44.3-121.9 32.6-32.6 72.5-46.3 115.2-39.5 32.9 5.2 66.5 22.5 98 50.2 73.8-65.1 154.4-69.7 213.3-10.7 33.1 33.1 48.8 76.4 44.3 122-4.5 45.2-27.9 90.1-67.8 130C674.1 534.5 528.4 681.1 526.9 682.6 523.1 686.3 518 688.3 512.7 688.3zM393.6 252.9c-24.2 0-46.3 9.9-65.9 29.5-24.8 24.8-36.1 55.8-32.8 89.7 3.5 35.8 23 72.4 56.2 105.6 13.1 13.1 104.1 104.6 105 105.5l56.5 57c37.6-37.9 138.3-139.3 161.5-162.5 33.2-33.2 52.7-69.8 56.2-105.6 3.4-33.9-8-64.9-32.8-89.7-23.5-23.5-50.7-33-80.7-28.3-29.4 4.7-60.6 22.8-90.2 52.3-3.8 3.8-8.8 5.9-14.1 5.9s-10.4-2.1-14.1-5.9c-29.5-29.5-60.7-47.6-90.2-52.3C403.4 253.3 398.4 252.9 393.6 252.9z" fill="#272636" p-id="2134"></path></svg>