<svg xmlns="http://www.w3.org/2000/svg" viewBox="0 0 1024 1024" version="1.1"><path d="M923.6 903.7 730.3 787.5c-5.5-3.3-12.2-3.8-18.1-1.3l-234.4 99.4L114.4 595.3c-8.6-6.9-21.2-5.5-28 3.1-6.9 8.6-5.5 21.2 3.1 28l145.4 116.1L88.2 880.9c-8 7.6-8.4 20.2-0.8 28.2 3.9 4.2 9.2 6.3 14.5 6.3 4.9 0 9.8-1.8 13.7-5.4l150.8-142.1 195.9 156.5c5.7 4.6 13.5 5.6 20.2 2.8l235.9-100.1 184.6 111c3.2 1.9 6.8 2.9 10.3 2.9 6.8-0 13.4-3.4 17.1-9.7C936.1 921.6 933.1 909.4 923.6 903.7z" fill="#272636" p-id="1266"></path><path d="M131.5 602.3c16.7 14.3 37.5 22 59.3 22 2.4 0 4.7-0.1 7.1-0.3 50.2-3.8 87.9-47.8 84.1-98-3.8-50.2-47.8-87.9-98-84.1-24.3 1.9-46.5 13.1-62.4 31.6-15.9 18.5-23.6 42.1-21.8 66.4C101.7 564.3 113 586.4 131.5 602.3zM151.9 499.5c8.9-10.4 21.4-16.7 35.1-17.8 1.3-0.1 2.6-0.2 4-0.2 26.6 0 49.2 20.6 51.3 47.5 0 0 0 0 0 0 2.2 28.3-19.1 53.1-47.4 55.2-13.7 1-27-3.3-37.4-12.3-10.4-8.9-16.7-21.4-17.8-35.1C138.6 523.2 143 509.9 151.9 499.5z" fill="#272636" p-id="1267"></path><path d="M297.4 408.3c10.6 3 21.6-3.1 24.7-13.7 2-7 26.2-50.4 73.4-36.9 42.2 12.1 39.7 71.4 39.6 73.9-0.5 9.6 5.8 18.2 15.2 20.5 9.4 2.3 19-2.5 22.9-11.3 0.1-0.1 6.4-13.9 19.5-25.7 16.7-15.1 35.6-19.3 57.9-13 21 6 33.1 18.3 36.9 37.4 2.1 10.7 1.2 20.9 0.3 26.6l-95.5 251L349.4 594.6c-12.3-10.5-27.9-15.7-44.1-14.4-16.1 1.2-30.8 8.7-41.4 21-21.7 25.3-18.8 63.7 6.5 85.4l177.4 152.3c11.4 9.8 25.4 14.6 39.4 14.6 7.6 0 15.3-1.4 22.4-4.3 1.9-0.3 3.7-0.8 5.5-1.6l205.6-92.4 169.4 93.1c3 1.7 6.3 2.5 9.6 2.5 7 0 13.9-3.7 17.5-10.3 5.3-9.7 1.8-21.8-7.9-27.1l-178.2-97.9c-5.5-3-12.1-3.3-17.8-0.7l-165.8 74.5c-1-15.8-8-31.2-21-42.3l-2.5-2.1 97.8-256.9c0.9-1.2 1.6-2.4 2.2-3.8 0.1-0.1 6.6-14.8 19.6-26.9 15.6-14.4 33.1-18.6 53.5-12.7 20.2 5.8 32.5 18.4 37.4 38.4 4.1 16.8 1.4 32.5 1.4 32.6-1.9 9.9 3.9 19.6 13.5 22.7 9.6 3.1 20-1.5 24.2-10.6 1-2.2 25.6-53.7 71.2-40.7 45.9 13.2 40.4 70.6 40.2 72.9-1.2 10.2 5.6 19.6 15.6 21.7 1.4 0.3 2.8 0.5 4.2 0.5 8.5-0 16.3-5.4 19-13.8 0.8-2.4 19-59.9 12.3-135.4-6.2-70.2-35.8-169.7-141.8-245.1-9-6.4-21.4-4.3-27.8 4.7-6.4 9-4.3 21.4 4.7 27.8C846.3 273.2 888.4 345.4 896.6 434.7c1.3 13.6 1.6 26.7 1.3 38.8-11-11.8-25-20.2-41.8-25-30.5-8.8-59.5-2.4-84.3 18.3-8.1-25.4-26.5-50.1-63.4-60.7-35.4-10.2-63.8-0.3-84.5 15.7-9-28.5-30.8-48.8-62.5-57.9-40.2-11.5-71.6 1.2-93.3 19.6-10.5-33.4-31.7-55.5-61.7-64.1-19.6-5.6-37.4-5.2-53-0.9 38.2-67.7 97.8-112.5 177.7-133.6 81.6-21.5 155.1-9.4 155.8-9.2 10 1.7 19.8-4.4 22.6-14.1l15.6-54.3c3-10.6-3.1-21.6-13.7-24.7-10.6-3-21.6 3.1-24.7 13.7l-10.9 37.9c-28.6-2.8-88-5.2-153.5 11.8-84 21.8-193.7 80.8-238.7 237.7C280.7 394.2 286.8 405.3 297.4 408.3zM473.9 808.5 296.5 656.3c-8.7-7.4-9.7-20.5-2.2-29.2 3.6-4.2 8.6-6.7 14.1-7.2 0.5-0 1.1-0.1 1.6-0.1 4.9 0 9.7 1.7 13.4 5l177.4 152.3c8.7 7.4 9.7 20.5 2.2 29.2-3.6 4.2-8.6 6.7-14.1 7.2C483.5 813.9 478.1 812.1 473.9 808.5z" fill="#272636" p-id="1268"></path></svg>