<svg xmlns="http://www.w3.org/2000/svg" viewBox="0 0 1024 1024" version="1.1"><path d="M512.7 923.7c-0 0-0 0-0 0-5.3 0-10.4-1.9-14.2-5.7L371.5 790c-1.6-1.6-165.1-165.9-188.5-189.3C114 531.7 73.5 454.4 65.8 377c-7.6-77 19-150.2 75-206.2 54.9-54.9 121.7-77.8 193.3-66.5 59.7 9.5 121.1 42.6 178.6 96 57.5-53.5 118.9-86.5 178.6-96 71.6-11.4 138.4 11.6 193.3 66.5 56 56 82.6 129.2 75 206.2-7.7 77.4-48.2 154.8-117.1 223.8-51.2 51.1-312.9 314.5-315.5 317.2C523.1 921.8 518 923.7 512.7 923.7z" fill="#272636" p-id="1670"></path></svg>