<svg xmlns="http://www.w3.org/2000/svg" viewBox="0 0 1024 1024" version="1.1"><path d="M512 922.1c-0 0-0 0-0 0-5.6-0-10.9-2.2-14.8-6.2L370.8 788.5c-1.6-1.6-164.2-165-187.5-188.3C114.6 531.5 74.2 454.3 66.6 377.1c-7.6-76.9 19-150 74.9-205.9 54.8-54.8 121.6-77.8 193.1-66.4 59.3 9.4 120.4 42.2 177.5 95.1 57.1-52.9 118.2-85.7 177.5-95.1 71.5-11.4 138.3 11.6 193.1 66.4 55.9 55.9 82.5 129 74.9 205.9-7.6 77.2-48 154.4-116.8 223.2-50.9 50.9-311.2 313.1-313.8 315.7C522.9 919.9 517.6 922.1 512 922.1zM298.9 143.7c-47.1 0-90 19.1-127.9 57-47.5 47.5-69.3 107.1-62.8 172.2 6.7 67.5 42.9 135.9 104.8 197.7 23.3 23.3 185.9 186.8 187.6 188.4l111.5 112.5c56.3-56.7 255.2-257 299.1-300.9 61.9-61.9 98.1-130.2 104.8-197.7 6.4-65.1-15.3-124.7-62.8-172.2-45.6-45.6-98.4-64-156.9-54.7-55.7 8.8-114.2 42.6-169.3 97.6-3.9 3.9-9.2 6.1-14.8 6.1s-10.9-2.2-14.8-6.1c-55-55-113.5-88.8-169.3-97.6C318.1 144.5 308.4 143.7 298.9 143.7z" fill="#272636" p-id="923"></path></svg>