<svg xmlns="http://www.w3.org/2000/svg" viewBox="0 0 1024 1024" version="1.1"><path d="M955.2 861.8c-0.2-15.7-4.1-201-57.4-389.6-32.3-114.5-76.3-206.1-130.8-272.1C697.3 115.4 610.5 72.4 509 72.4c-89.3 0-168.4 43.1-235.1 128-51.7 65.8-96.2 157-132.1 271.2C81.2 664.2 65 859.3 65 861.3c0 34.3 12.5 64.5 37.1 79.4 19.1 11.5 44.5 17.1 77.8 17.1l661.5 0c33.3 0 58.7-5.6 77.8-17.1C943.9 925.8 955.2 902.9 955.2 861.8zM736 225.3c50.9 61.6 92.3 148.1 123.1 257.1 45.1 159.2 54 320.6 55.7 367.3L704 849.7l44.5-89.2c2.9-5.7 2.8-12.5-0.1-18.1L530 320.3c0.4-4.2-0.5-8.3-2.5-11.8L527.5 113C608.5 117.9 678.5 155.6 736 225.3zM308.4 751.7l149.4-288.8-89.8 408.3L308.4 751.7zM508.3 419.8l109.4 497.8-218.9 0L508.3 419.8zM558.7 462.9l149.4 288.8-59.7 119.5L558.7 462.9zM487.6 113.4l0 198.1c-1 2.7-1.4 5.7-1.1 8.7L268.2 742.4c-2.9 5.7-3 12.4-0.1 18.1l44.5 89.2L106.3 849.7C116.9 746.9 191.6 141.4 487.6 113.4zM107.8 889.7l222.6 0c0.7 0 1.4-0 2.1-0.1l14 28.1L179.9 917.7C131.1 917.7 113.9 903.5 107.8 889.7zM841.4 917.7 670 917.7l14-28c0.3 0 0.7 0.1 1 0.1l228.5 0C907.5 903.5 890.3 917.7 841.4 917.7z" fill="#272636" p-id="1055"></path></svg>