<svg xmlns="http://www.w3.org/2000/svg" viewBox="0 0 1024 1024" version="1.1"><path d="M603.8 297.7 421.7 297.7c-77.2 0-140.1 62.8-140.1 140.1l0 317c0 11 9 20 20 20l89.2 0 0 14.4c0 32 25.2 58.3 56.8 59.9l0 46.7c0 35.9 29.2 65 65 65s65-29.2 65-65l0-46.7c31.6-1.7 56.8-27.9 56.8-59.9l0-14.4 89.2 0c11 0 20-9 20-20L743.8 437.8C743.8 360.5 681 297.7 603.8 297.7zM537.7 895.8c0 13.8-11.2 25-25 25s-25-11.2-25-25L487.7 849.2l50 0L537.7 895.8zM594.6 789.1c0 11-9 20-20 20l-16.8 0-90 0-16.8 0c-11 0-20-9-20-20L430.9 678.5c0-45.1 36.7-81.8 81.8-81.8s81.8 36.7 81.8 81.8L594.6 789.1zM703.8 734.7l-69.2 0 0-56.2c0-67.2-54.7-121.9-121.9-121.9s-121.9 54.7-121.9 121.9l0 56.2-69.2 0L321.6 437.8c0-55.2 44.9-100 100-100l182.1 0c55.2 0 100 44.9 100 100L703.8 734.7z" fill="#272636" p-id="2221"></path><path d="M787.9 152.1 619.8 152.1c-0.9 0-1.8 0.1-2.7 0.2-9.1-49.4-52.4-86.9-104.4-86.9-51.9 0-95.2 37.4-104.3 86.7L231.6 152.1c-11.1 0-20 8.9-20 20s9 20 20 20l177 0c9.6 48.8 52.6 85.7 104.2 85.7 51.6 0 94.7-37 104.2-85.9 0.9 0.1 1.9 0.2 2.9 0.2l168.1 0c11 0 20-8.9 20-20S798.9 152.1 787.9 152.1zM512.7 237.7c-36.5 0-66.1-29.7-66.1-66.1s29.7-66.1 66.1-66.1 66.1 29.7 66.1 66.1S549.2 237.7 512.7 237.7z" fill="#272636" p-id="2222"></path></svg>