<svg xmlns="http://www.w3.org/2000/svg" viewBox="0 0 1024 1024" version="1.1"><path d="M953.9 295.4C836 177.5 679.5 112.5 513.3 112.5c-166.2 0-322.7 65-440.6 182.9-8.1 8.1-8.1 21.3 0 29.4 8.1 8.1 21.3 8.1 29.4 0 110.1-110.1 256.2-170.8 411.3-170.8 155.1 0 301.1 60.6 411.3 170.8 4.1 4.1 9.4 6.1 14.7 6.1 5.3 0 10.6-2 14.7-6.1C962 316.7 962 303.5 953.9 295.4z" fill="#272636" p-id="895"></path><path d="M514.6 303.4c-118.1 0-231.5 51-328 147.5-8.1 8.1-8.1 21.3 0 29.4 8.1 8.1 21.3 8.1 29.4 0 88.5-88.5 191.8-135.3 298.6-135.3 106.8 0 210.1 46.8 298.6 135.3 4.1 4.1 9.4 6.1 14.7 6.1 5.3 0 10.6-2 14.7-6.1 8.1-8.1 8.1-21.3 0-29.4C746.1 354.4 632.7 303.4 514.6 303.4z" fill="#272636" p-id="896"></path><path d="M514.6 502.4c-73.1 0-144.9 33.1-207.5 95.7-8.1 8.1-8.1 21.3 0 29.4 8.1 8.1 21.3 8.1 29.4 0 54.7-54.7 116.3-83.6 178.1-83.6s123.5 28.9 178.1 83.6c4.1 4.1 9.4 6.1 14.7 6.1 5.3 0 10.6-2 14.7-6.1 8.1-8.1 8.1-21.3 0-29.4C659.5 535.5 587.7 502.4 514.6 502.4z" fill="#272636" p-id="897"></path><path d="M513.6 703.6c-54.5 0-98.8 44.3-98.8 98.8s44.3 98.8 98.8 98.8 98.8-44.3 98.8-98.8S568 703.6 513.6 703.6zM513.6 859.7c-31.6 0-57.3-25.7-57.3-57.3s25.7-57.3 57.3-57.3 57.3 25.7 57.3 57.3S545.1 859.7 513.6 859.7z" fill="#272636" p-id="898"></path></svg>