<svg xmlns="http://www.w3.org/2000/svg" viewBox="0 0 1024 1024" version="1.1"><path d="M827.9 196.1C743.5 111.8 631.3 65.3 512 65.3c-119.3 0-231.5 46.5-315.9 130.8S65.3 392.7 65.3 512s46.5 231.5 130.8 315.9 196.6 130.8 315.9 130.8c119.3 0 231.5-46.5 315.9-130.8S958.7 631.3 958.7 512 912.2 280.5 827.9 196.1zM531.6 917.2l0-74.1c0-11.3-9.2-20.5-20.5-20.5-11.3 0-20.5 9.2-20.5 20.5l0 74.1C283.3 906.3 116.7 739.2 106.8 531.6l72.4 0c11.3 0 20.5-9.2 20.5-20.5 0-11.3-9.2-20.5-20.5-20.5l-72.3 0c10.8-206.7 177-373 383.7-383.8l0 72.3c0 11.3 9.2 20.5 20.5 20.5 11.3 0 20.5-9.2 20.5-20.5L531.6 106.8c207.6 9.9 374.8 176.5 385.6 383.9l-74.1 0c-11.3 0-20.5 9.2-20.5 20.5 0 11.3 9.2 20.5 20.5 20.5l74.2 0C907.3 739.8 739.7 907.3 531.6 917.2z" fill="#272636" p-id="848"></path><path d="M532.1 503.1 532.1 258.2c0-11.3-9.2-20.5-20.5-20.5-11.3 0-20.5 9.2-20.5 20.5l0 254.7c0 7.9 4.4 14.7 10.9 18.1L693.4 722.4c4 4 9.2 6 14.5 6s10.5-2 14.5-6c8-8 8-21 0-29L532.1 503.1z" fill="#272636" p-id="849"></path></svg>