<svg xmlns="http://www.w3.org/2000/svg" viewBox="0 0 1024 1024" version="1.1"><path d="M911.9 729.5c1.3-13.5 2-26.7 2-40.2 0-197-142.7-361.3-330.1-394.9 14.1-16.4 22.7-37.8 22.7-61.1 0-51.7-42-93.7-93.7-93.7s-93.7 42.1-93.7 93.7c0 23.3 8.5 44.6 22.7 61.1-187.4 33.7-330.1 198-330.1 395 0 13.7 0.7 27.2 2.1 40.9-28.3 12.4-48.1 40.6-48.1 73.4 0 44.1 35.9 80 80 80l736.3 0c44.1 0 80-35.9 80-80C961.9 770.2 941.2 741.4 911.9 729.5zM512.7 179.6c29.6 0 53.7 24.1 53.7 53.7 0 29.6-24.1 53.7-53.7 53.7s-53.7-24.1-53.7-53.7C459 203.7 483.1 179.6 512.7 179.6zM512.7 328.2c199.2 0 361.2 162.1 361.2 361.3 0 11.4-0.5 22.1-1.6 34.2l-719.1 0c-1.1-12.1-1.6-22.7-1.6-34.1C151.5 490.3 313.5 328.2 512.7 328.2zM881.8 843.7 145.6 843.7c-22.1 0-40-17.9-40-40 0-20.3 15.2-37.1 34.8-39.7l746.7 0c19.6 2.6 34.8 19.4 34.8 39.7C921.9 825.7 903.9 843.7 881.8 843.7z" fill="#272636" p-id="1911"></path><path d="M276.6 532.6c11 0 20-9 20-20 0-11.2 14.7-34.6 47-59.4 31.3-24 62.5-36.6 77.1-36.6 11 0 20-9 20-20s-9-20-20-20c-31.7 0-73.2 23.2-101.5 44.9-18.8 14.5-62.6 52.3-62.6 91.1C256.6 523.6 265.6 532.6 276.6 532.6z" fill="#272636" p-id="1912"></path></svg>