<svg xmlns="http://www.w3.org/2000/svg" viewBox="0 0 1024 1024" version="1.1"><path d="M932.2 829.5l-3.9 0c-24.7-40.9-29.5-79.7-14.3-114.8 12.8-29.7 35.8-46.3 36-46.4 7.8-5.5 10.8-15.6 7.2-24.4-3.6-8.8-12.8-14-22.2-12.5-1.2 0.2-14.5 2.3-35.9 7.7-27.5-60-31.8-120.8-13-181.1 14.6-46.6 38.3-75.4 38.5-75.7 5.1-6 6.3-14.5 3-21.7-3.3-7.2-10.4-11.9-18.3-12.1-1.3-0-32.6-0.6-71.1 5.4-41 6.4-74.1 17.6-98.9 33.4-2.5-4.2-5.1-8.5-7.7-12.7-82.8-132.6-211.5-208.1-304.8-248-100.7-43.1-181.1-55-184.5-55.5-9-1.3-17.8 3.5-21.6 11.7-3.8 8.3-1.7 18 5.1 24 0.8 0.7 77.4 68.9 126 193 6.5 16.5 12.1 33.2 17 50.2-88.5-66.7-186.3-67.7-191.2-67.7-8.1 0-15.5 4.8-18.7 12.2-3.3 7.4-1.9 16.1 3.6 22.1 15.3 16.9 50.1 67.9 72.4 140.2 16.4 52.9 24.1 109.4 23 168-0.1 4.1-0.2 8.2-0.4 12.3-90.2-42.5-165.1-54.6-168.5-55.1-8.9-1.4-17.7 3.2-21.6 11.3-4 8.1-2.2 17.6 4.4 23.8 0.8 0.8 79.2 76.4 108.5 212.5l-89.8 0c-11.3 0-21.4 9.6-21.4 20.9l0 86.2c0 11.3 10 19.7 21.4 19.7l841.7 0c11.3 0 20-8.4 20-19.7l0-86.2C952.2 839.1 943.5 829.5 932.2 829.5zM820.3 707.6c22.9-9.2 44.1-16.2 62.1-21.5-1.8 3.3-3.6 6.6-5.2 10.3-13.7 30.3-22.1 76.9 4.6 133.2l-78.9 0C809.7 805 818.4 761.2 820.3 707.6zM870 391.3c-7.6 13.9-15.8 31.7-22.5 52.5-15.3 47.8-25.2 121.7 11.7 206.4-12 3.8-25.1 8.2-38.9 13.4-2.5-67.1-17.1-151.9-61.3-240.2C789 403.5 834.9 394.7 870 391.3zM298.5 125.5c30.3 8.2 69.4 20.6 112.1 38.8 88 37.6 209 108.4 286.2 232 72.7 116.4 85.1 231.3 82.6 307.3-1.9 59.3-12.9 105.5-19 125.9L362.9 829.5c44.4-103.4 67.9-203.2 70-300.5 1.9-85.7-12.8-168.5-43.6-246.3C361.7 212.9 326.3 160.3 298.5 125.5zM221.8 328.8c43.2 8.8 110.1 31.7 162.7 91.3 5.7 35.8 8.2 72.1 7.3 109.3-2.3 96.7-27.1 196.7-73.9 300.1L263.4 829.5c22.4-70.6 34.4-139.1 35.5-205.8 1.1-63.2-7.5-124.1-25.5-181.4C257.8 392.7 237.9 354.7 221.8 328.8zM254.1 681.2c-5.4 47.4-16.3 95.9-32.6 145.1-17.5-85.8-52.6-149.6-80.7-189.7C171.4 645.7 211.5 659.8 254.1 681.2zM910.3 915.5l-800.2 0 0-45 800.2 0L910.3 915.5z" fill="#272636" p-id="577"></path></svg>