<svg xmlns="http://www.w3.org/2000/svg" viewBox="0 0 1024 1024" version="1.1"><path d="M512.9 751c-131.7 0-238.8-107.1-238.8-238.8 0-131.7 107.1-238.8 238.8-238.8 131.7 0 238.8 107.1 238.8 238.8C751.7 643.9 644.6 751 512.9 751zM512.9 313.4c-109.6 0-198.8 89.2-198.8 198.8 0 109.6 89.2 198.8 198.8 198.8 109.6 0 198.8-89.2 198.8-198.8C711.7 402.6 622.5 313.4 512.9 313.4z" fill="#272636" p-id="2078"></path><path d="M512.6 223.4c-11 0-20-9-20-20L492.6 83.8c0-11 9-20 20-20 11 0 20 9 20 20l0 119.6C532.7 214.4 523.7 223.4 512.6 223.4z" fill="#272636" p-id="2079"></path><path d="M512.6 961.4c-11 0-20-9-20-20L492.6 821.8c0-11 9-20 20-20 11 0 20 9 20 20l0 119.6C532.7 952.4 523.7 961.4 512.6 961.4z" fill="#272636" p-id="2080"></path><path d="M288.2 308.1c-5.1 0-10.2-2-14.1-5.9l-78.7-78.7c-7.8-7.8-7.8-20.5 0-28.3 7.8-7.8 20.5-7.8 28.3 0l78.7 78.7c7.8 7.8 7.8 20.5 0 28.3C298.4 306.1 293.3 308.1 288.2 308.1z" fill="#272636" p-id="2081"></path><path d="M815.9 835.8c-5.1 0-10.2-2-14.1-5.9l-78.7-78.7c-7.8-7.8-7.8-20.5 0-28.3 7.8-7.8 20.5-7.8 28.3 0l78.7 78.7c7.8 7.8 7.8 20.5 0 28.3C826.1 833.9 821 835.8 815.9 835.8z" fill="#272636" p-id="2082"></path><path d="M203.5 532.6 83.8 532.6c-11 0-20-9-20-20s9-20 20-20l119.6 0c11 0 20 9 20 20S214.5 532.6 203.5 532.6z" fill="#272636" p-id="2083"></path><path d="M941.5 532.6 821.8 532.6c-11 0-20-9-20-20s9-20 20-20l119.6 0c11 0 20 9 20 20S952.5 532.6 941.5 532.6z" fill="#272636" p-id="2084"></path><path d="M209.4 835.8c-5.1 0-10.2-2-14.1-5.9-7.8-7.8-7.8-20.5 0-28.3l78.7-78.7c7.8-7.8 20.5-7.8 28.3 0 7.8 7.8 7.8 20.5 0 28.3l-78.7 78.7C219.7 833.9 214.5 835.8 209.4 835.8z" fill="#272636" p-id="2085"></path><path d="M737.1 308.1c-5.1 0-10.2-2-14.1-5.9-7.8-7.8-7.8-20.5 0-28.3l78.7-78.7c7.8-7.8 20.5-7.8 28.3-0 7.8 7.8 7.8 20.5 0 28.3l-78.7 78.7C747.4 306.1 742.2 308.1 737.1 308.1z" fill="#272636" p-id="2086"></path></svg>