<svg xmlns="http://www.w3.org/2000/svg" viewBox="0 0 1024 1024" version="1.1"><path d="M850.4 513.5c4.2-5.5 8.3-11.1 12.1-16.7 55.7-80.1 69.3-153.8 38.3-207.4-31-53.7-101.6-78.7-198.8-70.5-6.8 0.6-13.6 1.3-20.5 2.2-2.7-6.4-5.5-12.7-8.4-18.8-41.5-88.3-98.5-136.9-160.5-136.9-62 0-119 48.6-160.5 136.9-2.9 6.1-5.7 12.4-8.4 18.8-6.9-0.9-13.7-1.6-20.5-2.2-97.2-8.2-167.8 16.9-198.8 70.5-31 53.7-17.4 127.3 38.3 207.4 3.9 5.6 7.9 11.1 12.1 16.7-4.2 5.5-8.3 11.1-12.1 16.7-55.7 80.1-69.3 153.8-38.3 207.4 27.1 47 84.7 72.1 163.8 72.1 11.2 0 22.9-0.5 35-1.5 6.8-0.6 13.6-1.3 20.5-2.2 2.7 6.4 5.5 12.7 8.4 18.8 41.5 88.3 98.5 136.9 160.5 136.9 62 0 119-48.6 160.5-136.9 2.9-6.1 5.7-12.4 8.4-18.8 6.9 0.9 13.7 1.6 20.5 2.2 12.1 1 23.7 1.5 35 1.5 79.2 0 136.7-25.1 163.8-72.1 31-53.7 17.4-127.3-38.3-207.4C858.6 524.6 854.6 519 850.4 513.5zM705.4 258.7c79.7-6.7 138.3 11.8 160.8 50.7 22.5 38.9 9.2 98.9-36.5 164.6-1.8 2.6-3.6 5.1-5.5 7.7-28-31.6-61.2-62.3-98.4-91.2-6.4-46.7-16.4-90.8-29.8-130.8C699.2 259.3 702.3 259 705.4 258.7zM603.4 670.5c-30 17.3-60.4 32.6-90.7 45.7-30.2-13.1-60.7-28.4-90.7-45.7-30-17.3-58.5-36-84.9-55.7-3.8-32.7-5.8-66.7-5.8-101.4 0-34.7 2-68.6 5.8-101.4 26.4-19.7 54.9-38.4 84.9-55.7 30-17.3 60.4-32.6 90.7-45.7 30.2 13.1 60.7 28.4 90.7 45.7 30 17.3 58.5 36 84.9 55.7 3.8 32.7 5.8 66.7 5.8 101.4 0 34.7-2 68.6-5.8 101.4C661.8 634.5 633.4 653.2 603.4 670.5zM679.9 669.8c-6.1 32.5-14.2 63.2-24.1 91.5-29.5-5.6-60.2-14-91.3-24.9 19.7-9.6 39.4-20 58.9-31.3C642.9 693.9 661.8 682.1 679.9 669.8zM460.9 736.5c-31.2 10.9-61.8 19.3-91.3 24.9-9.9-28.3-18-59.1-24.1-91.5 18.2 12.3 37 24.1 56.5 35.4C421.5 716.5 441.2 726.9 460.9 736.5zM293.7 580.1c-25-21.5-47.6-43.9-67.2-66.7 19.6-22.7 42.2-45.1 67.2-66.7-1.6 21.9-2.4 44.1-2.4 66.7C291.3 536 292.1 558.3 293.7 580.1zM345.5 357.2c6.1-32.5 14.2-63.2 24.1-91.5 29.5 5.6 60.2 14 91.3 24.9-19.7 9.6-39.4 20-58.9 31.3C382.5 333 363.6 344.9 345.5 357.2zM564.5 290.5c31.2-10.9 61.8-19.3 91.3-24.9 9.9 28.3 18 59.1 24.1 91.5-18.2-12.3-37-24.1-56.5-35.4C603.9 310.5 584.2 300.1 564.5 290.5zM731.7 446.8c25 21.5 47.6 43.9 67.2 66.7-19.6 22.7-42.2 45.1-67.2 66.7 1.6-21.9 2.4-44.1 2.4-66.7C734.1 491 733.3 468.7 731.7 446.8zM388.4 219.2c34-72.4 79.3-113.9 124.3-113.9s90.2 41.5 124.3 113.9c1.3 2.8 2.6 5.7 3.9 8.6-41.3 8.4-84.6 21.8-128.2 39.6-43.6-17.8-86.8-31.2-128.2-39.6C385.8 224.9 387.1 222.1 388.4 219.2zM195.7 474c-45.7-65.7-59-125.7-36.5-164.6 19.4-33.7 65.9-52 129.7-52 10 0 20.3 0.4 31.1 1.4 3.1 0.3 6.2 0.6 9.4 0.9-13.4 40-23.4 84.1-29.8 130.8-37.2 28.9-70.4 59.6-98.4 91.2C199.3 479.1 197.5 476.5 195.7 474zM320 768.2c-79.7 6.7-138.3-11.8-160.8-50.7-22.5-38.9-9.2-98.9 36.5-164.6 1.8-2.6 3.6-5.1 5.5-7.7 28 31.6 61.2 62.3 98.4 91.2 6.4 46.7 16.4 90.8 29.8 130.8C326.2 767.7 323.1 768 320 768.2zM637 807.7c-34 72.4-79.3 113.9-124.3 113.9s-90.2-41.5-124.3-113.9c-1.3-2.8-2.6-5.7-3.9-8.6 41.4-8.4 84.6-21.8 128.2-39.6 43.6 17.8 86.8 31.2 128.2 39.6C639.6 802.1 638.3 804.9 637 807.7zM866.2 717.6c-22.5 38.9-81.1 57.4-160.8 50.7-3.1-0.3-6.2-0.6-9.4-0.9 13.4-40 23.4-84.1 29.8-130.8 37.2-28.9 70.4-59.6 98.4-91.2 1.9 2.6 3.7 5.1 5.5 7.7C875.3 618.7 888.6 678.7 866.2 717.6z" fill="#272636" p-id="1290"></path></svg>