<svg xmlns="http://www.w3.org/2000/svg" viewBox="0 0 1024 1024" version="1.1"><path d="M913.9 396.4c-24.6-25.1-56.3-41.2-90.6-46.3C815.9 220.8 708.4 117.9 577.2 117.9c-95 0-180.6 54.5-221.5 138.3-18.2-12.4-39.8-19.1-62.4-19.1-61.3 0-111.1 49.8-111.1 111.1 0 1.7 0 3.5 0.1 5.2-68.3 18.7-117.7 81.7-117.7 154.2 0 88.1 71.8 159.9 160 159.9l104.1 0 0 269.7c0 11.4 9.2 20.6 20.6 20.6 11.4 0 20.6-9.2 20.6-20.6L370 667.3l188.6 0 0 269.7c0 11.4 9.2 20.6 20.6 20.6 11.4 0 20.6-9.2 20.6-20.6L599.8 667.3 800.1 667.3c42 0 81.9-16.5 112.1-46.6 30.5-30.3 47.2-70.3 47.2-112.9C959.4 465.9 943.3 426.3 913.9 396.4zM883.2 591.5c-22.5 22.3-52 34.6-83.1 34.6L224.7 626.1c-65.5 0-118.8-53.2-118.8-118.7 0-59 44-109.5 102.3-117.5 5.8-0.8 10.9-4 14.2-8.8 3.3-4.8 4.4-10.8 3-16.5-1.3-5.4-2-11-2-16.6 0-38.5 31.4-69.9 69.9-69.9 21.1 0 40.9 9.4 54.2 25.8 4.7 5.8 12.2 8.6 19.6 7.3 7.4-1.3 13.4-6.5 15.9-13.6 28.5-82.9 106.5-138.6 194.2-138.6 113.2 0 205.3 92.1 205.3 205.2 0 0.9 0 1.7 0 2.5 0 0.6 0 1.1 0 1.7-0.2 11.3 8.7 20.7 20 21 31 0.8 60.1 13.5 81.8 35.7 21.8 22.2 33.8 51.6 33.8 82.7C918.3 539.3 905.8 569.1 883.2 591.5z" fill="#272636" p-id="2035"></path><path d="M464.3 701.3c-11.4 0-20.6 9.2-20.6 20.6l0 215.1c0 11.4 9.2 20.6 20.6 20.6 11.4 0 20.6-9.2 20.6-20.6L484.9 721.9C484.9 710.5 475.7 701.3 464.3 701.3z" fill="#272636" p-id="2036"></path><path d="M694.1 701.3c-11.4 0-20.6 9.2-20.6 20.6l0 215.1c0 11.4 9.2 20.6 20.6 20.6s20.6-9.2 20.6-20.6L714.7 721.9C714.7 710.5 705.5 701.3 694.1 701.3z" fill="#272636" p-id="2037"></path><path d="M234.5 763.1c-11.4 0-20.6 9.2-20.6 20.6l0 91.6c0 11.4 9.2 20.6 20.6 20.6 11.4 0 20.6-9.2 20.6-20.6l0-91.6C255.1 772.3 245.9 763.1 234.5 763.1z" fill="#272636" p-id="2038"></path><path d="M809 763.1c-11.4 0-20.6 9.2-20.6 20.6l0 91.6c0 11.4 9.2 20.6 20.6 20.6 11.4 0 20.6-9.2 20.6-20.6l0-91.6C829.6 772.3 820.3 763.1 809 763.1z" fill="#272636" p-id="2039"></path></svg>