<svg xmlns="http://www.w3.org/2000/svg" viewBox="0 0 1024 1024" version="1.1"><path d="M168.6 385.4c-0 0-0 0-0 0-27.3 0-52.9-10.2-72.2-29.5-39.8-39.8-39.8-104.4 0-144.2l0 0c39.8-39.8 104.6-39.7 144.4 0.1 19.3 19.3 29.9 44.9 29.9 72.2 0 27.3-10.6 52.6-29.9 71.8C221.5 375.2 195.9 385.4 168.6 385.4zM124.7 240.3c-24.2 24.2-24.2 63.2-0 87.4 11.7 11.7 27.3 17.8 43.9 17.8 0 0 0 0 0 0 16.6 0 32.2-6.1 43.9-17.8 11.7-11.7 18.1-27.1 18.1-43.7s-6.4-32.1-18.1-43.8C188.2 215.9 148.9 216 124.7 240.3L124.7 240.3z" fill="#272636" p-id="1549"></path><path d="M810 960.2c-39.7 0-70.3-13.8-92.9-41.9-25.3-31.4-37.4-77.7-47.7-122.4-16.5-72.3-57.4-109-121.5-109-38.2 0-166.8-10-216.5-139.4-21.4-55.6-23-119.1-4.4-174 20.5-60.6 64.2-107.9 123-133.3 72-31.1 153.9-30.9 230.5 0.5 78.9 32.4 141.8 94.7 172.5 170.9 20.5 50.7 24.8 90.1 28.6 124.9 3.9 35.4 7.2 66 27.4 101.3l0 0c72.8 127.7 54.7 207.8 37.4 244.1-19.4 40.7-55.7 67.4-102.3 75.1C832 959.2 820.6 960.2 810 960.2zM562.8 257.1c-33.4 0-66.3 6.6-97 19.9-61.9 26.7-89.1 74.3-101 109.4-15.6 46.2-14.2 99.7 3.9 146.8 17.5 45.4 48.6 77.9 92.5 96.5 35.1 14.9 69.4 17.2 86.7 17.2 48 0 132.6 18.2 160.5 140.1 20.7 90.6 41.1 133.3 101.1 133.3 8.5 0 17.8-0.9 28-2.6 33.8-5.6 59-23.9 72.7-52.9 23.7-49.9 10.6-125.4-36-207.1l0 0c-24.3-42.6-28.2-78.6-32.4-116.8-3.7-33.8-7.5-68.7-25.9-114.3-26.7-66.3-81.6-120.5-150.6-148.8C631.6 264 596.9 257.1 562.8 257.1z" fill="#272636" p-id="1550"></path><path d="M337.6 232.5c-38.1 0-69-31-69-69s31-69 69-69 69 31 69 69S375.7 232.5 337.6 232.5zM337.6 134.4c-16 0-29 13-29 29s13 29 29 29 29-13 29-29S353.6 134.4 337.6 134.4z" fill="#272636" p-id="1551"></path><path d="M486.3 173.7c-29.6 0-53.6-24.1-53.6-53.6s24.1-53.6 53.6-53.6 53.6 24.1 53.6 53.6S515.9 173.7 486.3 173.7zM486.3 106.4c-7.5 0-13.6 6.1-13.6 13.6 0 7.5 6.1 13.6 13.6 13.6 7.5 0 13.6-6.1 13.6-13.6C499.9 112.5 493.8 106.4 486.3 106.4z" fill="#272636" p-id="1552"></path><path d="M620.7 160.4c-24.3 0-44-19.7-44-44s19.7-44 44-44 44 19.7 44 44S645 160.4 620.7 160.4z" fill="#272636" p-id="1553"></path><path d="M748.8 198.4c-24.3 0-44-19.7-44-44s19.7-44 44-44 44 19.7 44 44S773.1 198.4 748.8 198.4z" fill="#272636" p-id="1554"></path></svg>