<svg xmlns="http://www.w3.org/2000/svg" viewBox="0 0 1024 1024" version="1.1"><path d="M869.5 920.1 154.9 920.1c-31.9 0-60.5-16.5-76.5-44.2-16-27.7-16-60.7 0-88.4l357.3-618.5c16-27.6 44.6-44.2 76.5-44.2 31.9-0 60.5 16.5 76.5 44.2l357.3 618.5c16 27.7 16 60.7 0 88.4C930 903.6 901.4 920.1 869.5 920.1zM512.2 169.1c-16 0-30.3 8.3-38.2 22.1l0 0L116.7 809.7c-8 13.8-8 30.3-0 44.2 8 13.8 22.3 22.1 38.3 22.1l714.6 0c16 0 30.3-8.3 38.3-22.1 8-13.8 8-30.3-0-44.2L550.4 191.2C542.5 177.4 528.2 169.1 512.2 169.1z" fill="#272636" p-id="1959"></path><path d="M513.7 621.1c-18.3 0-33.3-14.8-33.3-33.1L480.5 331.8c0-18.3 15-33.1 33.3-33.1 18.3 0 33.3 14.8 33.3 33.1l0 256.2C547 606.3 532 621.1 513.7 621.1z" fill="#272636" p-id="1960"></path><path d="M513.7 737.6m-50 0a48.9 48.9 0 1 0 100 0 48.9 48.9 0 1 0-100 0Z" fill="#272636" p-id="1961"></path></svg>