<svg xmlns="http://www.w3.org/2000/svg" viewBox="0 0 1024 1024" version="1.1"><path d="M807.7 65.3 216.3 65.3c-62.8 0-113.7 50.9-113.7 113.7l0 72.4c0 0 0 0 0 0 0 0 0 0 0 0l0 593.5c0 62.8 50.9 113.7 113.7 113.7l591.5 0c62.8 0 113.7-50.9 113.7-113.7L921.5 179C921.5 116.2 870.6 65.3 807.7 65.3zM216.3 106.7l591.5 0c40 0 72.4 32.4 72.4 72.4l0 51.7L143.9 230.7l0-51.7C143.9 139.1 176.3 106.7 216.3 106.7zM807.7 917.3 216.3 917.3c-40 0-72.4-32.4-72.4-72.4L143.9 272.1l736.2 0 0 572.9C880.1 884.9 847.7 917.3 807.7 917.3z" fill="#272636" p-id="983"></path><path d="M513 322.5c-150.5 0-273 122.5-273 273s122.5 273 273 273 273-122.5 273-273S663.5 322.5 513 322.5zM513 363.9c112.1 0 205.8 80 227.1 185.9-1.7 1.2-3.3 2.7-4.6 4.5-0.1 0.2-14.2 19.2-38 38.5-21.3 17.2-54.7 37.8-92.8 37.8-37.2 0-63.7-19.6-91.8-40.3-29.7-21.9-60.4-44.5-104-44.5-53.7 0-99.7 35.3-127.2 62.6-0.2-4.3-0.4-8.6-0.4-12.9C281.4 467.8 385.3 363.9 513 363.9zM513 827.1c-105.2 0-194.3-70.5-222.4-166.8 11.5-14.5 61.7-73.1 118.3-73.1 30 0 52.9 16.9 79.4 36.5 30.7 22.7 65.5 48.3 116.4 48.3 61.9 0 111.7-38.1 139.7-65.6C738.6 729.1 637.1 827.1 513 827.1z" fill="#272636" p-id="984"></path><path d="M254.5 202.6c17.1 0 31-13.9 31-31S271.6 140.5 254.5 140.5s-31 13.9-31 31S237.4 202.6 254.5 202.6z" fill="#272636" p-id="985"></path><path d="M357.9 202.6c17.1 0 31-13.9 31-31S375 140.5 357.9 140.5s-31 13.9-31 31S340.8 202.6 357.9 202.6z" fill="#272636" p-id="986"></path></svg>