<svg xmlns="http://www.w3.org/2000/svg" viewBox="0 0 1024 1024" version="1.1"><path d="M953.8 529.5c-7.9-42-34.7-73-77.4-89.7-26-10.1-52.9-13.1-71.5-13.7-9-15.9-23.4-37.2-43.3-55 8.6-20.4 14.5-40.4 17.6-60.1 10.1-62.9-8.2-120.9-54.2-172.4C625.5 27.3 481.6 93.3 425.6 126c-26.5-15.5-70.3-37.2-119.5-45.7-72.4-12.5-134.6 7.6-180 58.4C79.4 190.9 60.7 249.8 70.4 313.9c12.8 83.9 73.7 174.1 181.2 268 56.7 49.6 110.9 86.5 137.9 103.9-8.3 11.5-15.3 25.3-17.6 41.1-2.4 16.6-0.2 42 23.8 68.8 2.9 3.3 5.8 6.4 8.5 9.4 18.7 20.5 32.1 35.4 35.7 51 2.5 10.9 2.3 28.4-21.5 67.5-5.7 9.4-2.7 21.8 6.7 27.5 3.3 2 6.8 2.9 10.4 2.9 6.8 0 13.3-3.4 17.1-9.6 53-87.1 22.9-120.3-18.8-166.2-2.7-3-5.5-6.1-8.4-9.3-11.1-12.4-15.7-24.2-14-36.2 2.9-20.4 23.5-39 34.7-47 24.2-15.1 68.9-44.5 118.2-83.8 12.4 41.3 27.9 77 37.6 97.4-15.8 7.8-35.5 21.4-45.6 43.1-6.4 13.8-11.1 36.3 2.7 65.5 1.6 3.5 3.2 6.8 4.8 10 10.3 21.5 17.7 37 16.8 50.2-0.6 9.2-5 23.2-34 49.2-8.2 7.4-8.9 20-1.5 28.3 4 4.4 9.4 6.6 14.9 6.6 4.8 0 9.6-1.7 13.4-5.1 30.9-27.8 45.4-51.4 47.1-76.3 1.6-23.7-8.7-45.2-20.6-70.1-1.5-3.2-3.1-6.4-4.7-9.8-5.8-12.4-6.7-22.7-2.6-31.5 8-17.4 33.5-27.8 42.7-30.3 0.7-0.2 1.4-0.4 2-0.7 17.9-0.1 60.3-1.4 108.5-9.1 86.6-13.8 147.5-40.9 181-80.5C952.8 608.5 961.8 571.7 953.8 529.5zM110 307.8c-8-52.4 7.1-99 46-142.5 28.9-32.4 65.6-48.7 109.3-48.7 10.9 0 22.3 1 34.1 3.1 49.8 8.6 93.9 32.9 115.7 46.6 6.5 4.1 14.8 4.1 21.3 0 21.8-13.7 65.9-38 115.7-46.6 58.9-10.2 107.1 5.1 143.3 45.6 38.1 42.6 52.7 88.2 44.5 139.4-24.1 151.1-239.2 299.1-309.9 344-0.4 0.2-0.8 0.4-1.1 0.6-0.7 0.4-2 1.2-3.8 2.5-2.7 1.7-5.1 3.2-7.2 4.5C366.2 623.5 134.3 467.7 110 307.8zM896.5 613c-26.7 31.6-80.7 54.7-156.2 66.8-42.2 6.8-80.5 8.3-99.2 8.6-8.8-18.2-26.7-57.6-39.7-102.6-1.1-3.8-3.2-6.9-5.9-9.4 67.2-57.5 116.5-113.6 147.4-167.6 16.5 17.4 27.5 37.3 32.1 46.4 3.4 6.8 10.3 11.1 17.9 11.1 0.1 0 0.2 0 0.3 0 14.4 0 42.5 0.8 68.6 11 30 11.7 47.3 31.2 52.6 59.7C920.2 567.1 914.3 592 896.5 613z" fill="#272636" p-id="1093"></path></svg>