<svg xmlns="http://www.w3.org/2000/svg" viewBox="0 0 1024 1024" version="1.1"><path d="M860.9 455.5c42.2-19.7 74.3-57.1 89.5-105.6 28.9-91.8-19.2-191.4-107.1-222.1-65-22.7-134.7-1.5-178.4 48.9-51.2-55.7-118-93-191.7-106.3-86.4-15.6-174.5 3.2-248.2 53-78.1 52.8-132 134.3-151.6 229.5-19.6 95-2.8 192.4 47.3 274.3 31.1 50.7 74 92.9 124.1 122 3.1 1.8 6.6 2.7 10 2.7 5.6 0 11-2.3 14.9-6.7 6.3-7.1 6.8-17.6 1.1-25.3-2.1-2.8-4.3-5.4-6.4-7.8-3.7-4.3-7.2-8.4-8.1-11.6-24.2-86.6-29.3-176.5-14.3-252.9 17.4-89.1 59.9-157.1 126.1-201.8 66.1-44.7 133.6-60.4 201.7-47-17.9 2.1-35.7 6.5-52.9 13-54.1 20.6-98.6 61.4-125.1 114.9-58.1 117.1-14.5 262.2 97.3 323.4 32.8 18 69.5 27.4 106.4 27.4 1 0 2-0 3.1-0 9.4-0.1 17.5-6.8 19.3-16.1 1.8-9.3-3-18.5-11.7-22.3-5.5-2.4-10.8-5-15.9-7.7-55-30.1-75.1-79.4-82.3-115.5-10-49.9-1.8-104.9 23.1-155 22.2-44.7 48.2-74.8 79.5-91.4 43.8 68.4 68.3 144 73 224.8 3.8 67-5.9 137.9-29 210.8-36.5 115.4-95.5 199.5-105.1 212.7l-54.8 0c0.6-1.8 0.9-3.8 0.9-5.8 0-23.3-7.9-44.7-21.1-61.7l37.1 0c11 0 20-8.9 20-20s-9-20-20-20L163.6 810.1c-11 0-20 8.9-20 20s9 20 20 20l49 0c-13.2 17-21.1 38.5-21.1 61.7 0 2 0.3 4 0.9 5.8L83.6 917.5c-11 0-20 9.4-20 20.5s9 20.5 20 20.5l849.2 0c11 0 20-9.2 20-20.2 0-122.2-13.8-236.2-41.1-338.4C898 548.7 881.1 500.5 860.9 455.5zM820.7 377.1c-33.5-57.1-67-97.1-92.3-123 1.8 0.5 3.6 1.1 5.3 1.7 52.5 18.3 86.4 68.9 88.5 124C821.7 378.9 821.2 378 820.7 377.1zM830.2 165.6c67.7 23.6 104.5 101 82.1 172.4-9.6 30.7-27.7 55.5-51.5 71.8 11-82.4-35.6-164.3-113.8-191.6-17.5-6.1-35.5-9.1-53.5-9.1-0.8 0-1.6 0-2.5 0-0.1-0.2-0.1-0.3-0.2-0.5C723.5 166.2 778.9 147.6 830.2 165.6zM346 212.4c-74.3 50.2-123.8 128.8-143 227.3-13.9 70.9-11.8 152.1 5.4 232.4-20.4-19.3-38.5-41.5-53.5-65.9-92.5-150.9-51-352.7 92.6-449.7 50.1-33.9 107.7-51.5 166.3-51.5 17.4 0 34.9 1.6 52.3 4.7 44.3 8 85.8 25.9 122.1 52C506.4 142.7 424.1 159.7 346 212.4zM495.4 342.9c-28.8 58-38.2 122.1-26.5 180.6 7.1 35.3 21.7 66.9 42.6 92.9-1-0.5-2-1.1-3-1.6-93.2-51-129.4-172.3-80.7-270.5 22.1-44.5 58.8-78.3 103.5-95.3 17.6-6.7 35.9-10.6 54.2-11.6C549.8 258.4 520 293.5 495.4 342.9zM231.4 911.7c0-33.2 26.5-60.1 59.2-60.1 2.8 0 5.4-0.6 7.8-1.6l90.3 0c2.4 1 5 1.6 7.8 1.6 32.6 0 59.2 27 59.2 60.1 0 2 0.3 4 0.9 5.8l-226 0C231.1 915.7 231.4 913.7 231.4 911.7zM598.2 917.5c23.5-36.2 65.2-107.7 94.4-199.4 24.7-77.6 35.2-153.5 31.2-225.6-4.7-84.8-29.6-164.3-74.1-236.6 6.2-1.1 12.6-1.9 19.2-2.2 16.9 13.4 66.9 57.5 117.4 143.6 9.7 16.5 18.9 33.7 27.5 51.5 0.7 3.1 2.1 6.1 4.1 8.6 22.2 47 40.7 98 55.2 152.5 24.9 93.2 38.2 197.1 39.6 307.6L598.2 917.5z" fill="#272636" p-id="1044"></path></svg>