<svg xmlns="http://www.w3.org/2000/svg" viewBox="0 0 1024 1024" version="1.1"><path d="M84.5 830.1c39.4 0 61.3-19.5 80.5-36.8 18-16.2 32.3-28.9 61.3-28.9 26.7 0 37.2 10.9 51.8 25.9 17.2 17.7 38.6 39.8 86.1 39.8 46.2 0 69.9-21.2 88.9-38.2 17.2-15.4 30.8-27.6 60.8-27.6 29.6 0 41.4 11.4 57.7 27.1 17.8 17.2 40 38.6 86.3 38.6 45.6 0 70.3-20.1 92-37.8 19.2-15.6 34.3-27.9 63.7-27.9 30.3 0 42.2 12.9 57.4 29.3 15 16.2 33.7 36.4 69.9 36.4 11 0 20-9 20-20s-9-20-20-20c-17.9 0-26.2-8.1-40.5-23.6-16.5-17.8-39-42.1-86.8-42.1-43.6 0-67.7 19.6-89 36.9-19.8 16.1-35.4 28.8-66.8 28.8-30.2 0-42.7-12.1-58.5-27.4-17.7-17.1-39.7-38.4-85.5-38.4-45.3 0-68.7 20.9-87.5 37.8-17.5 15.6-31.2 28-62.2 28-30.6 0-41.9-11.6-57.4-27.6-16.4-17-36.9-38.1-80.5-38.1-44.3 0-68.5 21.7-88 39.1-16.6 14.9-29.7 26.6-53.8 26.6-11 0-20 9-20 20S73.5 830.1 84.5 830.1z" fill="#272636" p-id="1384"></path><path d="M940.9 918.4c-17.9 0-26.2-8.1-40.5-23.6-16.5-17.8-39-42.1-86.8-42.1-43.6 0-67.7 19.6-89 36.9-19.8 16.1-35.4 28.8-66.8 28.8-30.2 0-42.7-12.1-58.5-27.4-17.7-17.1-39.7-38.4-85.5-38.4-45.3 0-68.7 20.9-87.5 37.8-17.5 15.6-31.2 28-62.2 28-30.6 0-41.9-11.6-57.4-27.6-16.4-17-36.9-38.1-80.5-38.1-44.3 0-68.5 21.7-88 39.1-16.6 14.9-29.7 26.6-53.8 26.6-11 0-20 9-20 20s9 20 20 20c39.4 0 61.3-19.6 80.5-36.8 18-16.2 32.3-28.9 61.3-28.9 26.7 0 37.2 10.9 51.8 25.9 17.2 17.7 38.6 39.8 86.1 39.8 46.2 0 69.9-21.2 88.9-38.2 17.2-15.4 30.8-27.6 60.8-27.6 29.6 0 41.4 11.4 57.7 27.1 17.8 17.2 40 38.6 86.3 38.6 45.6 0 70.3-20.1 92-37.8 19.2-15.6 34.3-27.9 63.7-27.9 30.3 0 42.2 12.9 57.4 29.3 15 16.2 33.7 36.4 69.9 36.4 11 0 20-9 20-20S951.9 918.4 940.9 918.4z" fill="#272636" p-id="1385"></path><path d="M337.7 719.9c11 0 20-9 20-20l0-96.5 347.9 0 0 96.5c0 11 8.9 20 20 20s20-9 20-20L745.5 320.7c0-61.5 18.7-116.4 52.4-154.6 34.5-39 83.1-59.7 140.4-59.7 11 0 20-9 20-20 0-11-9-20-20-20-69.1 0-128 25.3-170.3 73.2-40.2 45.5-62.4 109.8-62.4 181.1l0 1.2-347.9 0 0-1.2c0-61.5 18.6-116.4 52.3-154.6 34.5-39 83-59.7 140.2-59.7 11 0 20-9 20-20 0-11-8.9-20-20-20-69.1 0-127.9 25.3-170.2 73.2-40.2 45.5-62.2 109.8-62.2 181.1l0 379.2C317.8 710.9 326.7 719.9 337.7 719.9zM705.6 361.9l0 201.6-347.9 0 0-201.6L705.6 361.9z" fill="#272636" p-id="1386"></path></svg>