<svg xmlns="http://www.w3.org/2000/svg" viewBox="0 0 1024 1024" version="1.1"><path d="M858.4 65.3 258.7 65.3c-62.7 0-113.7 51-113.7 113.7l0 674.2c0 58.2 47.3 105.5 105.5 105.5l608 0c11.4 0 20.7-9.3 20.7-20.7L879.1 86C879.1 74.5 869.8 65.3 858.4 65.3zM734.3 106.7l0 340.3-48.6-36.3c-3.7-2.7-8-4.1-12.4-4.1s-8.7 1.4-12.4 4.1l-48.6 36.3L612.3 106.7 734.3 106.7zM258.7 106.7l312.3 0 0 381.6c0 7.8 4.4 15 11.4 18.5 7 3.5 15.4 2.8 21.6-1.9l69.3-51.8 69.3 51.8c3.6 2.7 8 4.1 12.4 4.1 3.2 0 6.3-0.7 9.3-2.2 7-3.5 11.4-10.7 11.4-18.5L775.7 106.7l62 0L837.7 747.8 250.4 747.8c-24.1 0-46.3 8.1-64.1 21.8L186.3 179C186.3 139.1 218.7 106.7 258.7 106.7zM250.4 917.3c-35.4 0-64.1-28.8-64.1-64.1s28.8-64.1 64.1-64.1l587.3 0 0 43.8L260 832.9c-11.4 0-20.7 9.3-20.7 20.7s9.3 20.7 20.7 20.7l577.8 0 0 43.1L250.4 917.3z" fill="#272636" p-id="945"></path></svg>