<svg xmlns="http://www.w3.org/2000/svg" viewBox="0 0 1024 1024" version="1.1"><path d="M818.5 747.4 818.5 370c0-80.3-30.9-156.1-86.9-213.5-56.2-57.6-131.3-90-211.3-91.1-5.5-0.1-11-0.1-16.5 0-80.7 1.2-156.2 33.8-212.9 91.8-56.4 57.8-87.5 134.2-87.5 215l0 374.2c0 0-0.3 12.5 0.9 15.1 6.9 56.2 54.6 100 112.5 100.6l-77.3 59.2c-9.1 7-10.9 20.1-3.9 29.2 4.1 5.4 10.3 8.2 16.6 8.2 4.4 0 8.9-1.4 12.7-4.3l40-30.7c0 0 405.8-0.3 407.5-0.7l40.9 31.4c3.8 2.9 8.2 4.3 12.7 4.3 6.3 0 12.5-2.8 16.6-8.2 7-9.1 5.3-22.2-3.9-29.2l-77.2-59.2 2.3 0C767.1 862.1 818.5 810.6 818.5 747.4zM320.8 186.3c48.9-50.1 114.1-78.2 183.6-79.2 2.5-0 5.1-0.1 7.7-0.1 2.6 0 5.1 0 7.7 0.1 69 1 133.6 28.9 182.1 78.6 48.4 49.6 75 115.1 75 184.4l0 361.9L245.1 731.9 245.1 372.2C245.1 302.3 272 236.3 320.8 186.3zM250 773.6l521.9 0c-10.6 27.3-37.1 46.8-68.1 46.8L318.1 820.4C287.1 820.4 260.5 800.9 250 773.6zM659 882 359.3 882l26-20L633 862.1 659 882z" fill="#272636" p-id="754"></path><path d="M311.8 440.9l398.3 0c11.5 0 20.9-9.3 20.9-20.9L730.9 299.1c0-11.5-9.3-20.9-20.9-20.9L311.8 278.2c-11.5 0-20.9 9.3-20.9 20.9l0 120.9C291 431.6 300.3 440.9 311.8 440.9zM689.2 399.2 529.7 399.2c0-0.3 0-0.6 0-0.9l0-78.3 159.5 0L689.2 399.2zM332.7 319.9l155.4 0 0 78.3c0 0.3 0 0.6 0 0.9L332.7 399.2 332.7 319.9z" fill="#272636" p-id="755"></path><path d="M509.9 522.3c-47 0-85.2 38.2-85.2 85.2 0 47 38.2 85.2 85.2 85.2s85.2-38.2 85.2-85.2C595.1 560.5 556.9 522.3 509.9 522.3zM509.9 650.9c-24 0-43.5-19.5-43.5-43.5 0-24 19.5-43.5 43.5-43.5 24 0 43.5 19.5 43.5 43.5C553.4 631.4 533.9 650.9 509.9 650.9z" fill="#272636" p-id="756"></path><path d="M444.3 225.2 573.5 225.2c11.5 0 20.9-9.3 20.9-20.9 0-11.5-9.3-20.9-20.9-20.9L444.3 183.5c-11.5 0-20.9 9.3-20.9 20.9C423.4 215.9 432.7 225.2 444.3 225.2z" fill="#272636" p-id="757"></path></svg>