<svg xmlns="http://www.w3.org/2000/svg" viewBox="0 0 1024 1024" version="1.1"><path d="M818.7 208.2c-8.2-30.5-27.7-55.9-55-71.7l-96-55.4c-56.4-32.6-128.8-13.2-161.3 43.2L209.6 638.4c-5.4 4.1-8.8 10.7-8.4 18l15.2 282.4c0.4 7.1 4.4 13.6 10.6 17.2 3.2 1.9 6.9 2.8 10.5 2.8 3.3 0 6.6-0.8 9.7-2.3L497.5 827.3c4.3-2.2 7.5-5.7 9.4-9.8l279.4-483.9c0.3-0.4 0.6-0.8 0.9-1.3 0.4-0.6 0.7-1.2 1-1.9l18.8-32.5C822.7 270.5 826.9 238.7 818.7 208.2zM589 110c19.6-5.2 40-2.6 57.6 7.6l96 55.4c17.6 10.1 30.1 26.5 35.4 46.1 5.2 19.6 2.6 40-7.6 57.6l-9.3 16.1L533.6 161.5l9.3-16.1C553.1 127.8 569.4 115.3 589 110zM512.5 198l227.5 131.3L496.9 750.4l-4.2-19.6c-2.1-9.9-10.9-16.7-20.6-16.7-1.4 0-2.8 0.1-4.2 0.4l-50.2 10.2-13.9-46.6c-3.1-10.5-13.7-16.8-24.4-14.7l-50 10.2-13.3-46.1c-1.6-5.5-5.3-10-10.3-12.7-5-2.7-10.9-3.2-16.3-1.5l-20.4 6.4L512.5 198zM244.3 671.7l37.2-11.7 12.7 44c3.1 10.6 13.7 17 24.5 14.8l50.2-10.2 13.9 46.6c3.1 10.5 13.7 16.8 24.4 14.7l48.6-9.9 7.9 37.2L256.8 903.9 244.3 671.7z" fill="#272636" p-id="673"></path></svg>