<svg xmlns="http://www.w3.org/2000/svg" viewBox="0 0 1024 1024" version="1.1"><path d="M954.4 263.8l-82.6-98.1c-3.9-4.7-9.7-7.4-15.8-7.4L577.1 158.4 577.1 87.1c0-11.4-9.2-20.7-20.7-20.7l-86.8 0c-11.4 0-20.7 9.2-20.7 20.7L449 272 171.2 272c-6.3 0-12.3 2.9-16.2 7.9L70.3 387.3c-5.9 7.5-5.9 18.1 0 25.6l84.7 107.4c3.9 5 9.9 7.9 16.2 7.9l277.9 0 0 299.3-135.3 0c-11.4 0-20.7 9.2-20.7 20.7l0 86.8c0 11.4 9.2 20.7 20.7 20.7l396.6 0c11.4 0 20.7-9.2 20.7-20.7l0-86.8c0-11.4-9.2-20.7-20.7-20.7L577.1 827.5 577.1 669.7l159.4 0c5.2 0 10.1-1.9 14-5.4l76.1-69.7c4.3-3.9 6.7-9.4 6.7-15.2s-2.4-11.3-6.7-15.2l-76.1-69.7c-3.8-3.5-8.8-5.4-14-5.4L577.1 488.9l0-93 278.9 0c6.1 0 11.9-2.7 15.8-7.4l82.6-98.1C960.9 282.8 960.9 271.5 954.4 263.8zM181.2 486.8l-68.4-86.8 68.4-86.8 267.8 0 0 173.5L181.2 486.8zM689.7 914.2l-355.3 0 0-45.4 355.3 0L689.7 914.2zM490.3 827.5 490.3 107.7l45.4 0 0 719.7L490.3 827.5zM728.5 530.2l53.5 49.1-53.5 49.1L577.1 628.4l0-98.2L728.5 530.2zM846.3 354.6 577.1 354.6l0-154.9 269.3 0 65.2 77.5L846.3 354.6z" fill="#272636" p-id="814"></path></svg>