<svg xmlns="http://www.w3.org/2000/svg" viewBox="0 0 1024 1024" version="1.1"><path d="M590.5 958.2c-0 0-0 0-0 0-30.3-0-58.7-11.8-80.1-33.2L97.1 511.8c-23.4-23.4-35.4-55.8-32.9-88.8l18.3-238c4.2-54.3 50-100.1 104.3-104.3l238-18.3c33-2.5 65.4 9.4 88.8 32.8l413.2 413.2c44.2 44.2 44.2 116.1 0 160.2L670.6 925.1C649.2 946.4 620.8 958.2 590.5 958.2zM433.6 104.8c-1.8 0-3.6 0.1-5.5 0.2l-238 18.3c-33.3 2.6-62.4 31.7-65 65l0 0L106.9 426.3c-1.6 20.6 5.9 40.7 20.5 55.3l413.2 413.2c13.3 13.4 31.1 20.7 49.9 20.7 0 0 0 0 0 0 18.7 0 36.2-7.2 49.5-20.3l0.4-0.4L896.7 638.6c27.5-27.5 27.5-72.3-0-99.9L483.5 125.5C470.2 112.2 452.3 104.8 433.6 104.8z" fill="#272636" p-id="1167"></path><path d="M349.6 458c-64.7 0-117.3-52.6-117.3-117.3s52.6-117.3 117.3-117.3 117.3 52.6 117.3 117.3S414.2 458 349.6 458zM349.6 266.1c-41.1 0-74.6 33.5-74.6 74.6s33.5 74.6 74.6 74.6 74.6-33.5 74.6-74.6S390.7 266.1 349.6 266.1z" fill="#272636" p-id="1168"></path></svg>