<svg xmlns="http://www.w3.org/2000/svg" viewBox="0 0 1025 1024" version="1.1"><path d="M973.5 507.5c-1.2-3-123.9-298.4-453.7-298.4S67.3 504.5 66.1 507.5c-3.7 9.3-2.9 19.8 2.3 28.4 7.2 12 179.7 293.8 451.4 293.8 271.8 0 444.2-281.8 451.4-293.8C976.4 527.3 977.3 516.8 973.5 507.5zM519.8 765.7c-203.7 0-350.7-194.9-387.6-249 27.3-55.3 138.4-243.6 387.6-243.6 249.2 0 360.4 188.4 387.6 243.6C870.5 570.8 723.5 765.7 519.8 765.7z" fill="#272636" p-id="2503"></path><path d="M519.8 308.6c-114.7 0-208 93.3-208 208s93.3 208 208 208 208-93.3 208-208S634.5 308.6 519.8 308.6zM519.8 660.6c-79.4 0-144-64.6-144-144s64.6-144 144-144 144 64.6 144 144S599.2 660.6 519.8 660.6z" fill="#272636" p-id="2504"></path></svg>