<svg xmlns="http://www.w3.org/2000/svg" viewBox="0 0 1024 1024" version="1.1"><path d="M957.2 504.2c-1.2-3-30.4-74.5-99.7-146.4-40.8-42.4-87.1-76.2-137.7-100.4-63.2-30.3-133.1-45.7-207.8-45.7s-144.5 15.4-207.8 45.7c-50.6 24.3-96.9 58.1-137.7 100.4-69.3 72-98.5 143.4-99.7 146.4-2.4 6-1.9 12.9 1.5 18.5 1.8 3 44.3 73.2 119.8 144.2 44.6 42 91.4 75.4 139.2 99.5 60.5 30.5 122.6 45.9 184.7 45.9s124.3-15.4 184.7-45.9c47.8-24.1 94.7-57.6 139.2-99.5 75.5-71 118-141.3 119.8-144.2C959.1 517.1 959.6 510.3 957.2 504.2zM806.7 637.4c-41.6 39-85 70-129.2 92.2-54.4 27.3-110.1 41.2-165.5 41.2s-111.1-13.9-165.5-41.2c-44.1-22.2-87.6-53.2-129.2-92.2-56.3-52.8-94-106.4-107.7-127.1 9.9-20.7 37.3-72.2 86.8-123.6 37.4-38.8 79.7-69.7 125.7-91.8 57.6-27.6 121.4-41.6 189.8-41.6 68 0 131.6 13.9 188.9 41.2 46 21.9 88.2 52.6 125.5 91.1 50 51.6 77.9 103.9 87.9 124.8C900.6 531.1 863 584.6 806.7 637.4z" fill="#272636" p-id="791"></path><path d="M512 314.5c-107.6 0-195.1 87.5-195.1 195.1 0 107.6 87.5 195.1 195.1 195.1S707.1 617.2 707.1 509.6C707.1 402 619.6 314.5 512 314.5zM512 663.2c-84.7 0-153.6-68.9-153.6-153.6s68.9-153.6 153.6-153.6 153.6 68.9 153.6 153.6S596.7 663.2 512 663.2z" fill="#272636" p-id="792"></path></svg>