<svg xmlns="http://www.w3.org/2000/svg" viewBox="0 0 1024 1024" version="1.1"><path d="M954.8 619.7l-82.7-82.7c-7.8-7.8-20.5-7.8-28.3 0l-82.7 82.7c-7.8 7.8-7.8 20.5 0 28.3 7.8 7.8 20.5 7.8 28.3 0l50.1-50.1c-1.4 98.7-34.2 181-95.2 238.5-53.8 50.7-128.8 80.2-212.6 84L531.6 422.2l108.2 0c11 0 20-9.4 20-20.5s-9-20.5-20-20.5L531.6 381.3l0-44.1c66.1-9.2 117.1-66.1 117.1-134.7 0-75-61-136.1-136.1-136.1-75 0-136.1 61-136.1 136.1 0 67.9 50 124.3 115.1 134.4l0 44.4L377.7 381.3c-11.1 0-20 9.4-20 20.5s9 20.5 20 20.5l114 0 0 498c-83-4.2-157.1-33.6-210.5-83.9-60.6-57.1-93.4-138.7-95.2-236.5l48.2 48.2c3.9 3.9 9 5.9 14.1 5.9s10.2-2 14.1-5.9c7.8-7.8 7.8-20.5-0-28.3l-82.7-82.7c-7.8-7.8-20.5-7.8-28.3 0l-82.7 82.7c-7.8 7.8-7.8 20.5-0 28.3 7.8 7.8 20.5 7.8 28.3 0l49-49c1.6 109.5 38.8 201.5 107.8 266.4 65.3 61.5 157.3 95.3 259 95.3 101.7 0 193.6-33.9 259-95.3 68.6-64.6 105.7-155.9 107.8-264.5l47 47c3.9 3.9 9 5.9 14.1 5.9s10.2-2 14.1-5.9C962.6 640.2 962.6 627.5 954.8 619.7zM416.7 202.5c0-53 43.1-96 96-96 53 0 96 43.1 96 96 0 51.6-40.9 93.8-92 96-1.6-0.4-3.3-0.7-5.1-0.7-1.6 0-3.2 0.2-4.7 0.6C456.7 295.3 416.7 253.5 416.7 202.5z" fill="#272636" p-id="1888"></path></svg>