<svg xmlns="http://www.w3.org/2000/svg" viewBox="0 0 1024 1024" version="1.1"><path d="M891.8 706.1l-137.4-79.3 129.4-40.4c10.9-3.4 17-15 13.6-25.9-3.4-10.9-15-17-25.9-13.6L705.7 598.6l-152.3-87.9L703 424.3l168.5 52.6c2.1 0.6 4.1 0.9 6.2 0.9 8.8-0 17-5.7 19.7-14.5 3.4-10.9-2.7-22.5-13.6-25.9l-132.1-41.3 139.1-80.3c9.9-5.7 13.3-18.4 7.6-28.3-5.7-9.9-18.4-13.3-28.3-7.6l-137.4 79.3 29.7-132.3c2.5-11.1-4.5-22.2-15.7-24.7-11.2-2.5-22.2 4.5-24.7 15.7l-38 169.5-151.3 87.3 0-172.5 128.8-118.6c8.4-7.7 8.9-20.8 1.2-29.2-7.7-8.4-20.8-8.9-29.2-1.2l-100.7 92.8L532.7 86c0-11.4-9.3-20.7-20.7-20.7-11.4 0-20.7 9.3-20.7 20.7l0 160.2-100.8-92.8c-8.4-7.7-21.5-7.2-29.2 1.2-7.7 8.4-7.2 21.5 1.2 29.2l128.8 118.7 0 172.4L340.6 387.9l-38-169.5c-2.5-11.1-13.6-18.2-24.7-15.7-11.1 2.5-18.2 13.6-15.7 24.7l29.7 132.3L153.9 280.1c-9.9-5.7-22.5-2.3-28.3 7.6-5.7 9.9-2.3 22.5 7.6 28.3l139.7 80.6-132.1 41.3c-10.9 3.4-17 15-13.6 25.9 2.8 8.8 10.9 14.5 19.7 14.5 2 0 4.1-0.3 6.2-0.9l168.5-52.6 149 86L318.9 598.3l-165.8-51.8c-10.9-3.4-22.5 2.7-25.9 13.6-3.4 10.9 2.7 22.5 13.6 25.9l129.4 40.4-138 79.7c-9.9 5.7-13.3 18.4-7.6 28.3 3.8 6.6 10.8 10.3 17.9 10.3 3.5 0 7.1-0.9 10.3-2.8l139.7-80.6-30.3 135c-2.5 11.1 4.5 22.2 15.7 24.7 1.5 0.3 3 0.5 4.5 0.5 9.5 0 18-6.5 20.2-16.2l38.6-172.2 150.1-86.7 0 175.5L362.5 840.7c-8.4 7.7-8.9 20.8-1.2 29.2 7.7 8.4 20.8 8.9 29.2 1.2l100.8-92.8 0 159.8c0 11.4 9.3 20.7 20.7 20.7 11.4 0 20.7-9.3 20.7-20.7L532.7 778.3l100.7 92.8c4 3.7 9 5.5 14 5.5 5.6 0 11.1-2.2 15.2-6.7 7.7-8.4 7.2-21.5-1.2-29.2L532.7 722.1 532.7 546.5l150.6 87L722 805.7c2.2 9.6 10.7 16.2 20.2 16.2 1.5 0 3-0.2 4.5-0.5 11.1-2.5 18.2-13.6 15.7-24.7l-30.3-135 139.1 80.3c3.3 1.9 6.8 2.8 10.3 2.8 7.1 0 14.1-3.7 17.9-10.3C905.1 724.5 901.7 711.8 891.8 706.1z" fill="#272636" p-id="803"></path></svg>