<svg xmlns="http://www.w3.org/2000/svg" viewBox="0 0 1024 1024" version="1.1"><path d="M953.2 398.3c-0.6-0.7-398.5-322.7-398.5-322.7-0.5-0.4-1-0.8-1.5-1.1-30.2-20.2-62.7-19.1-91.4 3.1-0.1 0.1-0.2 0.2-0.3 0.3L67.5 395.3c-0.7 0.6-1.4 1.2-2.1 1.9-25.7 27.4-24.3 70.6 3.2 96.3l1.5 1.4c25.3 23.7 64.1 24.3 90.1 2.7l0 429.1-56.9 0c-11.1 0-20 9-20 20 0 11 9 20 20 20l805.1 0c11 0 20-9 20-20 0-11-9-20-20-20L858.8 926.8 858.8 498.9c11.5 9.5 25.8 14.9 41 15.5 0.8 0 1.5 0 2.3 0 17.3 0 33.8-6.5 46.5-18.4l1.5-1.4c13.3-12.4 20.9-29.3 21.5-47.5C972.2 428.9 965.7 411.6 953.2 398.3zM818.7 822.3 703.6 822.3 703.6 577.7c0-40.4-32.4-73.3-72.7-73.3s-72.7 32.9-72.7 73.3l0 244.7L200.2 822.3 200.2 466.1l308.7-237.9 309.9 239.1L818.7 822.3zM598.2 925.7 598.2 577.7c0-18.3 14.5-33.3 32.7-33.3s32.7 14.9 32.7 33.3l0 348L598.2 925.7zM200.2 862.3l358.1 0 0 64.5L200.2 926.8 200.2 862.3zM703.6 926.8l0-64.5 115.2 0 0 64.5L703.6 926.8zM931.6 445.8c-0.2 7.5-3.4 14.5-8.9 19.6l-1.5 1.4c-5.5 5.1-12.6 7.9-20.1 7.6-7.5-0.2-14.5-3.4-19.6-8.9-0.7-0.8-1.5-1.5-2.4-2.2L521.1 187.1c-3.6-2.8-7.9-4.2-12.2-4.2-4.3 0-8.6 1.4-12.2 4.2L139.6 462.2c-0.9 0.7-1.7 1.4-2.4 2.2-10.6 11.3-28.4 11.9-39.8 1.3l-1.5-1.4c-11-10.3-11.9-27.5-2.1-38.8L486.4 109.1c14.5-11.1 28.5-11.7 43.8-1.8l394.5 319.2C929.4 431.9 931.8 438.7 931.6 445.8z" fill="#272636" p-id="1807"></path><path d="M366.4 506.6c-40.3 0-73.2 32.9-73.2 73.3l0 142.2 146.3 0L439.5 579.9C439.5 539.5 406.6 506.6 366.4 506.6zM399.6 682.2l-65.5 0 0-102.3c0-18.3 14.5-33.3 32.7-33.3s32.7 14.9 32.7 33.3L399.6 682.2z" fill="#272636" p-id="1808"></path></svg>