<svg xmlns="http://www.w3.org/2000/svg" viewBox="0 0 1024 1024" version="1.1"><path d="M939.9 299.4 83.6 299.4c-16.6 0-30-13.1-30-29.7s13.4-29.7 30-29.7L939.9 240.1c16.6 0 30 13.1 30 29.7S956.5 299.4 939.9 299.4z" fill="#272636" p-id="1456"></path><path d="M785.8 546.1 83.6 546.1c-16.6 0-30-13.6-30-30.2s13.4-30.2 30-30.2L785.8 485.7c16.6 0 30 13.6 30 30.2S802.4 546.1 785.8 546.1z" fill="#272636" p-id="1457"></path><path d="M939.9 791.6 83.6 791.6c-16.6 0-30-13.1-30-29.7s13.4-29.7 30-29.7L939.9 732.3c16.6 0 30 13.1 30 29.7S956.5 791.6 939.9 791.6z" fill="#272636" p-id="1458"></path></svg>