<svg xmlns="http://www.w3.org/2000/svg" viewBox="0 0 1024 1024" version="1.1"><path d="M829.5 281.6c56.2 0 101.8-45.7 101.8-101.8 0-56.2-45.7-101.8-101.8-101.8-56.2 0-101.8 45.7-101.8 101.8C727.7 236 773.4 281.6 829.5 281.6zM829.5 118.7c33.7 0 61.1 27.4 61.1 61.1s-27.4 61.1-61.1 61.1-61.1-27.4-61.1-61.1S795.8 118.7 829.5 118.7z" fill="#272636" p-id="1079"></path><path d="M822.5 528.1c3.6 2.5 7.7 3.8 11.8 3.8 6.3 0 12.6-2.9 16.5-8.4L954.1 380.3c6.6-9.1 4.5-21.9-4.6-28.4-9.1-6.6-21.9-4.5-28.4 4.6l-91.4 126.6-89.5-63.6 33.1-46.5c19.8-27.8 13.3-66.5-14.5-86.3-19-13.5-43-14.7-62.7-5.3-5.1-25.7-19.2-49.7-41.6-66.8l-49.9-38.3c-23.7-18.2-53.2-26.1-82.8-22.2-29.7 3.9-56 19.1-74.2 42.9l-64.9 84.6c-11.6 15.1-19 32.6-21.9 51L179.3 332.7c-11.2 0-20.4 9.1-20.4 20.3s9.1 20.3 20.4 20.3l182.6 0c5.5 26.1 20 49.1 41.4 65.5l49.9 38.3c19.8 15.2 43.5 23.2 68 23.2 3.4 0 6.9-0.2 10.4-0.5-13 21.5-11.5 48.3 2.5 68L283.9 911.3c-6.6 9.1-4.6 21.8 4.5 28.5 3.6 2.6 7.8 3.9 12 3.9 6.3 0 12.5-2.9 16.5-8.4l250.4-344c5.6 1.6 11.3 2.4 17.1 2.4 2.9 0 12.7 0.5 14.9 0.5l209.6 0-171.2 277.2c-5.9 9.6-2.9 21.9 6.6 27.8 3.3 2.1 7 3 10.7 3 6.8 0 13.5-3.5 17.4-9.7l190.4-308.5c3.9-6.3 4.1-14.3 0.5-20.7-3.6-6.4-10.4-10.7-17.8-10.7L645.6 552.5l70.9-99.7L822.5 528.1zM477.9 444.7l-49.9-38.3c-15.1-11.6-24.8-28.4-27.3-47.2-2.5-18.9 2.5-37.6 14.1-52.7l64.9-84.6c11.6-15.1 28.4-24.8 47.2-27.3 3.2-0.4 6.3-0.6 9.5-0.6 15.6 0 30.7 5.1 43.2 14.7l49.9 38.3c18.1 13.9 27.6 34.7 27.8 55.9l-89.4-68.2c-8.6-6.5-20.8-5.3-27.8 2.9L426.2 370.5c-7.3 8.5-6.4 21.4 2.2 28.7 3.8 3.3 8.6 4.9 13.3 4.9 5.7 0 11.4-2.4 15.5-7.1l101.5-118.2 84.2 64.2-39.4 55.4-25.5 33.2c-11.6 15.1-28.4 24.8-47.2 27.3C511.8 461.3 493.1 456.3 477.9 444.7zM567.1 519.6l69-97 69.4-97.6c6.8-9.5 20-11.7 29.5-5 9.5 6.8 11.7 20 5 29.5L601.6 544.1c-6.8 9.5-20 11.7-29.5 5C562.6 542.3 560.4 529.1 567.1 519.6z" fill="#272636" p-id="1080"></path><path d="M87.7 558.7l360.7 0c11.2 0 20.4-9.1 20.4-20.3 0-11.2-9.1-20.3-20.4-20.3L87.7 518.1c-11.2 0-20.4 9.1-20.4 20.3C67.3 549.6 76.4 558.7 87.7 558.7z" fill="#272636" p-id="1081"></path><path d="M336.4 723.8c0-11.2-9.1-20.3-20.4-20.3L87.7 703.5c-11.2 0-20.4 9.1-20.4 20.3 0 11.2 9.1 20.3 20.4 20.3l228.4 0C327.3 744.1 336.4 735.1 336.4 723.8z" fill="#272636" p-id="1082"></path></svg>