<svg xmlns="http://www.w3.org/2000/svg" viewBox="0 0 1024 1024" version="1.1"><path d="M483.9 483.8 184.6 483.8c-60.7 0-110-49.4-110-110L74.5 184.5c0-60.7 49.4-110 110-110l189.3 0c60.7 0 110 49.4 110 110L483.9 483.8zM184.6 114.4c-38.6 0-70 31.4-70 70l0 189.3c0 38.6 31.4 70 70 70l259.3 0L443.9 184.5c0-38.6-31.4-70-70-70L184.6 114.4z" fill="#272636" p-id="1336"></path><path d="M840.9 483.8 539.6 483.8 539.6 184.5c0-60.7 49.4-110 110-110L840.9 74.4c60.7 0 110 49.4 110 110l0 189.3C950.9 434.4 901.6 483.8 840.9 483.8zM579.6 443.7 840.9 443.7c38.6 0 70-31.4 70-70L910.9 184.5c0-38.6-31.4-70-70-70L649.7 114.4c-38.6 0-70 31.4-70 70L579.6 443.7z" fill="#272636" p-id="1337"></path><path d="M373.8 950.8 184.6 950.8c-60.7 0-110-49.4-110-110L74.5 649.5c0-60.7 49.4-110 110-110l299.3 0 0 301.3C483.9 901.4 434.5 950.8 373.8 950.8zM184.6 579.5c-38.6 0-70 31.4-70 70l0 191.2c0 38.6 31.4 70 70 70l189.3 0c38.6 0 70-31.4 70-70l0-261.2L184.6 579.5z" fill="#272636" p-id="1338"></path><path d="M840.9 950.8 649.7 950.8c-60.7 0-110-49.4-110-110L539.6 539.5 840.9 539.5c60.7 0 110 49.4 110 110l0 191.2C950.9 901.4 901.6 950.8 840.9 950.8zM579.6 579.5l0 261.2c0 38.6 31.4 70 70 70L840.9 910.8c38.6 0 70-31.4 70-70L910.9 649.5c0-38.6-31.4-70-70-70L579.6 579.5z" fill="#272636" p-id="1339"></path></svg>