<svg xmlns="http://www.w3.org/2000/svg" viewBox="0 0 1024 1024" version="1.1"><path d="M908.8 492.4c-11 0-20 9-20 20l0 338.3c0 38.6-31.4 70-70 70L202.7 920.8c-38.6 0-70-31.4-70-70l0-676.3c0-38.6 31.4-70 70-70l362.4 0c11 0 20-9 20-20 0-11.1-9-20-20-20L202.7 64.4c-60.7 0-110 49.4-110 110l0 676.3c0 60.7 49.4 110 110 110l616 0c60.7 0 110-49.4 110-110L928.8 512.4C928.8 501.4 919.8 492.4 908.8 492.4z" fill="#272636" p-id="1411"></path><path d="M942.6 118 907.2 82.6c-23.4-23.4-61.5-23.4-84.9 0l-422.4 422.4c-1.3 1.3-2.4 2.8-3.3 4.4L269.3 736.4c-4.5 8-3 17.9 3.6 24.2 3.8 3.7 8.8 5.6 13.9 5.6 3.6 0 7.2-1 10.5-3l219.3-135.1c1.3-0.8 2.6-1.8 3.7-2.9l422.4-422.4C966 179.5 966 141.4 942.6 118zM418.6 552.1l55.4 55.3-132 81.3L418.6 552.1zM914.3 174.6 505.9 582.9l-63.7-63.6L850.6 110.9c7.8-7.8 20.5-7.8 28.3 0l35.4 35.4C922.1 154.1 922.1 166.8 914.3 174.6z" fill="#272636" p-id="1412"></path></svg>