<svg xmlns="http://www.w3.org/2000/svg" viewBox="0 0 1024 1024" version="1.1"><path d="M525.3 913.3l-363.1 0c-11 0-20-9-20-20L142.3 124.3c0-11 9-20 20-20l631.5 0c11 0 20 9 20 20l0 363.2c0 11.1 9 20 20 20 11 0 20-9 20-20L853.8 124.3c0-33.1-26.9-60-60-60L162.3 64.3c-33.1 0-60 26.9-60 60l0 769.1c0 33.1 26.9 60 60 60l363.1 0c11.1 0 20-9 20-20C545.4 922.3 536.4 913.3 525.3 913.3z" fill="#272636" p-id="1972"></path><path d="M715.3 204.5c0-11.1-9-20-20-20L247 184.5c-11.1 0-20 9-20 20 0 11.1 9 20 20 20l448.4 0C706.4 224.5 715.3 215.6 715.3 204.5z" fill="#272636" p-id="1973"></path><path d="M467.6 328.3 247 328.3c-11.1 0-20 9-20 20 0 11.1 9 20 20 20L467.6 368.3c11.1 0 20-9 20-20C487.6 337.2 478.7 328.3 467.6 328.3z" fill="#272636" p-id="1974"></path><path d="M467.6 472 247 472c-11.1 0-20 9-20 20s9 20 20 20L467.6 512c11.1 0 20-9 20-20S478.7 472 467.6 472z" fill="#272636" p-id="1975"></path><path d="M884.4 543.7l-131.2 0L753.2 356.2c0-47.8-38.9-86.7-86.7-86.7l-0.7 0c-48.1 0-87.2 39.1-87.2 87.2l0 201.6c-13.3 7-25.1 16.1-35 26.9-33.6-21.3-78.6-17.3-107.9 11.9-33.8 33.8-33.8 88.9 0 122.8l93.7 93.7c1.5 1.5 3.2 2.7 5 3.6 12.7 12.7 28.9 21.5 45.4 28.6l-0.8 94.9c-0 5.3 2 10.5 5.8 14.3 3.8 3.8 8.9 5.9 14.2 5.9l268.1 0c10.9 0 19.8-8.8 20-19.7l1.4-92.3c22-1.3 41.3-6 52.9-22.2 11.7-16.5 11.7-38.8 11.7-75.8L953 612.2C953 574.4 922.2 543.7 884.4 543.7zM464 625.4c8.8-8.8 20.5-13.6 33.1-13.6 8.7 0 17 2.3 24.2 6.7-8 17.1-12.3 36.2-12.3 56.1l0 61.9-44.9-44.9C445.7 673.3 445.7 643.6 464 625.4zM912.9 750.8c0 24.9 0 46.5-4.3 52.6-2.8 3.9-16.2 5.9-40 5.9-10.9 0-19.8 8.8-20 19.7l-1.4 91.8L619 920.8l0.8-88.3c0.1-8.3-5-15.8-12.8-18.8-44.6-17.3-58.2-32-58.2-62.8l0-76.3c0-38 22.7-71.4 57.7-85.2 8.5-3.3 13.6-11.9 12.6-20.9-0.1-1-0.3-2-0.4-3-0.1-0.8-0.3-2-0.3-2.4L618.5 356.6c0-26 21.2-47.2 47.2-47.2l0.7 0c25.8 0 46.7 21 46.7 46.7l0 207.5c0 11.1 9 20 20 20l151.2 0c15.7 0 28.5 12.8 28.5 28.5L912.9 750.8z" fill="#272636" p-id="1976"></path></svg>