<svg xmlns="http://www.w3.org/2000/svg" viewBox="0 0 1024 1024" version="1.1"><path d="M962.9 937.3c0.2-2.6-0.1-5.3-1.1-8L780 411.3c-2.9-8.2-10.7-13.6-19.4-13.3-8.7 0.3-16.2 6.1-18.6 14.5l-63.5 224.8L440.2 78.6c-3.2-7.5-10.5-12.3-18.7-12.1-8.1 0.1-15.3 5.2-18.3 12.7L74.3 926.2c-0.9 2.3-1.3 4.6-1.3 7-0.6 2-1 4.1-1 6.2 0 11 8.9 19.9 19.9 19.9l851.2 0c11 0 19.9-8.9 19.9-19.9C963 938.7 963 938 962.9 937.3zM763.3 484l46.5 132.6-40.6 28.4-43.2-29.4L763.3 484zM703.8 694.4l10.8-38.3 43.5 29.6c3.4 2.3 7.3 3.5 11.2 3.5 4 0 8-1.2 11.4-3.6l42.7-29.9 92.6 263.8L799 919.5l-95.5-223.9C703.6 695.2 703.7 694.8 703.8 694.4zM273.6 523.3l58.4 52.4c3.8 3.4 8.5 5.1 13.3 5.1 4.3 0 8.6-1.4 12.2-4.2l73.4-57 72.4 54.4c6.9 5.2 16.3 5.3 23.4 0.4l62.9-43.8 165.9 388.9L119.7 919.5 273.6 523.3zM317.3 410.6l40.6 36.5c7.1 6.4 17.8 6.8 25.4 1l49.9-38 47.1 38c3.6 2.9 8.1 4.4 12.5 4.4 4.2 0 8.3-1.3 11.8-3.9l38.1-28.1 30.9 72.5-57.9 40.3-73.1-54.9c-7.2-5.4-17.1-5.3-24.2 0.2l-72.2 56.1-57.2-51.4L317.3 410.6zM422.7 139.3 526.6 382.9l-33.3 24.5-47.3-38.1c-7.1-5.8-17.3-5.9-24.6-0.3l-49.2 37.4-39.6-35.5L422.7 139.3z" fill="#272636" p-id="1314"></path></svg>