<svg xmlns="http://www.w3.org/2000/svg" viewBox="0 0 1024 1024" version="1.1"><path d="M727.9 473.5c-4.6 0-9.1 0.1-13.7 0.4l-50.8-348.5 124.4 0c34.5 0 71.5 16.4 71.5 52.1 0 13.1-5.7 25.4-16.1 34.6-12.9 11.4-32.1 17.5-55.4 17.5-11 0-20 9-20 20 0 11.1 9 20 20 20 33.2 0 61.6-9.5 81.9-27.5 18.8-16.7 29.6-40.2 29.6-64.5 0-24.3-10.8-47.9-29.6-64.5-20.3-18-48.7-27.6-81.9-27.6L587.8 85.6c-11 0-20 8.9-20 20s9 20 20 20l35.2 0 38.4 263.2c-28.3 5.5-123 28.9-239.2 113.2-20.4 14.8-39 30.6-55.9 46.7L235.8 273.9l63.9 0c11 0 20-8.9 20-20s-9-20-20-20L137.6 233.9c-11.1 0-20 8.9-20 20s9 20 20 20l53.9 0c0.1 0.3 0.3 0.7 0.4 1L336.6 579.2c-4.8 5.4-9.5 10.7-14 16.1-23.4-11.1-49.6-17.4-77.2-17.4-99.7 0-180.8 81.1-180.8 180.8s81.1 180.8 180.8 180.8 180.8-81.1 180.8-180.8c0-57.6-27-108.9-69.1-142.1 24.3-28.4 53.6-57.1 88.6-82.5 106.9-77.5 195.1-100.4 221.5-105.9l7.5 51.3C571.7 503.8 494.9 596.4 494.9 706.6c0 128.5 104.5 233 233 233s233-104.5 233-233S856.4 473.5 727.9 473.5zM386.2 758.8c0 77.6-63.2 140.8-140.8 140.8S104.5 836.4 104.5 758.8 167.7 617.9 245.4 617.9c18.3 0 35.7 3.5 51.7 9.8-47.6 65-69 120.1-70.4 123.8-3.9 10.3 1.3 21.9 11.6 25.8 2.3 0.9 4.8 1.3 7.1 1.3 8.1 0 15.7-4.9 18.7-12.9 0.3-0.9 21.3-54.9 68.1-117.9C365 673.8 386.2 713.8 386.2 758.8zM727.9 899.6c-106.4 0-193-86.6-193-193 0-90 62-165.9 145.5-187.1l27.7 190c1.5 10 10 17.1 19.8 17.1 1 0 1.9-0.1 2.9-0.2 10.9-1.6 18.5-11.7 16.9-22.7l-27.7-190c2.6-0.1 5.2-0.2 7.9-0.2 106.4 0 193 86.6 193 193S834.3 899.6 727.9 899.6z" fill="#272636" p-id="1325"></path></svg>