<svg xmlns="http://www.w3.org/2000/svg" viewBox="0 0 1024 1024" version="1.1"><path d="M932 104.3 114.5 104.3c-11 0-20 8.9-20 20l0 89.8c0 11 8.9 20 20 20l44.7 0 0 690.6-34.6 0c-11 0-20 8.9-20 20s8.9 20 20 20l795.6 0c11 0 20-8.9 20-20s-8.9-20-20-20l-32.7 0L887.4 234.1l44.7 0c11 0 20-8.9 20-20L952 124.3C952 113.3 943 104.3 932 104.3zM847.4 921.9 607.2 921.9l0-521.7c0-46.3-37.7-84-84-84-46.3 0-84 37.7-84 84l0 521.7L199.1 921.9 199.1 234.1 847.4 234.1 847.4 921.9zM479.3 919.9 479.3 400.2c0-24.2 19.7-44 44-44 24.2 0 44 19.7 44 44l0 519.7L479.3 919.9zM912 194.1 134.5 194.1l0-49.8 777.6 0L912 194.1z" fill="#272636" p-id="1831"></path><path d="M382.2 390.1c0-37.9-30.6-68.7-68-68.7s-68 30.8-68 68.7l0 113 136.1 0L382.2 390.1zM342.3 463.2l-56.3 0 0-73.1c0-16.1 12.4-28.7 28.1-28.7s28.1 12.6 28.1 28.7L342.3 463.2z" fill="#272636" p-id="1832"></path><path d="M382.2 628c0-37.9-30.6-68.7-68-68.7s-68 30.8-68 68.7l0 172.9 136.1 0L382.2 628zM342.3 760.9l-56.3 0L286 628c0-16.1 12.4-28.7 28.1-28.7s28.1 12.6 28.1 28.7L342.3 760.9z" fill="#272636" p-id="1833"></path><path d="M793.6 390.1c0-37.9-30.1-68.7-67.5-68.7s-67.5 30.8-67.5 68.7l0 113 135.1 0L793.6 390.1zM753.7 463.2l-55.3 0 0-73.1c0-16.1 11.9-28.7 27.6-28.7s27.6 12.6 27.6 28.7L753.7 463.2z" fill="#272636" p-id="1834"></path><path d="M793.6 628c0-37.9-30.1-68.7-67.5-68.7s-67.5 30.8-67.5 68.7l0 172.9 135.1 0L793.6 628zM753.7 760.9l-55.3 0L698.4 628c0-16.1 11.9-28.7 27.6-28.7s27.6 12.6 27.6 28.7L753.7 760.9z" fill="#272636" p-id="1835"></path></svg>