<svg xmlns="http://www.w3.org/2000/svg" viewBox="0 0 1024 1024" version="1.1"><path d="M231.8 896l559.7 0 0-649.8-121.8 0 0-57.4c0-33.1-26.8-61.3-59.9-61.3L415.6 127.5c-33.1 0-62 28.2-62 61.3l0 57.4-121.8 0L231.8 896zM393.5 188.9c0-11 11-21.4 22.1-21.4l194.3 0c11 0 20 10.4 20 21.4l0 57.4-236.4 0L393.5 188.9z" fill="#272636" p-id="1536"></path><path d="M851.9 246.5l0 650.2c60.4-1.1 108.5-50.4 108.5-110.4L960.4 357.4C960.4 297.3 912.3 247.6 851.9 246.5z" fill="#272636" p-id="1537"></path><path d="M171.4 246.5c-60.4 0.7-107.4 50.6-107.4 110.9l0 428.9c0 60.2 47.1 109.7 107.4 110.4L171.4 246.5z" fill="#272636" p-id="1538"></path></svg>