<svg xmlns="http://www.w3.org/2000/svg" viewBox="0 0 1024 1024" version="1.1"><path d="M838.9 446.6l-14.1 0-56.2-189.1c-14.6-49.3-47.2-82-102.8-100.6 0-0.4 0.1-0.8 0.1-1.3L665.8 83.6c0-11.1-9-20-20-20L375.7 63.6c-11 0-20 9-20 20L355.7 155.7c0 0.9 0.1 1.8 0.2 2.6-12.2 4.2-23.4 9-33.4 14.5-36.6 19.9-59.7 48.6-70.5 87.6L200.3 446.6l-13.8 0c-60.7 0-110 49.4-110 110l0 218.1c0 60.7 49.4 110 110 110l2 0 0 16c0 33.1 26.9 60 60 60l30 0c33.1 0 60-26.9 60-60l0-16 346.2 0 0 16c0 33.1 26.9 60 60 60l30 0c33.1 0 60-26.9 60-60l0-16 4 0c60.7 0 110-49.4 110-110l0-218.1C948.9 495.9 899.6 446.6 838.9 446.6zM838.9 486.6c38.6 0 70 31.4 70 70l0 209.3-280.9 0c0.9-1.1 1.9-2.1 2.8-3.3 3-3.8 6.2-8.2 8.7-14.3 7.8-19.1 36.1-86.2 71.4-148.6 59.1-104.4 91-112.5 99-112.5l0-0.7c0 0 0 0 0 0L838.9 486.6zM599.4 737.8c-13.2 16.6-33.5 26.2-55.7 26.2l-12 0 0-278.1 209.6 0c-20.3 21.8-41.9 53-65.3 94.2-36.5 64.5-65.6 133.5-73.6 153.1C602 734.3 601.4 735.3 599.4 737.8zM491.7 763.9 472.9 763.9c-11.3 0-21.2-1.9-29.4-5.6-15.7-7.1-27.6-20.3-33.4-37.1-11.6-33.1-35.8-97.4-67.4-155.4-18.6-34.1-36.8-60.7-54.8-80l203.9 0L491.7 763.9zM395.7 103.7l230.1 0 0 43.1c-31.8-6-69.3-8.9-113.1-8.9-45.3 0-84.1 3.3-117 9.9L395.7 103.7zM290.5 271c12-43.4 48.1-93.2 222.2-93.2 39 0 72.8 2.6 101.3 7.6l-152.3 96.3c-9.3 5.9-12.1 18.3-6.2 27.6 3.8 6 10.3 9.3 16.9 9.3 3.7 0 7.4-1 10.7-3.1L666 199.9c5.4 2.2 10.4 4.6 15.1 7.2 25.4 14 40.6 33.1 49.1 61.8l52.6 176.9L242.1 445.8 290.5 271zM186.6 486.6l29 0c0 0 0-0 0.1-0l0 0.5c42 0 104.9 99.4 156.7 247.3 4 11.6 10 22.2 17.6 31.5L116.6 766l0-209.3C116.6 518 148 486.6 186.6 486.6zM298.6 900.8c0 11-9 20-20 20l-30 0c-11 0-20-9-20-20l0-16 70 0L298.6 900.8zM794.9 900.8c0 11-9 20-20 20l-30 0c-11 0-20-9-20-20l0-16 70 0L794.9 900.8zM838.9 844.8 186.6 844.8c-27.4 0-51.1-15.8-62.6-38.8l777.6 0C890 828.9 866.3 844.8 838.9 844.8z" fill="#272636" p-id="1066"></path><path d="M730.7 645.4c0 43.7 35.5 79.2 79.2 79.2s79.2-35.5 79.2-79.2-35.5-79.2-79.2-79.2S730.7 601.7 730.7 645.4zM849.1 645.4c0 21.6-17.6 39.2-39.2 39.2-21.6 0-39.2-17.6-39.2-39.2s17.6-39.2 39.2-39.2C831.5 606.2 849.1 623.8 849.1 645.4z" fill="#272636" p-id="1067"></path><path d="M215.6 724.6c43.7 0 79.2-35.5 79.2-79.2s-35.5-79.2-79.2-79.2-79.2 35.5-79.2 79.2S171.9 724.6 215.6 724.6zM215.6 606.2c21.6 0 39.2 17.6 39.2 39.2s-17.6 39.2-39.2 39.2-39.2-17.6-39.2-39.2S194 606.2 215.6 606.2z" fill="#272636" p-id="1068"></path></svg>