<svg xmlns="http://www.w3.org/2000/svg" viewBox="0 0 1024 1024" version="1.1"><path d="M802 224.8 786.3 224.8c-16.8-11.8-36.8-19.2-58.4-20.6C699.5 107.1 650.1 86.1 612.7 86.1c-21.7 0-40.1 9.3-54 21.6C536.9 82.4 508.5 65.3 471.4 65.3c-76.1 0-115.8 71.8-136.3 138.7L222 204c-63 0-114.3 51.7-114.3 115.4l0 526.3c0 30.5 11.9 59.1 33.6 80.3 21.5 21.1 50.2 32.7 80.7 32.7l492.7 0 6.2 0 81.1 0c30.5 0 59.2-11.7 80.7-32.8 21.7-21.3 33.6-49.9 33.6-80.4l0-505.3C916.4 276.6 865.1 224.8 802 224.8zM612.7 127.7c21.8 0 50.7 14.1 71.6 76.4l-77.1 0c-6.3-20.8-14.4-42-24.9-61.4C589.8 134.6 600.5 127.7 612.7 127.7zM471.4 106.9c26.3 0 48.9 14.5 67.4 43.3 0.6 1.2 1.3 2.4 2.1 3.4 8.4 13.8 15.9 30.6 22.6 50.4L378.8 204C400.7 139.6 431.9 106.9 471.4 106.9zM714.7 917.1l-492.7 0c-40.8 0-72.8-31.4-72.8-71.4L149.2 319.4c0-40.7 32.6-73.8 72.8-73.8l102.4 0c-3.2 15.1-5.5 29-7.1 40.4-11.2 6.1-18.9 18-18.9 31.7 0 19.9 16.1 36 36 36 19.9 0 36-16.1 36-36 0-10.6-4.6-20-11.8-26.6 1.8-12.6 4.5-28.4 8.4-45.5l208.1 0c3.8 16.8 6.4 32.4 8.1 44.9-7.6 6.6-12.4 16.3-12.4 27.2 0 19.9 16.1 36 36 36 19.9 0 36-16.1 36-36 0-13.4-7.3-25.1-18.2-31.3-1.5-11.5-3.8-25.5-7-40.8l103.2 0c16.3 0 31.3 5.4 43.5 14.6 1 1 2.2 2 3.4 2.8 15.8 13.5 25.9 33.8 25.9 56.4l0 526.1c0 40.2-32 71.7-72.8 71.7L714.7 917.1zM874.8 845.5c0 37.5-27.9 67.4-64.8 71.2 16.4-20 25.3-44.9 25.3-71.2L835.3 319.4c0-17.7-4-34.5-11.1-49.5 29.3 9.5 50.6 37.4 50.6 70.3L874.8 845.5z" fill="#272636" p-id="1022"></path></svg>