<svg xmlns="http://www.w3.org/2000/svg" viewBox="0 0 1025 1024" version="1.1"><path d="M851.7 408l-180.5 0.5c10.1-18.9 59.7-118.8 46.5-225.7-5.5-44.9-33.8-79.6-79.6-97.7-17.9-7-105.7-19.5-132.2 5.9-18.4 18.8-17 44.3-15.4 73.9 0.8 14.2 1.7 30.4 1 47.2-4.5 48.5-10.7 74.3-23.1 95.3-37.4 63.7-100.6 98.4-114.1 100.6L91.8 408.1c-17.7 0-32 14.3-32 32l0 417.3c0 17.7 14.3 32 32 32l269.3-0.2c0.3 0.2 0.5 0.4 0.8 0.7 23.9 19.8 87.4 72.4 192.4 72.4l210.9 0c58.6 0 106-32.2 123.5-83.9 0.2-0.6 0.4-1.2 0.6-1.8 2.2-8 8.2-26 15.2-46.8 28.1-83.5 75.2-223.3 75.2-299.4C979.8 451.5 934.3 408 851.7 408zM123.8 472.1l101.3 0 0 353.3-101.3 0L123.8 472.1zM844 809.3c-7.6 22.7-13.3 39.4-16 49.3-12.6 35.8-47.9 39.7-62.6 39.7L554.4 898.3c-82 0-130.8-40.4-151.6-57.7-10.4-8.6-18.6-15.4-31.7-15.4l-81.9 0L289.2 472.1l65.3 0c36.5 0 122.6-52.7 169.3-132.2 20.2-34.2 27-72 31.7-123.3 1-21.5-0-40.2-0.9-55.2-0.4-7.1-0.8-15.3-0.8-21.4 18.3-1.1 51.4 1.1 61 4.8 24.3 9.6 36.8 24.2 39.5 45.9 11 89.7-34.3 178.1-39.5 187.9-0.3 0.5-0.8 1.5-1 2-9.3 20.1-7.6 43.3 4.4 62 11.9 18.5 32.3 29.5 54.6 29.5L851.7 472c53.6 0 64.1 21.4 64.1 58.3C915.8 595.8 869.1 734.7 844 809.3z" fill="#272636" p-id="2492"></path></svg>