<svg xmlns="http://www.w3.org/2000/svg" viewBox="0 0 1040 1024" version="1.1"><path d="M1015.7 306.8c-9-14.9-24.9-27.1-47.5-36-16.9-6.7-34-10.4-45.3-12.8l-3.7-0.8c-72.1-15.9-152 33.9-236.6 86.7-21.4 13.4-43.5 27.2-65.6 39.9L294.5 569.9l-192.2-57.1c-5.3-1.6-10.9-0.9-15.7 1.8l-76.9 44.4c-5.8 3.3-9.5 9.4-9.9 16-0.4 6.7 2.5 13.1 7.9 17.2l179.6 136.1c1.4 1.1 3 2 4.6 2.6 3.4 1.4 22 8.1 58.5 8.1 32.7 0 79.8-5.3 143.3-24.6 6 2.2 13.3 3.3 21.8 3.3 17.5 0 40.4-4.6 69.2-13.9 21-6.7 43.9-15.6 67.3-25.9 26.6 5.4 60.9 10.7 91.3 10.7 8.2 0 16-0.4 23.4-1.3 61.8-7.4 136.9-56.2 140.1-58.3 0.8-0.5 1.5-1.1 2.2-1.7 13.1-9.7 22.1-24.6 25.1-41.9 3.2-18.6-0.5-38.5-10.6-55.9l0 0c-3.2-5.5-6.9-10.5-10.9-15 58.8-32.9 105.3-61.4 138.5-84.9 55.3-39.1 66.7-59 70.4-72.1C1026.6 339.3 1024.6 321.7 1015.7 306.8zM484.1 662c-38 13.2-59.8 16.1-70 16 5-8.9 18.5-26.2 49.1-52.4 33.6-28.8 78-59.7 121.7-84.7 50.3-28.9 75.7-33.6 88.2-32.5 8.6 0.8 11.8 4.1 16.2 11.7 0 0 0 0 0 0 4.4 7.6 5.6 12 1.9 19.9-5.4 11.3-22.3 30.9-72.6 59.8C574.9 624.8 525.9 647.5 484.1 662zM661.9 647.9c-13.9 1.7-30.3 1.2-47.1-0.5 8-4.3 15.9-8.6 23.7-13.1 26.7-15.3 47.4-29.9 62.7-44 1.2 2.6 2.5 5.2 3.9 7.7 6.5 11.2 15.1 20.7 25.2 27.7C708.7 635.9 683.8 645.3 661.9 647.9zM788.8 549.7C788.8 549.7 788.8 549.7 788.8 549.7c5.3 9.2 7.5 19.8 5.8 29.1-0.8 4.7-3.4 13.2-11.4 17.9-8 4.6-16.7 2.6-21.2 0.9-8.9-3.3-17-10.4-22.3-19.6-5.3-9.2-7.5-19.8-5.8-29.1 0.8-4.7 3.4-13.2 11.4-17.9 3.3-1.9 7.1-2.8 11-2.8C767.9 528.2 781.1 536.4 788.8 549.7zM982.9 346.9c-0.7 2.4-6.5 16.1-55 50.3-35.6 25.1-87.5 56.6-154.3 93.4-16.3-4.3-33.5-2.8-48.3 5.8-0.9 0.5-1.7 1-2.6 1.6-5.3-9-17.8-27-46.1-29.4-26.8-2.4-63.3 10-111.6 37.7-50.8 29.2-101 64.8-137.7 97.8-34.6 31.1-52.7 55.6-55.4 75.3-87.5 24.9-143.1 21.5-163.2 15.4L55.7 578.6l43.4-25.1 192.2 57.1c5.3 1.6 10.9 0.9 15.7-1.8l330-190.5c22.6-13.1 45-27 66.7-40.6 77.5-48.3 150.6-94 206.9-81.6l3.9 0.9c16.7 3.6 55.9 12 66.9 30.4C983.5 330.8 985.9 336.5 982.9 346.9z" fill="#272636" p-id="1423"></path></svg>