<svg xmlns="http://www.w3.org/2000/svg" viewBox="0 0 1024 1024" version="1.1"><path d="M940.6 920.7c-43.8 0-72.5-13.6-103-28.1-25.7-12.2-52.2-24.7-86.2-27.3l89.2-199c12.5-27.9 2.1-60.6-24.2-76.2l-32.6-19.3L783.8 277.7c0-11-9-20-20-20L647.8 257.7 647.8 147.7c0-11-9-20-20-20l-94 0L533.7 83.6c0-11-9-20-20-20s-20 9-20 20l0 44-94 0c-11 0-20 9-20 20l0 110L263.6 257.7c-11 0-20 9-20 20l0 292.1-31 18.2c-27.4 16.1-37.6 50.9-23 79.2l101.7 198c-30.3 2.3-54.6 13.2-80.1 24.6-33.8 15.1-68.8 30.8-126.4 30.8-11 0-20 9-20 20s9 20 20 20c66.2 0 106.9-18.2 142.8-34.3 25.8-11.6 48.2-21.6 75.7-21.6 31.2 0 61.4 12.4 93.4 25.6 36 14.8 73.1 30.1 116.2 30.1 42.2 0 82.1-14.9 120.7-29.2 36.5-13.6 70.9-26.4 104.9-26.4 31.4 0 54.8 11.1 82 24 31.6 15 67.3 31.9 120.1 31.9 11 0 20-9 20-20S951.7 920.7 940.6 920.7zM419.7 167.7l188.1 0 0 90L419.7 257.7 419.7 167.7zM283.6 297.7l116 0L627.8 297.7l116 0 0 249.4L524.4 417.1c-6.3-3.7-14-3.7-20.3-0L283.6 546.3 283.6 297.7zM619.6 893.7c-36.9 13.7-71.8 26.7-106.8 26.7-35.1 0-67.1-13.2-100.9-27.1-23.8-9.8-48.2-19.8-74.1-25L225.2 648.9c-4.8-9.4-1.5-21 7.7-26.4l258.8-151.9 0 233.2c0 11 9 20 20 20s20-9 20-20L531.7 468 796.1 624.6c8.8 5.2 12.2 16.1 8.1 25.4l-97.5 217.6C676.8 872.5 647.8 883.2 619.6 893.7z" fill="#272636" p-id="1104"></path><path d="M403.7 343.7l-64 0c-11 0-20 9-20 20 0 11 9 20 20 20l64 0c11 0 20-9 20-20C423.7 352.7 414.7 343.7 403.7 343.7z" fill="#272636" p-id="1105"></path><path d="M707.8 363.7c0-11-9-20-20-20L497.7 343.7c-11 0-20 9-20 20 0 11 9 20 20 20l190.1 0C698.8 383.8 707.8 374.8 707.8 363.7z" fill="#272636" p-id="1106"></path></svg>