<svg xmlns="http://www.w3.org/2000/svg" viewBox="0 0 1024 1024" version="1.1"><path d="M583.4 257c52.8 0 95.8-43 95.8-95.8 0-52.8-43-95.8-95.8-95.8-52.8 0-95.8 43-95.8 95.8C487.7 214 530.6 257 583.4 257zM583.4 106.7c30 0 54.5 24.4 54.5 54.5 0 30-24.4 54.5-54.5 54.5-30 0-54.5-24.4-54.5-54.5C528.9 131.2 553.4 106.7 583.4 106.7z" fill="#272636" p-id="1179"></path><path d="M936.4 915.1 622.5 915.1c0.9-1.7 1.6-3.6 2.1-5.6l42.2-198.4c1.7-7.9-1.4-16.1-7.9-20.9l-127.9-94.5c4.9-6.7 8.5-14.4 10.5-22.7l32.9-138.8 27.3 57.2c3.5 7.3 10.8 11.7 18.6 11.7 1.8 0 3.6-0.2 5.4-0.7l164.5-44.7c11-3 17.5-14.3 14.5-25.3-3-11-14.3-17.5-25.3-14.5l-147.9 40.2-42-88 7.7-32.6c3.9-16.3 1.1-33.1-7.7-47.4-8.8-14.2-22.6-24.2-38.9-28.1-16.3-3.9-33.1-1.1-47.4 7.7-5.9 3.6-11 8.1-15.3 13.3-15.4-23.1-39.2-40.7-68.3-47.6l-49.8-11.8c-29.5-7-60-2.1-85.8 13.9-25.8 15.9-43.9 40.9-50.8 70.4l-23.7 100.2c-14.4 60.9 23.4 122.2 84.3 136.6l49.8 11.8 0 0c8.8 2.1 17.5 3.1 26.1 3.1 17.2 0 33.8-4 48.8-11.1-2.4 14.9 0.5 30 8.5 43 5.2 8.4 12.2 15.3 20.4 20.4l-25.6 138.1-184.1 152.1c-4.1 3.4-6.5 8.1-7.3 12.9L86.2 915.1c-11.4 0-20.6 9.2-20.6 20.6 0 11.4 9.2 20.6 20.6 20.6L936.4 956.4c11.4 0 20.6-9.2 20.6-20.6C957 924.4 947.8 915.1 936.4 915.1zM524.9 305c3.4-2.1 7.3-3.2 11.2-3.2 1.7 0 3.3 0.2 5 0.6 5.6 1.3 10.3 4.7 13.3 9.6 3 4.9 3.9 10.6 2.6 16.2l-55.7 235.4c-1.3 5.6-4.7 10.3-9.6 13.3-4.9 3-10.6 3.9-16.2 2.6-0 0-0 0-0 0-5.6-1.3-10.3-4.7-13.3-9.6-3-4.9-3.9-10.6-2.6-16.2l15.4-65.1c2.1-5.2 3.8-10.6 5.2-16.2l23.7-100.2c1.3-5.7 2.2-11.3 2.7-17l8.7-36.9C516.6 312.7 520 308 524.9 305zM401.8 510.9l1-120.9 58.1-21-25.3 106.7C428.7 491.3 416.5 503.6 401.8 510.9zM303.3 504.7c-38.8-9.2-62.8-48.2-53.6-86.9l23.7-100.2c4.4-18.8 15.9-34.7 32.3-44.8 16.4-10.1 35.8-13.3 54.6-8.8l49.8 11.8c25.7 6.1 44.9 25.3 52.3 48.8l-87.2 31.5c-8.1 2.9-13.5 10.6-13.6 19.2l-1.2 142.6c-2.4-0.3-4.9-0.8-7.4-1.3l0 0L303.3 504.7zM453.9 777.1c3.7-3.1 6.3-7.4 7.1-12.1L487.8 620.9c2.2-0.3 4.3-0.6 6.4-1.1 0.5 0.5 1.1 0.9 1.6 1.4l127.8 94.4-39.4 185.4c-1.1 5-0.2 10 2.1 14.1L286.9 915.1 453.9 777.1z" fill="#272636" p-id="1180"></path></svg>