<svg xmlns="http://www.w3.org/2000/svg" viewBox="0 0 1024 1024" version="1.1"><path d="M913.9 113.3c-32.9-32.9-76.9-51.1-123.8-51.1s-90.8 18.1-123.8 51.1L416.7 363c-32.9 32.9-51.1 76.9-51.1 123.8s18.1 90.8 51.1 123.8c25.4 25.4 57.6 42.1 93.1 48.4 1.8 0.3 3.5 0.5 5.2 0.5 14.3 0 27-10.2 29.5-24.8 2.9-16.3-8-31.9-24.3-34.8-23.3-4.1-44.4-15.1-61-31.7-21.6-21.6-33.5-50.5-33.5-81.3s11.9-59.7 33.5-81.3l15.9-15.9c-0.3 1.1-0.5 2.3-0.6 3.4-2 16.5 9.8 31.4 26.3 33.3 25.9 3.1 49.2 14.4 67.5 32.7 21.6 21.6 33.5 50.5 33.5 81.3s-11.9 59.7-33.5 81.3L318.5 871.4c-21.6 21.6-50.5 33.5-81.3 33.5-30.8 0-59.7-11.9-81.3-33.5-21.6-21.6-33.5-50.5-33.5-81.3s11.9-59.7 33.5-81.3l169.4-169.4c11.7-11.7 11.7-30.7 0-42.4-11.7-11.7-30.7-11.7-42.4 0L113.5 666.3c-32.9 32.9-51.1 76.9-51.1 123.8 0 46.9 18.1 90.8 51.1 123.8 32.9 32.9 76.9 51.1 123.8 51.1s90.8-18.1 123.8-51.1l249.7-249.7c32.9-32.9 51.1-76.9 51.1-123.8-0-46.9-18.1-90.8-51.1-123.8-27.5-27.5-64.1-45.2-102.9-49.9-3.6-0.4-7.2-0.2-10.5 0.6l211.6-211.6c21.6-21.6 50.5-33.5 81.3-33.5s59.7 11.9 81.3 33.5c21.6 21.6 33.5 50.5 33.5 81.3s-11.9 59.7-33.5 81.3l-150.2 150.2c-11.7 11.7-11.7 30.7 0 42.4 11.7 11.7 30.7 11.7 42.4 0l150.2-150.2c32.9-32.9 51.1-76.9 51.1-123.8C965 190.2 946.9 146.3 913.9 113.3z" fill="#272636" p-id="1614"></path></svg>