<svg xmlns="http://www.w3.org/2000/svg" viewBox="0 0 1024 1024" version="1.1"><path d="M921.1 493.6 771.8 388.2l149.2-105.4c9-6.4 11.2-18.9 4.8-27.9-6.4-9-18.9-11.2-27.9-4.8L731 368l-48.5 0c58.8-43.6 135.6-119.6 104.1-203.1-13.3-35.2-49.1-57.9-91.2-57.9-0.2 0-0.4 0-0.5 0-26.3 0.1-52 9.1-74.3 25.9-11 8.3-20.8 18.2-29.5 29.8-3.1-10-6.9-20.2-11.7-30.1-26.4-54.7-66-66.2-94.7-66.2-27.9 0-67.9 13.6-99.7 78.2-4.2 8.6-7.8 17.1-10.9 25.2-35.9-51.1-76.4-60.6-100-61-38-0.7-74.8 21.1-91.5 54.3-15.8 31.6-17.8 63.9-5.9 96.1 22 59.2 87.4 103.8 130.8 127.9-25.8 12.5-60.4 32.1-95.1 60.6-90.2 74-137.8 172.5-137.8 285.1l0 116c0 60.7 49.4 110 110 110l600.2 0c60.7 0 110-49.4 110-110L894.8 732.7c0-112.5-47.7-211.1-137.8-285.1-19.4-15.9-38.7-29-56.4-39.7l29.8 0 167.6 118.3c3.5 2.5 7.5 3.7 11.5 3.7 6.3 0 12.5-2.9 16.4-8.5C932.2 512.4 930.1 499.9 921.1 493.6zM214.2 245.1c-8-21.6-6.6-42.6 4.2-64.2 9.6-19.1 31.6-32.2 53.8-32.2 0.4 0 0.7 0 1.1 0 33.8 0.7 65.1 29.1 88.2 80 3.6 7.9 11.8 12.6 20.5 11.6 8.6-1 15.6-7.4 17.4-15.9 6.7-32.8 34.9-118 85.3-118 41.4 0 67.7 39.3 78.2 116.7 1.2 9.1 8.5 16.2 17.7 17.2 9.1 1 17.8-4.4 20.9-13 18.4-50.1 53.3-80.1 93.5-80.3 0.1-0 0.2-0 0.4-0 25.3 0 46.4 12.5 53.8 32 14.3 37.9-4.4 81-55.5 128-33.4 30.8-70.8 53.3-84.1 61l-250.9 0C336.1 357.7 238.2 310 214.2 245.1zM731.6 478.5C813.4 545.6 854.8 631.1 854.8 732.7l0 116c0 38.6-31.4 70-70 70L184.6 918.7c-38.6 0-70-31.4-70-70L114.5 732.7c0-101.1 41.1-186.3 122.2-253.3 57.4-47.4 115.7-68.6 124-71.5l248 0C616.9 410.7 674.3 431.5 731.6 478.5z" fill="#272636" p-id="1877"></path></svg>