<svg xmlns="http://www.w3.org/2000/svg" viewBox="0 0 1024 1024" version="1.1"><path d="M802.2 789 221.3 789c-88.6 0-160.7-72-160.7-160.6 0-73.1 49.9-136.5 118.8-155.1-0.1-1.9-0.2-3.9-0.2-5.8 0-61.4 50-111.4 111.4-111.4 23 0 44.9 7 63.3 19.7 41-84.8 127.4-140 223.3-140 132.2 0 240.6 103.9 247.7 234.3 34.7 5 66.7 21.2 91.6 46.6 29.5 30.1 45.8 69.9 45.8 112 0 42.7-16.8 83-47.4 113.4C884.4 772.3 844.4 789 802.2 789zM290.6 396.1c-39.3 0-71.4 32-71.4 71.4 0 5.7 0.7 11.4 2 16.9 1.3 5.5 0.3 11.3-2.9 16-3.2 4.7-8.2 7.8-13.8 8.6-59.3 8.1-104 59.5-104 119.4 0 66.5 54.2 120.6 120.7 120.6l580.9 0c31.6 0 61.6-12.5 84.4-35.2 23-22.8 35.6-53 35.6-85 0-31.6-12.2-61.4-34.3-84-22.1-22.5-51.6-35.4-83.2-36.3-11-0.3-19.7-9.4-19.5-20.4 0-0.6-0-1.2-0-1.7-0-0.8-0-1.7-0-2.5 0-114.7-93.3-207.9-208-207.9-88.9 0-168 56.4-196.8 140.5-2.4 6.9-8.3 11.9-15.4 13.2-7.1 1.3-14.4-1.4-19-7.1C332.3 405.7 312.1 396.1 290.6 396.1z" fill="#272636" p-id="2122"></path></svg>