<svg xmlns="http://www.w3.org/2000/svg" viewBox="0 0 1024 1024" version="1.1"><path d="M798.9 681.4 226.3 681.4c-87.5 0-158.7-71.1-158.7-158.6 0-72.1 49.1-134.7 117.1-153.1-0.1-1.8-0.1-3.7-0.1-5.5 0-60.7 49.4-110.1 110-110.1 22.6 0 44.1 6.8 62.3 19.3C397.4 190 482.6 135.7 577.1 135.7c130.4 0 237.2 102.4 244.4 230.9 34.2 5 65.7 21 90.2 46 29.1 29.7 45.2 69 45.2 110.6 0 42.2-16.6 82-46.8 112C880.1 665 840.6 681.4 798.9 681.4zM294.7 294.2c-38.6 0-70 31.4-70 70 0 5.6 0.7 11.2 2 16.6 1.3 5.5 0.3 11.3-2.9 16-3.2 4.7-8.2 7.8-13.8 8.6-58.3 8-102.2 58.5-102.2 117.4 0 65.4 53.2 118.6 118.7 118.6l572.5 0c31.1 0 60.5-12.3 83-34.6 22.6-22.4 35-52.1 35-83.6 0-31-12-60.4-33.7-82.6-21.7-22.2-50.8-34.8-81.8-35.7-11-0.3-19.7-9.4-19.5-20.4 0-0.6-0-1.1-0-1.7-0-0.8-0-1.7-0-2.5 0-112.8-91.9-204.6-204.8-204.6-87.5 0-165.3 55.6-193.7 138.2-2.4 6.9-8.3 11.9-15.4 13.2-7.2 1.3-14.4-1.4-19-7.1C335.6 303.7 315.8 294.2 294.7 294.2z" fill="#272636" p-id="2157"></path><path d="M554.3 950c-5.1 0-10.2-2-14.1-5.9-7.8-7.8-7.8-20.5 0-28.3l181.7-181.7c7.8-7.8 20.5-7.8 28.3 0 7.8 7.8 7.8 20.5 0 28.3L568.5 944.2C564.6 948.1 559.4 950 554.3 950z" fill="#272636" p-id="2158"></path><path d="M376.3 950c-5.1 0-10.2-2-14.1-5.9-7.8-7.8-7.8-20.5 0-28.3L558 720c7.8-7.8 20.5-7.8 28.3 0 7.8 7.8 7.8 20.5 0 28.3L390.4 944.2C386.5 948.1 381.4 950 376.3 950z" fill="#272636" p-id="2159"></path><path d="M212.4 950c-5.1 0-10.2-2-14.1-5.9-7.8-7.8-7.8-20.5 0-28.3l181.7-181.7c7.8-7.8 20.5-7.8 28.3 0 7.8 7.8 7.8 20.5 0 28.3L226.6 944.2C222.7 948.1 217.5 950 212.4 950z" fill="#272636" p-id="2160"></path></svg>