<svg xmlns="http://www.w3.org/2000/svg" viewBox="0 0 1024 1024" version="1.1"><path d="M948.4 631.3l-118.8-68.6 111.3-34.8c10.5-3.3 16.4-14.5 13.1-25.1-3.3-10.5-14.5-16.4-25.1-13.1l-146.5 45.8-132.2-76.3 129.8-74.9 148.9 46.5c2 0.6 4 0.9 6 0.9 8.5-0 16.4-5.5 19.1-14 3.3-10.5-2.6-21.8-13.1-25.1L827.2 357l120.3-69.4c9.6-5.5 12.8-17.8 7.3-27.3-5.5-9.6-17.8-12.8-27.3-7.3l-118.8 68.6L834.2 207.7c2.4-10.8-4.4-21.5-15.1-23.9-10.8-2.4-21.5 4.4-23.9 15.1l-33.6 149.8-133.7 77.2L627.8 277.2 744.1 170.1c8.1-7.5 8.6-20.1 1.2-28.3-7.5-8.1-20.1-8.6-28.3-1.2l-89.2 82.2L627.8 83.6c0-11.1-8.9-20-20-20s-20 9-20 20l0 134.7-84.4-77.7c-8.1-7.5-20.8-7-28.3 1.2-7.5 8.1-7 20.8 1.2 28.3l111.5 102.7 0 150.4-128.3-74.1-33.6-149.8c-2.4-10.8-13.1-17.6-23.9-15.1-10.8 2.4-17.6 13.1-15.1 23.9l25.5 113.8-119.3-68.9c-9.6-5.5-21.8-2.2-27.3 7.3-5.5 9.6-2.2 21.8 7.3 27.3l120.8 69.7-113.7 35.5c-10.5 3.3-16.4 14.5-13.1 25.1 2.7 8.6 10.6 14 19.1 14 2 0 4-0.3 6-0.9l148.9-46.5 129.3 74.6-131.6 76-146.5-45.8c-10.5-3.3-21.8 2.6-25.1 13.1-3.3 10.5 2.6 21.8 13.1 25.1l111.3 34.8-119.3 68.9c-9.6 5.5-12.8 17.8-7.3 27.3 3.7 6.4 10.4 10 17.3 10 3.4 0 6.8-0.9 10-2.7l120.8-69.7-26.1 116.3c-2.4 10.8 4.4 21.5 15.1 23.9 1.5 0.3 2.9 0.5 4.4 0.5 9.2 0 17.4-6.3 19.5-15.6l34.2-152.2 127.8-73.8 0 153.1L476.5 751c-8.1 7.5-8.6 20.1-1.2 28.3 3.9 4.3 9.3 6.5 14.7 6.5 4.8 0 9.7-1.8 13.5-5.3l84.4-77.7 0 135.3c0 11 8.9 20 20 20s20-9 20-20L627.8 698.2l89.2 82.2c8.1 7.5 20.8 7 28.3-1.2 7.5-8.1 7-20.8-1.2-28.3L627.8 643.8 627.8 492.4l133.2 76.9 34.2 152.2c2.1 9.3 10.3 15.6 19.5 15.6 1.5 0 2.9-0.2 4.4-0.5 10.8-2.4 17.6-13.1 15.1-23.9l-26.1-116.3 120.3 69.4c3.2 1.8 6.6 2.7 10 2.7 6.9 0 13.6-3.6 17.3-10C961.2 649 958 636.8 948.4 631.3z" fill="#272636" p-id="2145"></path><path d="M315.1 744.6c-5.5-9.6-17.8-12.9-27.3-7.3l-77.5 44.7 0-90.3c0-11-9.4-20-20.5-20s-20.5 9-20.5 20l0 88.5-74.2-42.8c-9.6-5.5-21.8-2.2-27.3 7.3-5.5 9.6-2.2 21.8 7.3 27.3l76.3 44-76 43.9c-9.6 5.5-12.8 17.8-7.3 27.3 3.7 6.4 10.4 10 17.3 10 3.4 0 6.8-0.9 10-2.7l73.9-42.7 0 85.9c0 11 9.4 20 20.5 20s20.5-9 20.5-20l0-87.8 77.2 44.5c3.2 1.8 6.6 2.7 10 2.7 6.9 0 13.6-3.6 17.3-10 5.5-9.6 2.2-21.8-7.3-27.3l-76-43.9 76.3-44C317.4 766.4 320.6 754.2 315.1 744.6z" fill="#272636" p-id="2146"></path></svg>