<svg xmlns="http://www.w3.org/2000/svg" viewBox="0 0 1024 1024" version="1.1"><path d="M994.4 660.8c-7.2-16.7-16.7-31.4-23-41.2l-2.1-3.2c-39.8-62.4-131.7-83.7-229-106.2-24.6-5.7-50.1-11.6-74.7-18.2l-360.5-96.6-95.7-176.6c-2.6-4.8-7.1-8.4-12.4-9.8l-86-23c-6.5-1.7-13.4-0.1-18.4 4.3-5 4.4-7.5 11.1-6.6 17.7l30.8 223.7c0.2 1.8 0.7 3.5 1.4 5.1 2.8 6.5 30.4 64.7 154.7 131.3 8.4 17.8 31.9 36.4 72 57 19.7 10.1 42.1 20.1 66 29.3 19.1 28.7 46.9 66.2 74.5 88 49 38.6 136.8 57.2 140.5 57.9 0.9 0.2 1.8 0.3 2.7 0.4 3 0.4 5.9 0.7 8.9 0.7 13.3 0 27-4.3 38.7-12.6 15.5-10.9 27.2-27.7 32.3-47.1l0 0c1.6-6.1 2.5-12.2 2.8-18.3 64.8 18.3 117.9 31 158 37.9 27.3 4.7 47.1 6.5 61.8 6.5 21.4 0 32.1-3.7 39.1-7.7 16.8-9.4 27.9-23.3 32.1-40.1C1006.8 703 1004 683.1 994.4 660.8zM313.4 556.8c9.9-2.7 31.6-5.5 71.9-2.3 44.2 3.4 97.5 13 146.2 26.2 56.1 15.2 77.5 29.8 85.5 39.5 5.6 6.6 5.5 11.3 3.2 19.8-2.3 8.5-4.6 12.5-12.7 15.4-11.8 4.2-37.7 6.1-93.8-9.1-48.7-13.2-99.6-31.8-139.5-51.1C337.9 577.4 320.5 564.1 313.4 556.8zM477.2 677.3c8.7 2.6 17.4 5.1 26 7.5 29.6 8 54.7 12.5 75.5 13.2-1 2.7-1.9 5.4-2.6 8.2-3.4 12.5-3.9 25.4-1.8 37.5-22.5-8.2-46.8-19.1-64.2-32.8C499.2 702.3 487.9 690.3 477.2 677.3zM669.8 731.3c0 0 0 0 0 0-3.1 10.3-8.8 19.3-16.6 24.8-3.9 2.7-11.8 7-20.8 4.6-9-2.4-13.7-10-15.7-14.3-4-8.6-4.7-19.4-1.9-29.7 2.8-10.3 8.8-19.3 16.5-24.8 3.1-2.2 8.7-5.3 15.3-5.3 1.7 0 3.6 0.2 5.4 0.7 9 2.4 13.7 10 15.7 14.3C671.8 710.2 672.9 721 669.8 731.3zM963.7 710.3c-1 3.8-3.3 9.6-12.8 14.9-2.2 1.2-16.1 6.8-74.6-3.3-43-7.4-101.9-21.9-175.2-43-8.8-15.1-22.7-25.9-38.7-30.2-1-0.3-2-0.5-3-0.7 2.6-10.2 6.5-31.7-11.8-53.5-17.3-20.7-51.9-37.8-105.7-52.4-56.7-15.3-117.5-25.7-166.8-28.3-46.5-2.5-76.8 2-92.6 14.1-79.6-44.3-116.6-86.2-126.5-104.7l-26.2-190.6 48.6 13 95.7 176.6c2.6 4.8 7.1 8.4 12.4 9.8l368.8 98.8c25.3 6.8 51.1 12.7 76 18.5 89.1 20.6 173.3 40.1 204.3 88.8l2.2 3.4C947.1 655.7 968.9 689.5 963.7 710.3z" fill="#272636" p-id="1434"></path></svg>