<svg xmlns="http://www.w3.org/2000/svg" viewBox="0 0 1024 1024" version="1.1"><path d="M905.2 386.2c-23.9-24.4-54.7-40.1-88-45C810 215.5 705.4 115.5 578 115.5c-92.3 0-175.5 52.9-215.2 134.3-17.7-12-38.7-18.6-60.6-18.6-59.5 0-107.9 48.4-107.9 107.9 0 1.7 0 3.4 0.1 5C127.9 362.4 80 423.7 80 494.1c0 85.6 69.7 155.3 155.5 155.3l559.1 0c40.8 0 79.5-16.1 108.9-45.3 29.6-29.4 45.9-68.3 45.9-109.7C949.4 453.8 933.7 415.3 905.2 386.2zM875.3 575.8c-21.8 21.7-50.5 33.6-80.7 33.6L235.5 609.4c-63.7 0-115.4-51.7-115.4-115.3 0-57.3 42.8-106.4 99.4-114.2 5.6-0.8 10.6-3.9 13.8-8.6 3.2-4.7 4.2-10.5 2.9-16-1.3-5.3-1.9-10.7-1.9-16.1 0-37.5 30.5-67.9 67.9-67.9 20.5 0 39.7 9.1 52.7 25.1 4.6 5.6 11.9 8.3 19 7.1 7.2-1.3 13.1-6.3 15.4-13.2 27.6-80.6 103.5-134.7 188.7-134.7 110 0 199.5 89.4 199.5 199.4 0 0.8 0 1.6 0 2.5 0 0.5 0 1.1 0 1.6-0.2 11 8.5 20.1 19.5 20.4 30.2 0.8 58.4 13.1 79.5 34.7 21.2 21.6 32.8 50.1 32.8 80.3C909.4 525.1 897.3 554 875.3 575.8z" fill="#272636" p-id="2293"></path><path d="M301.3 676.6c-11 0-20 9-20 20l0 129c0 11 9 20 20 20 11 0 20-9 20-20L321.3 696.6C321.3 685.6 312.3 676.6 301.3 676.6z" fill="#272636" p-id="2294"></path><path d="M726.7 676.6c-11 0-20 9-20 20l0 209c0 11 9 20 20 20s20-9 20-20L746.7 696.6C746.7 685.6 737.8 676.6 726.7 676.6z" fill="#272636" p-id="2295"></path><path d="M616.4 740.7c-5.5-9.6-17.8-12.8-27.3-7.3l-57.4 33.1 0-66.6c0-11-8.9-20-20-20s-20 9-20 20l0 63.9-52.8-30.5c-9.6-5.5-21.8-2.2-27.3 7.3-5.5 9.6-2.2 21.8 7.3 27.3l55 31.8-54.8 31.6c-9.6 5.5-12.8 17.8-7.3 27.3 3.7 6.4 10.4 10 17.3 10 3.4 0 6.8-0.9 10-2.7l52.5-30.3 0 62.2c0 11 8.9 20 20 20s20-9 20-20L531.6 833l57.1 33c3.2 1.8 6.6 2.7 10 2.7 6.9 0 13.6-3.6 17.3-10 5.5-9.6 2.2-21.8-7.3-27.3l-54.8-31.6 55-31.8C618.6 762.5 621.9 750.2 616.4 740.7z" fill="#272636" p-id="2296"></path></svg>