<svg xmlns="http://www.w3.org/2000/svg" viewBox="0 0 1024 1024" version="1.1"><path d="M800.6 680 717.9 680c-11 0-20-9-20-20 0-11 9-20 20-20l82.7 0c31.2 0 60.7-12.3 83.3-34.7 22.7-22.5 35.2-52.3 35.2-83.9 0-31.2-12-60.6-33.9-82.9-21.8-22.2-50.9-35-82-35.8-11-0.3-19.7-9.4-19.5-20.4 0-0.6-0-1.1-0-1.7-0-0.8-0-1.7-0-2.5 0-113.2-92.1-205.3-205.4-205.3-87.7 0-165.8 55.7-194.3 138.7-2.4 6.9-8.3 11.9-15.4 13.2-7.1 1.3-14.4-1.4-19-7.1-13.4-16.5-33.3-25.9-54.5-25.9-38.8 0-70.3 31.5-70.3 70.3 0 5.6 0.7 11.2 2 16.7 1.3 5.5 0.3 11.3-2.9 16s-8.2 7.8-13.8 8.6c-58.5 8-102.6 58.7-102.6 117.8 0 65.6 53.4 119 119.1 119l46.5 0c11 0 20 9 20 20 0 11-9 20-20 20l-46.5 0c-87.7 0-159.1-71.3-159.1-159 0-72.3 49.3-135 117.5-153.5-0.1-1.9-0.1-3.7-0.1-5.6 0-60.8 49.5-110.3 110.3-110.3 22.6 0 44.3 6.8 62.5 19.3 40.6-83.7 126-138.2 220.8-138.2 130.7 0 237.9 102.7 245 231.6 34.3 5 65.9 21 90.5 46.1 29.2 29.8 45.3 69.2 45.3 110.9 0 42.3-16.7 82.2-47 112.3C882 663.5 842.4 680 800.6 680z" fill="#272636" p-id="2066"></path><path d="M361 925.7c-4 0-7.9-1.2-11.4-3.6-7.8-5.4-10.7-15.6-7-24.3l96.9-227.2-105.3 1.6c-8.2 0.1-15.8-4.9-18.9-12.6-3.1-7.7-1-16.5 5.1-22.1l280.8-256.5c6.6-6.1 16.5-7 24.1-2.2 7.6 4.8 11.1 14.1 8.5 22.7l-53.6 178.4 101.1 0c8.2 0 15.5 5 18.6 12.6 3 7.6 1.2 16.3-4.8 21.9L374.8 920.2C371 923.8 366 925.7 361 925.7zM470 630c6.7 0 12.9 3.4 16.6 9 3.8 5.6 4.5 12.8 1.8 19.1l-70.8 166 213.9-204.2L553.4 619.7c-6.3 0-12.3-2.9-16.1-8-3.8-5.1-4.9-11.6-3.1-17.7l40.5-134.7L386.4 631.3l83.3-1.3C469.8 630 469.9 630 470 630z" fill="#272636" p-id="2067"></path></svg>