<svg xmlns="http://www.w3.org/2000/svg" viewBox="0 0 1024 1024" version="1.1"><path d="M937.6 516.5c-11 0-20-9-20-20 0-31.3-12.1-60.9-34-83.2-21.9-22.3-51.2-35.1-82.4-35.9-11-0.3-19.7-9.4-19.5-20.4 0-0.6-0-1.1-0-1.7-0-0.8-0-1.7-0-2.5 0-113.7-92.5-206.2-206.3-206.2-88.1 0-166.5 56-195.1 139.3-2.4 6.9-8.3 11.9-15.4 13.2-7.1 1.3-14.4-1.4-19-7.1-13.5-16.6-33.5-26.1-54.8-26.1-39 0-70.6 31.7-70.6 70.6 0 5.6 0.7 11.3 2 16.8 1.3 5.5 0.3 11.3-2.9 16-3.2 4.7-8.2 7.8-13.8 8.6-58.8 8.1-103.1 58.9-103.1 118.4 0 11-9 20-20 20s-20-9-20-20c0-72.5 49.5-135.5 117.9-154-0.1-1.9-0.1-3.8-0.1-5.7 0-61 49.6-110.7 110.7-110.7 22.7 0 44.5 6.9 62.7 19.5C394.5 161.1 480.2 106.4 575.4 106.4c131.2 0 238.8 103.1 245.9 232.5 34.4 5 66.2 21.1 90.9 46.3 29.3 29.9 45.4 69.4 45.4 111.2C957.6 507.5 948.7 516.5 937.6 516.5z" fill="#272636" p-id="2279"></path><path d="M935.9 600.3 81.6 600.3c-11 0-20-9.4-20-20.5s9-20.5 20-20.5L935.9 559.4c11 0 20 9.4 20 20.5S946.9 600.3 935.9 600.3z" fill="#272636" p-id="2280"></path><path d="M723.8 724.1 81.6 724.1c-11 0-20-8.9-20-20s9-20 20-20l642.2 0c11 0 20 8.9 20 20S734.8 724.1 723.8 724.1z" fill="#272636" p-id="2281"></path><path d="M493.7 852 81.6 852c-11 0-20-8.9-20-20s9-20 20-20l412.2 0c11 0 20 8.9 20 20S504.8 852 493.7 852z" fill="#272636" p-id="2282"></path></svg>