<svg xmlns="http://www.w3.org/2000/svg" viewBox="0 0 1024 1024" version="1.1"><path d="M939.9 225.8 83.6 225.8c-11.1 0-20-8.9-20-20s9-20 20-20l856.4 0c11 0 20 8.9 20 20S951 225.8 939.9 225.8z" fill="#272636" p-id="2259"></path><path d="M939.9 841.8 83.6 841.8c-11.1 0-20-8.9-20-20 0-11 9-20 20-20l856.4 0c11 0 20 8.9 20 20C959.9 832.9 951 841.8 939.9 841.8z" fill="#272636" p-id="2260"></path><path d="M287.6 391.5 153.6 391.5c-11.1 0-20-8.9-20-20s9-20 20-20l134.1 0c11 0 20 8.9 20 20S298.7 391.5 287.6 391.5z" fill="#272636" p-id="2261"></path><path d="M583.8 391.5 449.7 391.5c-11 0-20-8.9-20-20s9-20 20-20l134.1 0c11 0 20 8.9 20 20S594.8 391.5 583.8 391.5z" fill="#272636" p-id="2262"></path><path d="M881.9 391.5 747.9 391.5c-11 0-20-8.9-20-20s9-20 20-20l134.1 0c11 0 20 8.9 20 20S893 391.5 881.9 391.5z" fill="#272636" p-id="2263"></path><path d="M287.6 692.4 153.6 692.4c-11.1 0-20-9.4-20-20.5 0-11 9-20.5 20-20.5l134.1 0c11 0 20 9.4 20 20.5C307.7 683 298.7 692.4 287.6 692.4z" fill="#272636" p-id="2264"></path><path d="M583.8 692.4 449.7 692.4c-11 0-20-9.4-20-20.5 0-11 9-20.5 20-20.5l134.1 0c11 0 20 9.4 20 20.5C603.8 683 594.8 692.4 583.8 692.4z" fill="#272636" p-id="2265"></path><path d="M881.9 692.4 747.9 692.4c-11 0-20-9.4-20-20.5 0-11 9-20.5 20-20.5l134.1 0c11 0 20 9.4 20 20.5C901.9 683 893 692.4 881.9 692.4z" fill="#272636" p-id="2266"></path><path d="M421.7 535.8 285.6 535.8c-11 0-20-8.9-20-20s9-20 20-20l136.1 0c11 0 20 8.9 20 20S432.8 535.8 421.7 535.8z" fill="#272636" p-id="2267"></path><path d="M751.9 535.8 617.8 535.8c-11 0-20-8.9-20-20s9-20 20-20l134.1 0c11 0 20 8.9 20 20S762.9 535.8 751.9 535.8z" fill="#272636" p-id="2268"></path></svg>