<svg xmlns="http://www.w3.org/2000/svg" viewBox="0 0 1024 1024" version="1.1"><path d="M921.5 352.5C878.2 242.2 794.4 155.3 685.7 107.9c-108.7-47.4-229.3-49.6-339.7-6.2-98.7 38.8-178.6 109.9-228.3 202.3l0-153.4c0-11-9-20-20-20-11 0-20 9-20 20l0 217c0 11 9 20 20 20l217 0c11 0 20-9 20-20 0-11-9-20-20-20L140.8 347.6c43.6-96 121.5-170 219.9-208.7 100.4-39.5 210.2-37.4 309.1 5.7 98.9 43.1 175.1 122.1 214.5 222.5 39.5 100.4 37.4 210.2-5.7 309.1-43.1 98.9-122.1 175.1-222.5 214.5-100.4 39.5-210.2 37.5-309.1-5.6-72.1-31.4-132.9-82.5-175.9-147.9-6.1-9.2-18.5-11.8-27.7-5.7-9.2 6.1-11.8 18.5-5.7 27.7 47.3 71.9 114.1 128.1 193.3 162.6 56.9 24.8 117 37.2 177.2 37.2 54.9 0 109.8-10.3 162.5-31C781.1 884.6 868 800.9 915.3 692.2 962.7 583.5 964.9 462.9 921.5 352.5z" fill="#272636" p-id="2440"></path><path d="M424.7 727.2c0 0 0 0 0 0 5.7 0 11.2-3 14.9-7.3l312.3-351.9c7.3-8.3 6.6-20.9-1.7-28.2-8.3-7.4-20.9-6.6-28.2 1.7L424.8 676 308.1 543.9c-7.3-8.3-20-9-28.2-1.7-8.3 7.3-9.1 20.1-1.7 28.4l131.7 149.3C413.5 724.2 419 727.2 424.7 727.2z" fill="#272636" p-id="2441"></path></svg>