<svg xmlns="http://www.w3.org/2000/svg" viewBox="0 0 1024 1024" version="1.1"><path d="M716.4 557 286.6 557c-11 0-20-9-20-20 0-11 9-20 20-20l429.8 0c111.1 0 201.6-90.4 201.6-201.6S827.5 113.9 716.4 113.9c-11 0-20-9-20-20s9-20 20-20c133.2 0 241.6 108.4 241.6 241.6S849.6 557 716.4 557z" fill="#272636" p-id="2246"></path><path d="M562.7 954.6c-11 0-20-9-20-20s9-20 20-20c67.2 0 121.8-54.6 121.8-121.8S629.9 671 562.7 671l-456.1 0c-11 0-20-9-20-20s9-20 20-20l456.1 0c89.2 0 161.8 72.6 161.8 161.8S651.9 954.6 562.7 954.6z" fill="#272636" p-id="2247"></path><path d="M621.8 427.4 105.6 427.4c-11 0-20-8.9-20-20 0-11 9-20 20-20l516.2 0c11 0 20 8.9 20 20C641.8 418.4 632.8 427.4 621.8 427.4z" fill="#272636" p-id="2248"></path></svg>