<svg xmlns="http://www.w3.org/2000/svg" viewBox="0 0 1024 1024" version="1.1"><path d="M799.8 578.5 799.8 137.3c0-41.7-28-70.8-68-70.8-20.7 0-38.8 7.6-53.7 22.6-55 55.1-54.8 202.1-54.7 331.8l0 18.3c0 31.7 8.1 56.1 24 72.7 15.1 15.7 36.4 23.6 63.3 23.6 4.6 0 20.8 0 36.4 0 3.9 0 7.8 0 11.4 0l0 43.1c-26.8 6.8-46.8 31.1-46.8 60.1l0 258.2c0 34.2 27.8 62 62 62l10.9 0c34.2 0 62-27.8 62-62l0-258.2C846.6 609.7 826.6 585.3 799.8 578.5zM747.1 494.1c-15.6-0-31.8-0-36.4-0-40.4 0-46-26.4-46-55l-0-18.3c-0.1-109.6-0.3-259.6 42.6-302.5 7.1-7.1 14.9-10.5 24.5-10.5 17.2 0 26.7 10.5 26.7 29.5l0 356.8C754.9 494.1 751 494.1 747.1 494.1zM805.2 896.7c0 11.4-9.3 20.7-20.7 20.7l-10.9 0c-11.4 0-20.7-9.3-20.7-20.7l0-258.2c0-11.4 9.3-20.7 20.7-20.7l10.9 0c11.4 0 20.7 9.3 20.7 20.7L805.2 896.7z" fill="#272636" p-id="638"></path><path d="M425.8 85c-1.1-10.4-9.9-18.5-20.5-18.5-11.4 0-20.7 9.2-20.7 20.7l0 0.6c0 1.5 0.2 3 0.5 4.5 3.9 17.7 8.3 35.9 13 55.2 16.1 66.4 34.3 141.7 34.3 206.6 0 42-23.9 80-60.8 96.7-9.7 4.4-18.4 7.7-26 9.9L345.6 85.9c0-11.4-9.2-20.7-20.7-20.7-11.4 0-20.7 9.2-20.7 20.7l0 374.6c-6.7-1.9-14.9-4.8-24.5-9.1-37.1-16.9-61-55.1-61-97.2 0-63.5 17.6-137.4 33.1-202.6 5-21 9.7-40.9 13.9-60.2 2.4-11.2-4.7-22.1-15.9-24.5-11.1-2.4-22.1 4.7-24.5 15.9-4 18.8-8.7 38.5-13.7 59.3-16 67.4-34.2 143.8-34.2 212.2 0 58.2 33.4 111.1 85.2 134.7 14.6 6.6 28.8 11.4 41.7 14l0 75.7c-26.5 7-46.1 31.2-46.1 59.9l0 258.2c0 34.2 27.8 62 62 62l10.9 0c34.2 0 62-27.8 62-62l0-258.2c0-29.1-20.2-53.6-47.4-60.2l0-75.2c12.6-2.6 26.7-7.4 43.1-14.8 51.7-23.4 85-76.2 85-134.3 0-69.9-18.8-147.7-35.5-216.4C433.8 119.2 429.6 101.8 425.8 85zM351.7 638.6l0 258.2c0 11.4-9.3 20.7-20.7 20.7l-10.9 0c-11.4 0-20.7-9.3-20.7-20.7l0-258.2c0-11.4 9.3-20.7 20.7-20.7l10.9 0C342.4 617.9 351.7 627.2 351.7 638.6z" fill="#272636" p-id="639"></path></svg>