<svg xmlns="http://www.w3.org/2000/svg" viewBox="0 0 1024 1024" version="1.1"><path d="M961.5 569.7c0-46.3-24.7-83.7-58.4-91.7 14.8-19 23-43.3 23-69.2 0-68.7-44.5-143.6-119.1-200.4-80.1-61-183.8-94.5-292.2-94.5-108.4 0-212.1 33.6-292.2 94.5C148 265.2 103.5 340.1 103.5 408.8c0 24.4 8.5 49.2 24.3 68.9-34.3 7.2-59.7 45-59.7 92 0 36.5 0 93.9 45.2 109.6 2.2 8.3 5.6 16.3 10.9 23.4-0.9 2.3-1.9 4.7-1.9 7.3l0 84c0 62.1 51.6 112.2 113.7 112.2L793.4 906.3c62.1 0 111.8-50 111.8-112.2l0-84c0-1.4 0.3-2.8 0.1-4.1 5.6-7.4 9.6-16.4 11.5-26.8C961.2 663.8 961.5 608.3 961.5 569.7zM247.4 241.1c73-55.6 167.9-86.1 267.4-86.1s194.4 30.6 267.4 86.1c64.5 49.1 103 111.3 103 167.2 0 46.7-34.1 67.1-68 67.1L212.3 475.4c-33.3 0-67.8-24.8-67.8-67.1C144.5 352.3 183 290.1 247.4 241.1zM139.8 516.4l72.5 0 604.8 0 72.7 0c17.6 0 30.7 28.1 30.7 52.8 0 62.7-8.6 71.7-25.1 72.9-9.7-0.7-18-4.5-26.1-11.1-7.9-7.3-16-16.9-23.6-26-5.7-6.8-11.6-13.7-17.8-20.3-14.7-16.6-32-31.2-55.8-32.3-1.1-0.1-2.2-0.1-3.3-0.1-31.4 0-53.5 25.3-74.9 49.8-2.1 2.4-4.3 4.9-6.4 7.3-15.8 17.2-31.8 32.8-46.6 33-1-0-1.9-0.1-2.9-0.2-14.2-2.2-31.3-21.6-46.4-38.9-1.7-1.9-3.4-3.8-5-5.7-18.6-22.2-40-45.3-69.9-45.3-0.2 0-0.4 0-0.6 0-0.2-0-0.4-0-0.5-0-30 0-52.4 24.4-74.1 48-18.6 20.2-37.8 41-57.4 42.1-19.4-0.6-37.2-20-56-40.6-11.8-12.9-23.9-26.1-37.4-35.6-10.6-7.8-22.3-13.1-35.5-13.6-1.6-0.1-3.1-0.2-4.7-0.2-34.6 0-57.1 29.2-75.2 53.9-14 17.9-27.3 34.6-42 36.1-14.4-1-24.2-9.6-24.2-73.1C109.1 544.5 122.2 516.4 139.8 516.4zM847.6 688.3 179.6 688.3c-9 0-16.2-3.6-21-9.2 19.5-8 33.9-27.3 47.9-46.4 0.5-0.7 1-1.2 1.5-1.9 0.1-0.2 0.2-0.2 0.4-0.4 14.8-18.9 28.7-36.7 44.3-37 5.2 0.6 10.6 3.4 16.2 7.6 8.2 6.6 17.2 16.8 26 26.7 23.1 26.1 49.2 55.8 87.7 55.8 0.4 0 0.8-0 1.3-0 0.4 0 0.8 0 1.3 0 38.2 0 64.3-29.2 87.3-54.9 15.2-17.1 31-34.7 43.9-35.2 11.1 0.5 25.7 15.7 39.4 31.1 1.3 1.5 2.6 3.1 3.8 4.6 19.9 23.9 42.3 50.8 75.1 54.1 2 0.2 4.1 0.3 6.2 0.3 0.1 0 0.2-0 0.2-0 0.1 0 0.2 0 0.2 0 32.6 0 56.3-23.3 76.9-46.6 2.4-2.6 4.8-5.2 7.1-7.8 15.1-16.7 32.3-35.7 44.1-35.7 0.4 0 0.9 0.1 1.3 0.1 8.1 1 17.3 8.6 26.5 18.3 3.8 4.3 7.9 9.3 12.4 14.9 9.5 11.7 20.1 24.8 33 35.4 9.5 8.6 19.8 14.9 31.3 18.4C868.8 687.2 859.9 688.3 847.6 688.3zM864.2 794.1c0 39.5-31.3 71.2-70.8 71.2L236 865.3c-39.5 0-72.8-31.7-72.8-71.2l0-63.8 16.4 0L847.6 730.2l16.6 0L864.2 794.1z" fill="#272636" p-id="561"></path><path d="M415.7 262.3c11.9 0 21.5-9.7 21.5-21.5s-9.7-21.5-21.5-21.5c-11.9 0-21.5 9.7-21.5 21.5S403.8 262.3 415.7 262.3z" fill="#272636" p-id="562"></path><path d="M307.1 377.1c11.9 0 21.5-9.7 21.5-21.5s-9.7-21.5-21.5-21.5c-11.9 0-21.5 9.7-21.5 21.5S295.2 377.1 307.1 377.1z" fill="#272636" p-id="563"></path><path d="M618.5 262.3c11.9 0 21.5-9.7 21.5-21.5s-9.7-21.5-21.5-21.5c-11.9 0-21.5 9.7-21.5 21.5S606.7 262.3 618.5 262.3z" fill="#272636" p-id="564"></path><path d="M517.1 377.1c11.9 0 21.5-9.7 21.5-21.5s-9.7-21.5-21.5-21.5c-11.9 0-21.5 9.7-21.5 21.5S505.2 377.1 517.1 377.1z" fill="#272636" p-id="565"></path><path d="M727.1 377.1c11.9 0 21.5-9.7 21.5-21.5s-9.7-21.5-21.5-21.5c-11.9 0-21.5 9.7-21.5 21.5S715.3 377.1 727.1 377.1z" fill="#272636" p-id="566"></path></svg>