<svg xmlns="http://www.w3.org/2000/svg" viewBox="0 0 1024 1024" version="1.1"><path d="M958.4 451.5c-0.1-5.8-2.6-11.2-7-15L524.3 69.5c-7.5-6.4-18.6-6.4-26.1 0L310.6 230.8 310.6 130.4c0-11-9-20-20-20l-88 0c-11 0-20 9-20 20l0 210.4L71.3 436.6c-4.4 3.8-6.8 9.3-6.8 15.2l0 105.1c0 8.1 4.6 15.8 12.1 18.9 2.5 1 5 1.5 7.6 1.5 4.7 0 9.3-1.7 13-4.8l53.3-45.8 0 344.1c0 49.7 40.3 90 90 90l156.5 0c-0.3-1.3-0.4-2.6-0.4-4L396.6 680.6c0-22.1 17.9-40 40-40l134.1 0c22.1 0 40 17.9 40 40l0 276.1c0 1.4-0.1 2.7-0.4 4l174.5 0c49.7 0 90-40.3 90-90L874.8 527l51.1 44c5.1 4.4 12.1 6.3 18.7 4.5 9-2.4 14.9-10.5 14.8-19.5L958.4 451.5z" fill="#272636" p-id="1636"></path></svg>