<svg xmlns="http://www.w3.org/2000/svg" viewBox="0 0 1024 1024" version="1.1"><path d="M535.9 487.9 535.9 335.1l103.4 0c11 0 20-9 20-20 0-11-9-20-20-20L535.9 295.1 535.9 183.1l103.4 0c11 0 20-9 20-20 0-11-9-20-20-20L535.9 143.1 535.9 91.1c0-11-9-20-20-20-11 0-20 9-20 20l0 396.8c-120.8 10.2-216 111.7-216 235.1 0 130.1 105.9 236 236 236s236-105.9 236-236C751.9 599.7 656.7 498.1 535.9 487.9zM515.9 919c-108.1 0-196-87.9-196-196 0-108.1 87.9-196 196-196s196 87.9 196 196C711.9 831.1 624 919 515.9 919z" fill="#272636" p-id="2529"></path></svg>