<svg xmlns="http://www.w3.org/2000/svg" viewBox="0 0 1024 1024" version="1.1"><path d="M900.1 324.3l-65.4 0-480.4-194.5c-15.3-6.2-32.7-5.8-47.7 1.1-15 6.9-26.6 19.9-31.8 35.5l-13.2 39.7-27.1-4.4c-32.5-5.3-63.4 16.9-68.8 49.4l-12.2 73.1-26.9 0c-33.1 0-60 26.9-60 60l0 466.4c0 33.1 26.9 60 60 60L900.1 910.7c33.1 0 60-26.9 60-60L960.2 384.3C960.2 351.2 933.2 324.3 900.1 324.3zM312.8 179.1c1.8-5.3 5.5-9.5 10.6-11.8 5.1-2.3 10.7-2.5 15.9-0.4L728 324.3l-463.6 0L312.8 179.1zM205.1 257.8c1.8-10.8 12.1-18.2 22.9-16.5l20.7 3.4-26.5 79.6-28.3 0L205.1 257.8zM920.1 850.7c0 11-9 20-20 20L126.5 870.7c-11 0-20-9-20-20L106.5 384.3c0-11 9-20 20-20L900.1 364.3c11 0 20 9 20 20L920.1 850.7z" fill="#272636" p-id="1795"></path><path d="M512.8 393.7c-123.7 0-224.4 100.7-224.4 224.4s100.7 224.4 224.4 224.4 224.4-100.7 224.4-224.4S636.5 393.7 512.8 393.7zM328.4 618.1c0-95.9 73.7-175 167.4-183.6l0 26.4c-47.5 9.1-83.4 48.9-83.6 96.6-0.1 5.2 0.2 33.7 22.3 56.7 17.4 18.1 42.7 27.3 75.1 27.3 27.8 0 48.6 6.4 60.1 18.6 11.5 12.2 11.2 27.2 11.1 28.9-0.1 0.7-0.1 0.9-0.1 1.6 0 24.6-29.4 45.3-64.3 45.3-35.4 0-64.3-26.4-64.3-58.9 0-11-9-20-20-20-11 0-20 9-20 20 0 47.8 36 87.8 83.6 96.9l0 27.6C402.1 793.1 328.4 714 328.4 618.1zM535.7 801l0-26.4c19.7-3 37.9-10.4 52.6-21.8 20.7-16 32.2-37.8 32.5-61.3 0.4-6.4 0.6-34.1-21.2-57.9-19.5-21.3-49.7-32-90-32-20.9 0-36.4-4.9-45.9-14.7-11.2-11.4-11.5-26.8-11.5-28.3 0-0.3 0-0.3 0-0.7 0-32.5 28.8-58.9 64.3-58.9 35.4 0 64.3 26.4 64.3 58.9 0 11 9 20 20 20s20-9 20-20c0-48.3-36.7-88.6-85.1-97.2l0-25.5c90.9 11.3 161.4 89 161.4 182.9C697.2 712 626.6 789.7 535.7 801z" fill="#272636" p-id="1796"></path></svg>