<svg xmlns="http://www.w3.org/2000/svg" viewBox="0 0 1024 1024" version="1.1"><path d="M935.9 923.7l-35.7 0L900.2 348.5c0-6.8-3.5-13.1-9.2-16.8L524.9 95.6c-6.6-4.2-15-4.3-21.6-0.1L133.1 331.7c-5.8 3.7-9.2 10-9.2 16.9l0 575.1-26.3 0c-11.1 0-20 8.9-20 20s9 20 20 20l838.4 0c11 0 20-8.9 20-20S947 923.7 935.9 923.7zM163.9 359.5l350.1-223.3L860.2 359.4l0 564.2L587.9 923.7 587.9 488.5c0-37.9-30.5-68.7-68-68.7s-68 30.8-68 68.7l0 435.1-287.9 0L163.9 359.5zM548 923.7l-56.3 0L491.7 488.5c0-16.1 12.4-28.7 28.1-28.7s28.1 12.6 28.1 28.7L548 923.7z" fill="#272636" p-id="1846"></path><path d="M315.2 417.8c-37.5 0-68 30.8-68 68.7l0 72.8 136.1 0 0-72.8C383.3 448.6 352.7 417.8 315.2 417.8zM343.4 519.4l-55.3 0 0-32.9c0-16.1 11.9-28.7 27.6-28.7s27.6 12.6 27.6 28.7L343.4 519.4z" fill="#272636" p-id="1847"></path><path d="M799.7 486.5c0-37.9-30.5-68.7-68-68.7s-68 30.8-68 68.7l0 72.8 136.1 0L799.7 486.5zM759.8 519.4l-56.3 0 0-32.9c0-16.1 12.4-28.7 28.1-28.7s28.1 12.6 28.1 28.7L759.8 519.4z" fill="#272636" p-id="1848"></path><path d="M315.2 603.9c-37.5 0-68 30.8-68 68.7l0 193.7 136.1 0L383.3 672.6C383.3 634.7 352.7 603.9 315.2 603.9zM343.4 826.4l-55.3 0L288.1 672.6c0-16.1 11.9-28.7 27.6-28.7s27.6 12.6 27.6 28.7L343.4 826.4z" fill="#272636" p-id="1849"></path><path d="M799.7 672.6c0-37.9-30.5-68.7-68-68.7s-68 30.8-68 68.7l0 193.7 136.1 0L799.7 672.6zM759.8 826.4l-56.3 0L703.6 672.6c0-16.1 12.4-28.7 28.1-28.7s28.1 12.6 28.1 28.7L759.8 826.4z" fill="#272636" p-id="1850"></path><path d="M520.1 372.7c44.2 0 80.2-36 80.2-80.2 0-44.2-36-80.2-80.2-80.2s-80.2 36-80.2 80.2C439.8 336.7 475.8 372.7 520.1 372.7zM520.1 252.3c22.2 0 40.2 18 40.2 40.2 0 22.2-18 40.2-40.2 40.2s-40.2-18-40.2-40.2C479.8 270.3 497.9 252.3 520.1 252.3z" fill="#272636" p-id="1851"></path></svg>